<?xml version="1.0" standalone="yes"?>
<!DOCTYPE svg PUBLIC "-//W3C//DTD SVG 1.1//EN"
 "http://www.w3.org/Graphics/SVG/1.1/DTD/svg11.dtd">
<svg xmlns="http://www.w3.org/2000/svg" version="1.1"
  width="100%" height="100%" viewBox="0 0 1024 768"
  style="fill: none; font-family: Arial;
 font: Arial;
">

<!-- Creator: NGspice -->

<rect x="0" y="0" width="1024" height="768" fill="white" stroke="none"/>
<text stroke="none" fill="black" font-size="16" x="358" y="752">
Power(mW)
</text>
<text transform="rotate(-90, 20, 424)"  stroke="none" fill="black" font-size="16" x="20" y="424">
Gain(db)
</text>
<text stroke="none" fill="black" font-size="16" x="10" y="16">
ac39: OTA_2stage_Gain_vs_Power
</text>
<path stroke="black" stroke-dasharray="1,2" d="M95 704l0 -640"/>
<text stroke="none" fill="black" font-size="16" x="80" y="728">
1.0
</text>
<path stroke="black" stroke-dasharray="1,2" d="M173 704l0 -640"/>
<text stroke="none" fill="black" font-size="16" x="158" y="728">
2.0
</text>
<path stroke="black" stroke-dasharray="1,2" d="M251 704l0 -640"/>
<text stroke="none" fill="black" font-size="16" x="236" y="728">
3.0
</text>
<path stroke="black" stroke-dasharray="1,2" d="M329 704l0 -640"/>
<text stroke="none" fill="black" font-size="16" x="314" y="728">
4.0
</text>
<path stroke="black" stroke-dasharray="1,2" d="M407 704l0 -640"/>
<text stroke="none" fill="black" font-size="16" x="392" y="728">
5.0
</text>
<path stroke="black" stroke-dasharray="1,2" d="M485 704l0 -640"/>
<text stroke="none" fill="black" font-size="16" x="470" y="728">
6.0
</text>
<path stroke="black" stroke-dasharray="1,2" d="M563 704l0 -640"/>
<text stroke="none" fill="black" font-size="16" x="548" y="728">
7.0
</text>
<path stroke="black" stroke-dasharray="1,2" d="M641 704l0 -640"/>
<text stroke="none" fill="black" font-size="16" x="626" y="728">
8.0
</text>
<path stroke="black" stroke-dasharray="1,2" d="M719 704l0 -640"/>
<text stroke="none" fill="black" font-size="16" x="704" y="728">
9.0
</text>
<path stroke="black" stroke-dasharray="1,2" d="M797 704l0 -640"/>
<text stroke="none" fill="black" font-size="16" x="777" y="728">
10.0
</text>
<path stroke="black" stroke-dasharray="1,2" d="M875 704l0 -640"/>
<text stroke="none" fill="black" font-size="16" x="855" y="728">
11.0
</text>
<path stroke="black" stroke-dasharray="1,2" d="M953 704l0 -640"/>
<text stroke="none" fill="black" font-size="16" x="933" y="728">
12.0
</text>
<text stroke="none" fill="black" font-size="16" x="614" y="752">
m     
</text>
<path stroke="black" stroke-dasharray="1,2" d="M95 704l858 0"/>
<text stroke="none" fill="black" font-size="16" x="53" y="712">
88.0
</text>
<path stroke="black" stroke-dasharray="1,2" d="M95 624l858 0"/>
<text stroke="none" fill="black" font-size="16" x="53" y="632">
90.0
</text>
<path stroke="black" stroke-dasharray="1,2" d="M95 544l858 0"/>
<text stroke="none" fill="black" font-size="16" x="53" y="552">
92.0
</text>
<path stroke="black" stroke-dasharray="1,2" d="M95 464l858 0"/>
<text stroke="none" fill="black" font-size="16" x="53" y="472">
94.0
</text>
<path stroke="black" stroke-dasharray="1,2" d="M95 384l858 0"/>
<text stroke="none" fill="black" font-size="16" x="53" y="392">
96.0
</text>
<path stroke="black" stroke-dasharray="1,2" d="M95 304l858 0"/>
<text stroke="none" fill="black" font-size="16" x="53" y="312">
98.0
</text>
<path stroke="black" stroke-dasharray="1,2" d="M95 224l858 0"/>
<text stroke="none" fill="black" font-size="16" x="43" y="232">
100.0
</text>
<path stroke="black" stroke-dasharray="1,2" d="M95 144l858 0"/>
<text stroke="none" fill="black" font-size="16" x="43" y="152">
102.0
</text>
<path stroke="black" stroke-dasharray="1,2" d="M95 64l858 0"/>
<text stroke="none" fill="black" font-size="16" x="43" y="72">
104.0
</text>
<text stroke="none" fill="black" font-size="16" x="10" y="32">
     
</text>
<path stroke="red" d="M872 159l49 15M841 141l31 18M801 128l40 13M745 114l56 14M720 104l25 10M661 98l59 6M622 112l39 -14M575 141l47 -29M525 180l50 -39M463 222l62 -42M433 297l30 -75M388 357l45 -60M346 423l42 -66M282 478l64 -55M268 531l14 -53M207 573l61 -42"/>
<path stroke="red" d="M173 614l34 -41M142 651l31 -37M113 686l29 -35"/>
</svg>
