<?xml version="1.0" standalone="yes"?>
<!DOCTYPE svg PUBLIC "-//W3C//DTD SVG 1.1//EN"
 "http://www.w3.org/Graphics/SVG/1.1/DTD/svg11.dtd">
<svg xmlns="http://www.w3.org/2000/svg" version="1.1"
  width="100%" height="100%" viewBox="0 0 1024 768"
  style="fill: none; font-family: Arial;
 font: Arial;
">

<!-- Creator: NGspice -->

<rect x="0" y="0" width="1024" height="768" fill="white" stroke="none"/>
<text stroke="none" fill="black" font-size="16" x="358" y="752">
Frequency(Hz)
</text>
<text transform="rotate(-90, 20, 424)"  stroke="none" fill="black" font-size="16" x="20" y="424">
Gain(db)
</text>
<text stroke="none" fill="black" font-size="16" x="10" y="16">
ac1: OTA_2stage Gain(tt)
</text>
<path stroke="black" d="M85 704l0 -636"/>
<text stroke="none" fill="black" font-size="16" x="80" y="728">
1
</text>
<path stroke="black" stroke-dasharray="1,2" d="M143 704l0 -636M160 704l0 -636M172 704l0 -636"/>
<path stroke="black" d="M182 704l0 -636"/>
<text stroke="none" fill="black" font-size="16" x="172" y="728">
10
</text>
<path stroke="black" stroke-dasharray="1,2" d="M240 704l0 -636M257 704l0 -636M269 704l0 -636"/>
<path stroke="black" d="M279 704l0 -636"/>
<text stroke="none" fill="black" font-size="16" x="264" y="728">
100
</text>
<path stroke="black" stroke-dasharray="1,2" d="M337 704l0 -636M354 704l0 -636M366 704l0 -636"/>
<path stroke="black" d="M376 704l0 -636"/>
<text stroke="none" fill="black" font-size="16" x="356" y="728">
10^3
</text>
<path stroke="black" stroke-dasharray="1,2" d="M434 704l0 -636M451 704l0 -636M463 704l0 -636"/>
<path stroke="black" d="M473 704l0 -636"/>
<text stroke="none" fill="black" font-size="16" x="453" y="728">
10^4
</text>
<path stroke="black" stroke-dasharray="1,2" d="M531 704l0 -636M548 704l0 -636M560 704l0 -636"/>
<path stroke="black" d="M570 704l0 -636"/>
<text stroke="none" fill="black" font-size="16" x="550" y="728">
10^5
</text>
<path stroke="black" stroke-dasharray="1,2" d="M628 704l0 -636M645 704l0 -636M657 704l0 -636"/>
<path stroke="black" d="M667 704l0 -636"/>
<text stroke="none" fill="black" font-size="16" x="647" y="728">
10^6
</text>
<path stroke="black" stroke-dasharray="1,2" d="M725 704l0 -636M742 704l0 -636M754 704l0 -636"/>
<path stroke="black" d="M764 704l0 -636"/>
<text stroke="none" fill="black" font-size="16" x="744" y="728">
10^7
</text>
<path stroke="black" stroke-dasharray="1,2" d="M822 704l0 -636M839 704l0 -636M851 704l0 -636"/>
<path stroke="black" d="M861 704l0 -636"/>
<text stroke="none" fill="black" font-size="16" x="841" y="728">
10^8
</text>
<path stroke="black" stroke-dasharray="1,2" d="M919 704l0 -636M936 704l0 -636M948 704l0 -636"/>
<path stroke="black" d="M958 704l0 -636"/>
<text stroke="none" fill="black" font-size="16" x="938" y="728">
10^9
</text>
<text stroke="none" fill="black" font-size="16" x="622" y="752">
Hz
</text>
<path stroke="black" stroke-dasharray="1,2" d="M85 704l873 0"/>
<text stroke="none" fill="black" font-size="16" x="33" y="712">
-15.0
</text>
<path stroke="black" stroke-dasharray="1,2" d="M85 651l873 0"/>
<text stroke="none" fill="black" font-size="16" x="33" y="659">
-10.0
</text>
<path stroke="black" stroke-dasharray="1,2" d="M85 598l873 0"/>
<text stroke="none" fill="black" font-size="16" x="43" y="606">
-5.0
</text>
<path stroke="black" d="M85 545l873 0"/>
<text stroke="none" fill="black" font-size="16" x="53" y="553">
0.0
</text>
<path stroke="black" stroke-dasharray="1,2" d="M85 492l873 0"/>
<text stroke="none" fill="black" font-size="16" x="53" y="500">
5.0
</text>
<path stroke="black" stroke-dasharray="1,2" d="M85 439l873 0"/>
<text stroke="none" fill="black" font-size="16" x="43" y="447">
10.0
</text>
<path stroke="black" stroke-dasharray="1,2" d="M85 386l873 0"/>
<text stroke="none" fill="black" font-size="16" x="43" y="394">
15.0
</text>
<path stroke="black" stroke-dasharray="1,2" d="M85 333l873 0"/>
<text stroke="none" fill="black" font-size="16" x="43" y="341">
20.0
</text>
<path stroke="black" stroke-dasharray="1,2" d="M85 280l873 0"/>
<text stroke="none" fill="black" font-size="16" x="43" y="288">
25.0
</text>
<path stroke="black" stroke-dasharray="1,2" d="M85 227l873 0"/>
<text stroke="none" fill="black" font-size="16" x="43" y="235">
30.0
</text>
<path stroke="black" stroke-dasharray="1,2" d="M85 174l873 0"/>
<text stroke="none" fill="black" font-size="16" x="43" y="182">
35.0
</text>
<path stroke="black" stroke-dasharray="1,2" d="M85 121l873 0"/>
<text stroke="none" fill="black" font-size="16" x="43" y="129">
40.0
</text>
<path stroke="black" stroke-dasharray="1,2" d="M85 68l873 0"/>
<text stroke="none" fill="black" font-size="16" x="43" y="76">
45.0
</text>
<text stroke="none" fill="black" font-size="16" x="10" y="32">
dB
</text>
<path stroke="red" d="M436 23l43 0"/>
<text stroke="none" fill="black" font-size="16" x="489" y="32">
db(ac1.vout)
</text>
<path stroke="red" d="M85 89l411 0 10 1 10 0 10 1 9 1 10 1 20 6 9 6 10 7 10 9 10 12 10 15 9 16 10 18 10 19 10 20 10 21 9 20 20 42 10 22 9 21 20 42 10 22 10 21 9 21 10 21 10 20 10 21 10 19 9 19 20 34 10 15 10 13 9 14 30 36 9 12 10 10"/>
</svg>
