<?xml version="1.0" standalone="yes"?>
<!DOCTYPE svg PUBLIC "-//W3C//DTD SVG 1.1//EN"
 "http://www.w3.org/Graphics/SVG/1.1/DTD/svg11.dtd">
<svg xmlns="http://www.w3.org/2000/svg" version="1.1"
  width="100%" height="100%" viewBox="0 0 1024 768"
  style="fill: none; font-family: Arial;
 font: Arial;
">

<!-- Creator: NGspice -->

<rect x="0" y="0" width="1024" height="768" fill="white" stroke="none"/>
<text stroke="none" fill="black" font-size="16" x="358" y="752">
Frequency(Hz)
</text>
<text transform="rotate(-90, 20, 424)"  stroke="none" fill="black" font-size="16" x="20" y="424">
Gain(db)
</text>
<text stroke="none" fill="black" font-size="16" x="10" y="16">
ac1: OTA_2stage Gain
</text>
<path stroke="black" d="M85 704l0 -640"/>
<text stroke="none" fill="black" font-size="16" x="80" y="728">
1
</text>
<path stroke="black" stroke-dasharray="1,2" d="M143 704l0 -640M160 704l0 -640M172 704l0 -640"/>
<path stroke="black" d="M182 704l0 -640"/>
<text stroke="none" fill="black" font-size="16" x="172" y="728">
10
</text>
<path stroke="black" stroke-dasharray="1,2" d="M240 704l0 -640M257 704l0 -640M269 704l0 -640"/>
<path stroke="black" d="M279 704l0 -640"/>
<text stroke="none" fill="black" font-size="16" x="264" y="728">
100
</text>
<path stroke="black" stroke-dasharray="1,2" d="M337 704l0 -640M354 704l0 -640M366 704l0 -640"/>
<path stroke="black" d="M376 704l0 -640"/>
<text stroke="none" fill="black" font-size="16" x="356" y="728">
10^3
</text>
<path stroke="black" stroke-dasharray="1,2" d="M434 704l0 -640M451 704l0 -640M463 704l0 -640"/>
<path stroke="black" d="M473 704l0 -640"/>
<text stroke="none" fill="black" font-size="16" x="453" y="728">
10^4
</text>
<path stroke="black" stroke-dasharray="1,2" d="M531 704l0 -640M548 704l0 -640M560 704l0 -640"/>
<path stroke="black" d="M570 704l0 -640"/>
<text stroke="none" fill="black" font-size="16" x="550" y="728">
10^5
</text>
<path stroke="black" stroke-dasharray="1,2" d="M628 704l0 -640M645 704l0 -640M657 704l0 -640"/>
<path stroke="black" d="M667 704l0 -640"/>
<text stroke="none" fill="black" font-size="16" x="647" y="728">
10^6
</text>
<path stroke="black" stroke-dasharray="1,2" d="M725 704l0 -640M742 704l0 -640M754 704l0 -640"/>
<path stroke="black" d="M764 704l0 -640"/>
<text stroke="none" fill="black" font-size="16" x="744" y="728">
10^7
</text>
<path stroke="black" stroke-dasharray="1,2" d="M822 704l0 -640M839 704l0 -640M851 704l0 -640"/>
<path stroke="black" d="M861 704l0 -640"/>
<text stroke="none" fill="black" font-size="16" x="841" y="728">
10^8
</text>
<path stroke="black" stroke-dasharray="1,2" d="M919 704l0 -640M936 704l0 -640M948 704l0 -640"/>
<path stroke="black" d="M958 704l0 -640"/>
<text stroke="none" fill="black" font-size="16" x="938" y="728">
10^9
</text>
<text stroke="none" fill="black" font-size="16" x="614" y="752">
Hz
</text>
<path stroke="black" stroke-dasharray="1,2" d="M85 704l873 0"/>
<text stroke="none" fill="black" font-size="16" x="33" y="712">
-60.0
</text>
<path stroke="black" stroke-dasharray="1,2" d="M85 624l873 0"/>
<text stroke="none" fill="black" font-size="16" x="33" y="632">
-40.0
</text>
<path stroke="black" stroke-dasharray="1,2" d="M85 544l873 0"/>
<text stroke="none" fill="black" font-size="16" x="33" y="552">
-20.0
</text>
<path stroke="black" d="M85 464l873 0"/>
<text stroke="none" fill="black" font-size="16" x="43" y="472">
-0.0
</text>
<path stroke="black" stroke-dasharray="1,2" d="M85 384l873 0"/>
<text stroke="none" fill="black" font-size="16" x="43" y="392">
20.0
</text>
<path stroke="black" stroke-dasharray="1,2" d="M85 304l873 0"/>
<text stroke="none" fill="black" font-size="16" x="43" y="312">
40.0
</text>
<path stroke="black" stroke-dasharray="1,2" d="M85 224l873 0"/>
<text stroke="none" fill="black" font-size="16" x="43" y="232">
60.0
</text>
<path stroke="black" stroke-dasharray="1,2" d="M85 144l873 0"/>
<text stroke="none" fill="black" font-size="16" x="43" y="152">
80.0
</text>
<path stroke="black" stroke-dasharray="1,2" d="M85 64l873 0"/>
<text stroke="none" fill="black" font-size="16" x="33" y="72">
100.0
</text>
<text stroke="none" fill="black" font-size="16" x="10" y="32">
dB
</text>
<path stroke="red" d="M436 23l43 0"/>
<text stroke="none" fill="black" font-size="16" x="489" y="32">
db(ac1.vout)
</text>
<path stroke="red" d="M85 108l137 0 10 1 10 0 9 1 20 2 10 2 10 3 9 4 20 10 10 6 10 7 9 7 30 24 9 8 40 32 9 8 40 32 9 8 40 32 9 8 10 8 10 9 10 8 9 8 40 32 9 8 40 32 9 9 30 24 9 9 10 8 20 18 10 10 9 10 20 20 20 22 9 12 20 20 10 26 10 51 9 1 10 4"/>
<path stroke="red" d="M868 652l20 14 9 6 10 5"/>
</svg>
