<?xml version="1.0" standalone="yes"?>
<!DOCTYPE svg PUBLIC "-//W3C//DTD SVG 1.1//EN"
 "http://www.w3.org/Graphics/SVG/1.1/DTD/svg11.dtd">
<svg xmlns="http://www.w3.org/2000/svg" version="1.1"
  width="100%" height="100%" viewBox="0 0 1024 768"
  style="fill: none; font-family: Arial;
 font: Arial;
">

<!-- Creator: NGspice -->

<rect x="0" y="0" width="1024" height="768" fill="white" stroke="none"/>
<text stroke="none" fill="black" font-size="16" x="358" y="752">
Frequency(Hz)
</text>
<text transform="rotate(-90, 20, 424)"  stroke="none" fill="black" font-size="16" x="20" y="424">
Gain(db)
</text>
<text stroke="none" fill="black" font-size="16" x="10" y="16">
ac39: OTA_2stage Gain
</text>
<path stroke="black" d="M85 704l0 -637"/>
<text stroke="none" fill="black" font-size="16" x="80" y="728">
1
</text>
<path stroke="black" stroke-dasharray="1,2" d="M143 704l0 -637M160 704l0 -637M172 704l0 -637"/>
<path stroke="black" d="M182 704l0 -637"/>
<text stroke="none" fill="black" font-size="16" x="172" y="728">
10
</text>
<path stroke="black" stroke-dasharray="1,2" d="M240 704l0 -637M257 704l0 -637M269 704l0 -637"/>
<path stroke="black" d="M279 704l0 -637"/>
<text stroke="none" fill="black" font-size="16" x="264" y="728">
100
</text>
<path stroke="black" stroke-dasharray="1,2" d="M337 704l0 -637M354 704l0 -637M366 704l0 -637"/>
<path stroke="black" d="M376 704l0 -637"/>
<text stroke="none" fill="black" font-size="16" x="356" y="728">
10^3
</text>
<path stroke="black" stroke-dasharray="1,2" d="M434 704l0 -637M451 704l0 -637M463 704l0 -637"/>
<path stroke="black" d="M473 704l0 -637"/>
<text stroke="none" fill="black" font-size="16" x="453" y="728">
10^4
</text>
<path stroke="black" stroke-dasharray="1,2" d="M531 704l0 -637M548 704l0 -637M560 704l0 -637"/>
<path stroke="black" d="M570 704l0 -637"/>
<text stroke="none" fill="black" font-size="16" x="550" y="728">
10^5
</text>
<path stroke="black" stroke-dasharray="1,2" d="M628 704l0 -637M645 704l0 -637M657 704l0 -637"/>
<path stroke="black" d="M667 704l0 -637"/>
<text stroke="none" fill="black" font-size="16" x="647" y="728">
10^6
</text>
<path stroke="black" stroke-dasharray="1,2" d="M725 704l0 -637M742 704l0 -637M754 704l0 -637"/>
<path stroke="black" d="M764 704l0 -637"/>
<text stroke="none" fill="black" font-size="16" x="744" y="728">
10^7
</text>
<path stroke="black" stroke-dasharray="1,2" d="M822 704l0 -637M839 704l0 -637M851 704l0 -637"/>
<path stroke="black" d="M861 704l0 -637"/>
<text stroke="none" fill="black" font-size="16" x="841" y="728">
10^8
</text>
<path stroke="black" stroke-dasharray="1,2" d="M919 704l0 -637M936 704l0 -637M948 704l0 -637"/>
<path stroke="black" d="M958 704l0 -637"/>
<text stroke="none" fill="black" font-size="16" x="938" y="728">
10^9
</text>
<text stroke="none" fill="black" font-size="16" x="614" y="752">
Hz
</text>
<path stroke="black" stroke-dasharray="1,2" d="M85 704l873 0"/>
<text stroke="none" fill="black" font-size="16" x="33" y="712">
-20.0
</text>
<path stroke="black" stroke-dasharray="1,2" d="M85 613l873 0"/>
<text stroke="none" fill="black" font-size="16" x="33" y="621">
-10.0
</text>
<path stroke="black" d="M85 522l873 0"/>
<text stroke="none" fill="black" font-size="16" x="53" y="530">
0.0
</text>
<path stroke="black" stroke-dasharray="1,2" d="M85 431l873 0"/>
<text stroke="none" fill="black" font-size="16" x="43" y="439">
10.0
</text>
<path stroke="black" stroke-dasharray="1,2" d="M85 340l873 0"/>
<text stroke="none" fill="black" font-size="16" x="43" y="348">
20.0
</text>
<path stroke="black" stroke-dasharray="1,2" d="M85 249l873 0"/>
<text stroke="none" fill="black" font-size="16" x="43" y="257">
30.0
</text>
<path stroke="black" stroke-dasharray="1,2" d="M85 158l873 0"/>
<text stroke="none" fill="black" font-size="16" x="43" y="166">
40.0
</text>
<path stroke="black" stroke-dasharray="1,2" d="M85 67l873 0"/>
<text stroke="none" fill="black" font-size="16" x="43" y="75">
50.0
</text>
<text stroke="none" fill="black" font-size="16" x="10" y="32">
dB
</text>
<path stroke="red" d="M436 23l43 0"/>
<text stroke="none" fill="black" font-size="16" x="489" y="32">
db(ac20.vout)
</text>
<path stroke="red" d="M85 147l441 0 9 1 20 0 10 1 9 1 10 1 20 6 10 5 9 7 10 9 10 11 10 13 10 14 9 16 20 34 10 18 9 18 40 72 9 19 40 72 9 18 30 51 10 15 9 15 20 28 10 13 9 13 10 12"/>
<path stroke="blue" d="M85 23l43 0"/>
<text stroke="none" fill="black" font-size="16" x="138" y="32">
db(ac21.vout)
</text>
<path stroke="blue" d="M85 148l441 0 9 1 20 0 10 1 9 1 20 4 10 4 10 5 9 7 10 10 10 11 10 13 10 15 9 16 20 34 10 18 9 18 40 72 9 19 40 72 9 18 20 34 10 16 10 15 9 15 30 39 9 12 10 12"/>
<path stroke="#FFA500" d="M436 39l43 0"/>
<text stroke="none" fill="black" font-size="16" x="489" y="48">
db(ac22.vout)
</text>
<path stroke="#FFA500" d="M85 149l460 0 20 2 9 1 20 4 10 4 10 6 9 8 10 9 10 12 10 14 10 15 9 16 20 34 10 18 9 18 40 72 9 19 40 72 9 17 10 18 20 32 10 15 9 14 10 13 10 12 10 13 9 12 10 11"/>
<path stroke="green" d="M85 39l43 0"/>
<text stroke="none" fill="black" font-size="16" x="138" y="48">
db(ac23.vout)
</text>
<path stroke="green" d="M85 149l460 0 20 2 9 1 10 2 10 3 10 4 10 6 19 19 10 12 10 14 10 15 9 16 10 17 20 36 9 18 40 72 9 19 40 72 9 17 10 17 20 32 10 14 9 14 10 12 10 13 10 11 9 12 10 11"/>
<path stroke="#FFC0C5" d="M436 55l43 0"/>
<text stroke="none" fill="black" font-size="16" x="489" y="64">
db(ac24.vout)
</text>
<path stroke="#FFC0C5" d="M85 148l441 0 9 1 10 0 20 2 9 1 10 2 10 3 10 5 10 7 9 8 10 11 10 12 20 30 9 17 20 34 10 18 9 18 10 19 30 54 9 18 10 19 20 36 10 17 9 18 30 48 10 14 9 13 30 36 9 11 10 11"/>
<path stroke="#A52A2A" d="M85 55l43 0"/>
<text stroke="none" fill="black" font-size="16" x="138" y="64">
db(ac25.vout)
</text>
<path stroke="#A52A2A" d="M85 147l441 0 9 1 10 0 20 2 9 1 20 6 10 6 10 7 9 9 10 11 10 13 10 15 10 16 9 16 10 17 20 36 9 18 10 18 10 19 20 36 9 18 40 72 9 17 10 17 20 30 10 14 9 13 10 12 10 11 10 12 9 11 10 10"/>
<path stroke="#F0E68C" d="M436 71l43 0"/>
<text stroke="none" fill="black" font-size="16" x="489" y="80">
db(ac26.vout)
</text>
<path stroke="#F0E68C" d="M85 145l431 0 10 1 9 0 10 1 10 0 10 1 9 2 10 3 10 4 10 6 10 7 9 10 10 12 10 14 10 15 10 16 9 17 10 17 20 36 9 18 20 36 10 19 10 18 9 18 30 54 10 17 9 18 20 32 20 28 9 12 10 12 20 22 9 11 10 10"/>
<path stroke="#DDA0DD" d="M85 71l43 0"/>
<text stroke="none" fill="black" font-size="16" x="138" y="80">
db(ac27.vout)
</text>
<path stroke="#DDA0DD" d="M85 143l421 0 10 1 19 0 30 3 9 2 10 3 10 5 10 6 10 8 9 11 10 12 10 14 20 32 9 17 30 54 9 18 30 54 10 19 9 18 30 54 10 17 9 17 20 32 10 14 10 13 9 12 10 12 20 22 9 10 10 10"/>
<path stroke="#DA70D6" d="M436 87l43 0"/>
<text stroke="none" fill="black" font-size="16" x="489" y="96">
db(ac28.vout)
</text>
<path stroke="#DA70D6" d="M85 141l431 0 10 1 9 0 30 3 9 3 10 3 10 5 10 7 10 9 9 12 10 13 10 14 10 16 10 17 9 17 30 54 9 18 30 54 10 19 9 18 30 54 10 17 9 17 10 16 10 15 10 14 10 13 9 12 30 33 9 10 10 10"/>
<path stroke="#EE82EE" d="M85 87l43 0"/>
<text stroke="none" fill="black" font-size="16" x="138" y="96">
db(ac29.vout)
</text>
<path stroke="#EE82EE" d="M85 138l362 0 10 1 69 0 9 1 20 2 10 2 9 3 10 4 10 5 10 8 10 10 9 12 10 13 10 15 20 34 9 17 30 54 9 18 10 18 10 19 20 36 9 18 30 54 10 17 9 16 10 16 10 15 10 14 10 13 9 11 30 33 9 10 10 10"/>
<path stroke="#B03060" d="M436 103l43 0"/>
<text stroke="none" fill="black" font-size="16" x="489" y="112">
db(ac30.vout)
</text>
<path stroke="#B03060" d="M85 136l421 0 10 1 10 0 9 1 10 0 20 4 9 3 10 5 10 7 10 8 10 11 9 12 20 30 20 34 9 17 30 54 9 19 30 54 10 19 9 18 20 36 20 34 9 17 20 30 20 26 9 11 20 22 10 10 9 10 10 10"/>
<path stroke="#40E0D0" d="M85 103l43 0"/>
<text stroke="none" fill="black" font-size="16" x="138" y="112">
db(ac31.vout)
</text>
<path stroke="#40E0D0" d="M85 133l401 0 10 1 30 0 9 1 10 1 10 2 10 3 9 3 10 6 10 7 10 10 10 11 9 13 10 15 10 16 20 34 9 18 30 54 9 19 40 72 9 19 10 18 10 17 10 18 10 17 9 16 20 30 10 13 10 12 9 11 20 22 10 10 9 10 10 9"/>
<path stroke="#A0522D" d="M436 119l43 0"/>
<text stroke="none" fill="black" font-size="16" x="489" y="128">
db(ac32.vout)
</text>
<path stroke="#A0522D" d="M85 130l372 0 10 1 49 0 10 1 9 1 10 1 10 2 10 3 9 5 10 6 10 8 10 11 10 12 9 14 20 32 20 34 9 18 20 36 10 19 9 18 20 36 10 19 10 18 9 18 20 36 20 34 9 16 10 15 10 14 10 13 10 11 9 12 10 11 20 20 9 10 10 9"/>
<path stroke="#FF7F50" d="M85 119l43 0"/>
<text stroke="none" fill="black" font-size="16" x="138" y="128">
db(ac33.vout)
</text>
<path stroke="#FF7F50" d="M85 128l421 0 10 1 10 0 9 2 10 1 20 6 9 6 10 7 10 9 10 12 10 13 9 14 10 16 20 34 10 18 9 18 20 36 10 19 9 18 20 36 10 19 10 18 9 18 10 18 30 51 9 16 10 15 20 26 10 11 9 12 10 10 10 11 19 19 10 9"/>
<path stroke="cyan" d="M436 135l43 0"/>
<text stroke="none" fill="black" font-size="16" x="489" y="144">
db(ac34.vout)
</text>
<path stroke="cyan" d="M85 124l372 0 10 1 39 0 20 2 9 1 10 2 10 3 10 5 9 6 10 8 10 11 10 12 10 14 9 16 10 16 10 17 10 18 10 17 9 19 30 54 9 18 10 19 30 54 9 18 20 36 10 17 10 16 9 15 10 15 20 26 10 11 9 11 10 11 29 29 10 8"/>
<path stroke="magenta" d="M85 135l43 0"/>
<text stroke="none" fill="black" font-size="16" x="138" y="144">
db(ac35.vout)
</text>
<path stroke="magenta" d="M85 121l392 0 9 1 20 0 20 2 9 2 10 3 10 4 10 5 9 7 10 10 10 11 10 14 10 15 9 16 20 34 20 36 9 18 30 54 9 19 30 54 10 19 9 17 20 36 10 16 10 17 9 15 10 14 10 13 10 12 10 11 9 11 10 10 10 11 10 9 9 9 10 8"/>
<path stroke="#666" d="M436 151l43 0"/>
<text stroke="none" fill="black" font-size="16" x="489" y="160">
db(ac36.vout)
</text>
<path stroke="#666" d="M85 117l343 0 9 1 49 0 10 1 10 0 10 1 10 2 9 2 10 3 10 5 10 7 9 9 10 11 10 12 20 30 9 17 10 17 30 54 9 18 20 36 10 19 9 18 20 36 10 19 10 18 9 18 30 51 10 16 9 15 20 26 10 12 10 11 9 11 20 20 10 9 9 9 10 8"/>
<path stroke="#949494" d="M85 151l43 0"/>
<text stroke="none" fill="black" font-size="16" x="138" y="160">
db(ac37.vout)
</text>
<path stroke="#949494" d="M85 113l352 0 10 1 39 0 30 3 10 2 9 3 10 5 10 6 10 8 9 10 10 13 10 14 10 15 10 16 9 17 40 72 9 18 10 18 10 19 10 18 9 18 10 19 30 54 9 18 30 51 10 15 9 14 10 14 10 12 20 22 9 11 10 11 20 18 9 9 10 8"/>
<path stroke="#888" d="M436 167l43 0"/>
<text stroke="none" fill="black" font-size="16" x="489" y="176">
db(ac38.vout)
</text>
<path stroke="#888" d="M85 109l382 0 10 1 9 0 20 2 10 2 10 3 9 4 10 6 10 8 10 10 9 12 10 14 10 15 10 16 10 17 9 18 10 17 10 18 10 19 10 18 9 18 10 18 10 19 10 18 9 18 10 18 10 19 20 36 9 17 10 18 20 32 10 15 9 14 10 13 20 24 10 10 9 11 20 20"/>
<path stroke="#888" d="M878 647l10 8 9 9 10 8"/>
<path stroke="red" d="M85 167l43 0"/>
<text stroke="none" fill="black" font-size="16" x="138" y="176">
db(ac39.vout)
</text>
<path stroke="red" d="M85 103l352 0 10 1 20 0 10 1 9 0 20 4 10 3 10 4 9 6 10 7 10 10 10 12 9 14 10 15 30 51 9 18 40 72 9 19 20 36 10 19 9 18 40 72 9 18 10 17 20 32 10 14 9 14 20 24 20 22 9 10 10 10 20 18 9 8 10 8"/>
</svg>
