<?xml version="1.0" standalone="yes"?>
<!DOCTYPE svg PUBLIC "-//W3C//DTD SVG 1.1//EN"
 "http://www.w3.org/Graphics/SVG/1.1/DTD/svg11.dtd">
<svg xmlns="http://www.w3.org/2000/svg" version="1.1"
  width="100%" height="100%" viewBox="0 0 1024 768"
  style="fill: none; font-family: Arial;
 font: Arial;
">

<!-- Creator: NGspice -->

<rect x="0" y="0" width="1024" height="768" fill="white" stroke="none"/>
<text stroke="none" fill="black" font-size="16" x="358" y="752">
Frequency(Hz)
</text>
<text transform="rotate(-90, 20, 424)"  stroke="none" fill="black" font-size="16" x="20" y="424">
Gain(db)
</text>
<text stroke="none" fill="black" font-size="16" x="10" y="16">
ac1: OTA_2stage Gain
</text>
<path stroke="black" d="M95 704l0 -640"/>
<text stroke="none" fill="black" font-size="16" x="90" y="728">
1
</text>
<path stroke="black" stroke-dasharray="1,2" d="M152 704l0 -640M168 704l0 -640M180 704l0 -640"/>
<path stroke="black" d="M190 704l0 -640"/>
<text stroke="none" fill="black" font-size="16" x="180" y="728">
10
</text>
<path stroke="black" stroke-dasharray="1,2" d="M247 704l0 -640M263 704l0 -640M275 704l0 -640"/>
<path stroke="black" d="M285 704l0 -640"/>
<text stroke="none" fill="black" font-size="16" x="270" y="728">
100
</text>
<path stroke="black" stroke-dasharray="1,2" d="M342 704l0 -640M358 704l0 -640M370 704l0 -640"/>
<path stroke="black" d="M380 704l0 -640"/>
<text stroke="none" fill="black" font-size="16" x="360" y="728">
10^3
</text>
<path stroke="black" stroke-dasharray="1,2" d="M437 704l0 -640M453 704l0 -640M465 704l0 -640"/>
<path stroke="black" d="M475 704l0 -640"/>
<text stroke="none" fill="black" font-size="16" x="455" y="728">
10^4
</text>
<path stroke="black" stroke-dasharray="1,2" d="M532 704l0 -640M548 704l0 -640M560 704l0 -640"/>
<path stroke="black" d="M570 704l0 -640"/>
<text stroke="none" fill="black" font-size="16" x="550" y="728">
10^5
</text>
<path stroke="black" stroke-dasharray="1,2" d="M627 704l0 -640M643 704l0 -640M655 704l0 -640"/>
<path stroke="black" d="M665 704l0 -640"/>
<text stroke="none" fill="black" font-size="16" x="645" y="728">
10^6
</text>
<path stroke="black" stroke-dasharray="1,2" d="M722 704l0 -640M738 704l0 -640M750 704l0 -640"/>
<path stroke="black" d="M760 704l0 -640"/>
<text stroke="none" fill="black" font-size="16" x="740" y="728">
10^7
</text>
<path stroke="black" stroke-dasharray="1,2" d="M817 704l0 -640M833 704l0 -640M845 704l0 -640"/>
<path stroke="black" d="M855 704l0 -640"/>
<text stroke="none" fill="black" font-size="16" x="835" y="728">
10^8
</text>
<path stroke="black" stroke-dasharray="1,2" d="M912 704l0 -640M928 704l0 -640M940 704l0 -640"/>
<path stroke="black" d="M950 704l0 -640"/>
<text stroke="none" fill="black" font-size="16" x="930" y="728">
10^9
</text>
<text stroke="none" fill="black" font-size="16" x="614" y="752">
Hz
</text>
<path stroke="black" stroke-dasharray="1,2" d="M95 704l855 0"/>
<text stroke="none" fill="black" font-size="16" x="33" y="712">
-150.0
</text>
<path stroke="black" stroke-dasharray="1,2" d="M95 640l855 0"/>
<text stroke="none" fill="black" font-size="16" x="33" y="648">
-140.0
</text>
<path stroke="black" stroke-dasharray="1,2" d="M95 576l855 0"/>
<text stroke="none" fill="black" font-size="16" x="33" y="584">
-130.0
</text>
<path stroke="black" stroke-dasharray="1,2" d="M95 512l855 0"/>
<text stroke="none" fill="black" font-size="16" x="33" y="520">
-120.0
</text>
<path stroke="black" stroke-dasharray="1,2" d="M95 448l855 0"/>
<text stroke="none" fill="black" font-size="16" x="33" y="456">
-110.0
</text>
<path stroke="black" stroke-dasharray="1,2" d="M95 384l855 0"/>
<text stroke="none" fill="black" font-size="16" x="33" y="392">
-100.0
</text>
<path stroke="black" stroke-dasharray="1,2" d="M95 320l855 0"/>
<text stroke="none" fill="black" font-size="16" x="43" y="328">
-90.0
</text>
<path stroke="black" stroke-dasharray="1,2" d="M95 256l855 0"/>
<text stroke="none" fill="black" font-size="16" x="43" y="264">
-80.0
</text>
<path stroke="black" stroke-dasharray="1,2" d="M95 192l855 0"/>
<text stroke="none" fill="black" font-size="16" x="43" y="200">
-70.0
</text>
<path stroke="black" stroke-dasharray="1,2" d="M95 128l855 0"/>
<text stroke="none" fill="black" font-size="16" x="43" y="136">
-60.0
</text>
<path stroke="black" stroke-dasharray="1,2" d="M95 64l855 0"/>
<text stroke="none" fill="black" font-size="16" x="43" y="72">
-50.0
</text>
<text stroke="none" fill="black" font-size="16" x="10" y="32">
dB
</text>
<path stroke="red" d="M95 606l10 -9 9 -8 10 -6 9 -4 20 -6 9 -1 29 0 9 2 10 2 10 3 9 5 10 5 9 8 10 8 10 9 9 9 10 11 9 10 20 22 9 11 10 9 9 8 10 6 9 2 10 -2 10 -4 9 -7 10 -8 9 -8 10 -9 10 -8 9 -7 10 -7 9 -6 10 -6 9 -5 20 -14 19 -19 9 -12 10 -14"/>
<path stroke="red" d="M536 566l10 -15 9 -16 10 -17 9 -17 10 -17 10 -16 9 -16 10 -15 9 -14 10 -14 9 -13 10 -14 10 -13 9 -13 10 -13 9 -13 20 -26 9 -13 10 -13 9 -13 20 -26 9 -12 10 -13 9 -13 10 -13 9 -13 10 -12 10 -13 9 -12 10 -12 9 -11 20 -20 9 -8"/>
<path stroke="red" d="M881 87l10 -8 9 -7"/>
</svg>
