<?xml version="1.0" standalone="yes"?>
<!DOCTYPE svg PUBLIC "-//W3C//DTD SVG 1.1//EN"
 "http://www.w3.org/Graphics/SVG/1.1/DTD/svg11.dtd">
<svg xmlns="http://www.w3.org/2000/svg" version="1.1"
  width="100%" height="100%" viewBox="0 0 1024 768"
  style="fill: none; font-family: Arial;
 font: Arial;
">

<!-- Creator: NGspice -->

<rect x="0" y="0" width="1024" height="768" fill="white" stroke="none"/>
<text stroke="none" fill="black" font-size="16" x="358" y="752">
Power(mW)
</text>
<text transform="rotate(-90, 20, 424)"  stroke="none" fill="black" font-size="16" x="20" y="424">
Gain(db)
</text>
<text stroke="none" fill="black" font-size="16" x="10" y="16">
ac1: OTA_2stage_Gain_vs_Power
</text>
<path stroke="black" stroke-dasharray="1,2" d="M95 704l0 -638"/>
<text stroke="none" fill="black" font-size="16" x="80" y="728">
5.0
</text>
<path stroke="black" stroke-dasharray="1,2" d="M156 704l0 -638"/>
<text stroke="none" fill="black" font-size="16" x="141" y="728">
5.1
</text>
<path stroke="black" stroke-dasharray="1,2" d="M217 704l0 -638"/>
<text stroke="none" fill="black" font-size="16" x="202" y="728">
5.2
</text>
<path stroke="black" stroke-dasharray="1,2" d="M278 704l0 -638"/>
<text stroke="none" fill="black" font-size="16" x="263" y="728">
5.3
</text>
<path stroke="black" stroke-dasharray="1,2" d="M339 704l0 -638"/>
<text stroke="none" fill="black" font-size="16" x="324" y="728">
5.4
</text>
<path stroke="black" stroke-dasharray="1,2" d="M400 704l0 -638"/>
<text stroke="none" fill="black" font-size="16" x="385" y="728">
5.5
</text>
<path stroke="black" stroke-dasharray="1,2" d="M461 704l0 -638"/>
<text stroke="none" fill="black" font-size="16" x="446" y="728">
5.6
</text>
<path stroke="black" stroke-dasharray="1,2" d="M522 704l0 -638"/>
<text stroke="none" fill="black" font-size="16" x="507" y="728">
5.7
</text>
<path stroke="black" stroke-dasharray="1,2" d="M583 704l0 -638"/>
<text stroke="none" fill="black" font-size="16" x="568" y="728">
5.8
</text>
<path stroke="black" stroke-dasharray="1,2" d="M644 704l0 -638"/>
<text stroke="none" fill="black" font-size="16" x="629" y="728">
5.9
</text>
<path stroke="black" stroke-dasharray="1,2" d="M705 704l0 -638"/>
<text stroke="none" fill="black" font-size="16" x="690" y="728">
6.0
</text>
<path stroke="black" stroke-dasharray="1,2" d="M766 704l0 -638"/>
<text stroke="none" fill="black" font-size="16" x="751" y="728">
6.1
</text>
<path stroke="black" stroke-dasharray="1,2" d="M827 704l0 -638"/>
<text stroke="none" fill="black" font-size="16" x="812" y="728">
6.2
</text>
<path stroke="black" stroke-dasharray="1,2" d="M888 704l0 -638"/>
<text stroke="none" fill="black" font-size="16" x="873" y="728">
6.3
</text>
<path stroke="black" stroke-dasharray="1,2" d="M949 704l0 -638"/>
<text stroke="none" fill="black" font-size="16" x="934" y="728">
6.4
</text>
<text stroke="none" fill="black" font-size="16" x="614" y="752">
m     
</text>
<path stroke="black" stroke-dasharray="1,2" d="M95 704l854 0"/>
<text stroke="none" fill="black" font-size="16" x="53" y="712">
88.0
</text>
<path stroke="black" stroke-dasharray="1,2" d="M95 646l854 0"/>
<text stroke="none" fill="black" font-size="16" x="53" y="654">
90.0
</text>
<path stroke="black" stroke-dasharray="1,2" d="M95 588l854 0"/>
<text stroke="none" fill="black" font-size="16" x="53" y="596">
92.0
</text>
<path stroke="black" stroke-dasharray="1,2" d="M95 530l854 0"/>
<text stroke="none" fill="black" font-size="16" x="53" y="538">
94.0
</text>
<path stroke="black" stroke-dasharray="1,2" d="M95 472l854 0"/>
<text stroke="none" fill="black" font-size="16" x="53" y="480">
96.0
</text>
<path stroke="black" stroke-dasharray="1,2" d="M95 414l854 0"/>
<text stroke="none" fill="black" font-size="16" x="53" y="422">
98.0
</text>
<path stroke="black" stroke-dasharray="1,2" d="M95 356l854 0"/>
<text stroke="none" fill="black" font-size="16" x="43" y="364">
100.0
</text>
<path stroke="black" stroke-dasharray="1,2" d="M95 298l854 0"/>
<text stroke="none" fill="black" font-size="16" x="43" y="306">
102.0
</text>
<path stroke="black" stroke-dasharray="1,2" d="M95 240l854 0"/>
<text stroke="none" fill="black" font-size="16" x="43" y="248">
104.0
</text>
<path stroke="black" stroke-dasharray="1,2" d="M95 182l854 0"/>
<text stroke="none" fill="black" font-size="16" x="43" y="190">
106.0
</text>
<path stroke="black" stroke-dasharray="1,2" d="M95 124l854 0"/>
<text stroke="none" fill="black" font-size="16" x="43" y="132">
108.0
</text>
<path stroke="black" stroke-dasharray="1,2" d="M95 66l854 0"/>
<text stroke="none" fill="black" font-size="16" x="43" y="74">
110.0
</text>
<text stroke="none" fill="black" font-size="16" x="10" y="32">
     
</text>
</svg>
