<?xml version="1.0" standalone="yes"?>
<!DOCTYPE svg PUBLIC "-//W3C//DTD SVG 1.1//EN"
 "http://www.w3.org/Graphics/SVG/1.1/DTD/svg11.dtd">
<svg xmlns="http://www.w3.org/2000/svg" version="1.1"
  width="100%" height="100%" viewBox="0 0 1024 768"
  style="fill: none; font-family: Arial;
 font: Arial;
">

<!-- Creator: NGspice -->

<rect x="0" y="0" width="1024" height="768" fill="white" stroke="none"/>
<text stroke="none" fill="black" font-size="16" x="358" y="752">
Power(mW)
</text>
<text transform="rotate(-90, 20, 424)"  stroke="none" fill="black" font-size="16" x="20" y="424">
Gain(db)
</text>
<text stroke="none" fill="black" font-size="16" x="10" y="16">
ac1: OTA_2stage_Gain_vs_Power
</text>
<path stroke="black" stroke-dasharray="1,2" d="M95 704l0 -636"/>
<text stroke="none" fill="black" font-size="16" x="75" y="728">
1.55
</text>
<path stroke="black" stroke-dasharray="1,2" d="M217 704l0 -636"/>
<text stroke="none" fill="black" font-size="16" x="197" y="728">
1.60
</text>
<path stroke="black" stroke-dasharray="1,2" d="M339 704l0 -636"/>
<text stroke="none" fill="black" font-size="16" x="319" y="728">
1.65
</text>
<path stroke="black" stroke-dasharray="1,2" d="M461 704l0 -636"/>
<text stroke="none" fill="black" font-size="16" x="441" y="728">
1.70
</text>
<path stroke="black" stroke-dasharray="1,2" d="M583 704l0 -636"/>
<text stroke="none" fill="black" font-size="16" x="563" y="728">
1.75
</text>
<path stroke="black" stroke-dasharray="1,2" d="M705 704l0 -636"/>
<text stroke="none" fill="black" font-size="16" x="685" y="728">
1.80
</text>
<path stroke="black" stroke-dasharray="1,2" d="M827 704l0 -636"/>
<text stroke="none" fill="black" font-size="16" x="807" y="728">
1.85
</text>
<path stroke="black" stroke-dasharray="1,2" d="M949 704l0 -636"/>
<text stroke="none" fill="black" font-size="16" x="929" y="728">
1.90
</text>
<text stroke="none" fill="black" font-size="16" x="614" y="752">
     
</text>
<path stroke="black" stroke-dasharray="1,2" d="M95 704l854 0"/>
<text stroke="none" fill="black" font-size="16" x="33" y="712">
-145.0
</text>
<path stroke="black" stroke-dasharray="1,2" d="M95 598l854 0"/>
<text stroke="none" fill="black" font-size="16" x="33" y="606">
-140.0
</text>
<path stroke="black" stroke-dasharray="1,2" d="M95 492l854 0"/>
<text stroke="none" fill="black" font-size="16" x="33" y="500">
-135.0
</text>
<path stroke="black" stroke-dasharray="1,2" d="M95 386l854 0"/>
<text stroke="none" fill="black" font-size="16" x="33" y="394">
-130.0
</text>
<path stroke="black" stroke-dasharray="1,2" d="M95 280l854 0"/>
<text stroke="none" fill="black" font-size="16" x="33" y="288">
-125.0
</text>
<path stroke="black" stroke-dasharray="1,2" d="M95 174l854 0"/>
<text stroke="none" fill="black" font-size="16" x="33" y="182">
-120.0
</text>
<path stroke="black" stroke-dasharray="1,2" d="M95 68l854 0"/>
<text stroke="none" fill="black" font-size="16" x="33" y="76">
-115.0
</text>
<text stroke="none" fill="black" font-size="16" x="10" y="32">
     
</text>
</svg>
