<?xml version="1.0" standalone="yes"?>
<!DOCTYPE svg PUBLIC "-//W3C//DTD SVG 1.1//EN"
 "http://www.w3.org/Graphics/SVG/1.1/DTD/svg11.dtd">
<svg xmlns="http://www.w3.org/2000/svg" version="1.1"
  width="100%" height="100%" viewBox="0 0 1024 768"
  style="fill: none; font-family: Arial;
 font: Arial;
">

<!-- Creator: NGspice -->

<rect x="0" y="0" width="1024" height="768" fill="white" stroke="none"/>
<text stroke="none" fill="black" font-size="16" x="358" y="752">
Power(mW)
</text>
<text transform="rotate(-90, 20, 449)"  stroke="none" fill="black" font-size="16" x="20" y="449">
Frequency(Hz)
</text>
<text stroke="none" fill="black" font-size="16" x="10" y="16">
ac1: OTA_2stage_GBW_vs_Power
</text>
<path stroke="black" stroke-dasharray="1,2" d="M85 704l0 -640"/>
<text stroke="none" fill="black" font-size="16" x="70" y="728">
5.0
</text>
<path stroke="black" stroke-dasharray="1,2" d="M152 704l0 -640"/>
<text stroke="none" fill="black" font-size="16" x="137" y="728">
5.1
</text>
<path stroke="black" stroke-dasharray="1,2" d="M219 704l0 -640"/>
<text stroke="none" fill="black" font-size="16" x="204" y="728">
5.2
</text>
<path stroke="black" stroke-dasharray="1,2" d="M286 704l0 -640"/>
<text stroke="none" fill="black" font-size="16" x="271" y="728">
5.3
</text>
<path stroke="black" stroke-dasharray="1,2" d="M353 704l0 -640"/>
<text stroke="none" fill="black" font-size="16" x="338" y="728">
5.4
</text>
<path stroke="black" stroke-dasharray="1,2" d="M420 704l0 -640"/>
<text stroke="none" fill="black" font-size="16" x="405" y="728">
5.5
</text>
<path stroke="black" stroke-dasharray="1,2" d="M487 704l0 -640"/>
<text stroke="none" fill="black" font-size="16" x="472" y="728">
5.6
</text>
<path stroke="black" stroke-dasharray="1,2" d="M554 704l0 -640"/>
<text stroke="none" fill="black" font-size="16" x="539" y="728">
5.7
</text>
<path stroke="black" stroke-dasharray="1,2" d="M621 704l0 -640"/>
<text stroke="none" fill="black" font-size="16" x="606" y="728">
5.8
</text>
<path stroke="black" stroke-dasharray="1,2" d="M688 704l0 -640"/>
<text stroke="none" fill="black" font-size="16" x="673" y="728">
5.9
</text>
<path stroke="black" stroke-dasharray="1,2" d="M755 704l0 -640"/>
<text stroke="none" fill="black" font-size="16" x="740" y="728">
6.0
</text>
<path stroke="black" stroke-dasharray="1,2" d="M822 704l0 -640"/>
<text stroke="none" fill="black" font-size="16" x="807" y="728">
6.1
</text>
<path stroke="black" stroke-dasharray="1,2" d="M889 704l0 -640"/>
<text stroke="none" fill="black" font-size="16" x="874" y="728">
6.2
</text>
<path stroke="black" stroke-dasharray="1,2" d="M956 704l0 -640"/>
<text stroke="none" fill="black" font-size="16" x="941" y="728">
6.3
</text>
<text stroke="none" fill="black" font-size="16" x="614" y="752">
m     
</text>
<path stroke="black" stroke-dasharray="1,2" d="M85 704l871 0"/>
<text stroke="none" fill="black" font-size="16" x="43" y="712">
17.0
</text>
<path stroke="black" stroke-dasharray="1,2" d="M85 624l871 0"/>
<text stroke="none" fill="black" font-size="16" x="43" y="632">
17.5
</text>
<path stroke="black" stroke-dasharray="1,2" d="M85 544l871 0"/>
<text stroke="none" fill="black" font-size="16" x="43" y="552">
18.0
</text>
<path stroke="black" stroke-dasharray="1,2" d="M85 464l871 0"/>
<text stroke="none" fill="black" font-size="16" x="43" y="472">
18.5
</text>
<path stroke="black" stroke-dasharray="1,2" d="M85 384l871 0"/>
<text stroke="none" fill="black" font-size="16" x="43" y="392">
19.0
</text>
<path stroke="black" stroke-dasharray="1,2" d="M85 304l871 0"/>
<text stroke="none" fill="black" font-size="16" x="43" y="312">
19.5
</text>
<path stroke="black" stroke-dasharray="1,2" d="M85 224l871 0"/>
<text stroke="none" fill="black" font-size="16" x="43" y="232">
20.0
</text>
<path stroke="black" stroke-dasharray="1,2" d="M85 144l871 0"/>
<text stroke="none" fill="black" font-size="16" x="43" y="152">
20.5
</text>
<path stroke="black" stroke-dasharray="1,2" d="M85 64l871 0"/>
<text stroke="none" fill="black" font-size="16" x="43" y="72">
21.0
</text>
<text stroke="none" fill="black" font-size="16" x="10" y="32">
M     
</text>
</svg>
