<?xml version="1.0" standalone="yes"?>
<!DOCTYPE svg PUBLIC "-//W3C//DTD SVG 1.1//EN"
 "http://www.w3.org/Graphics/SVG/1.1/DTD/svg11.dtd">
<svg xmlns="http://www.w3.org/2000/svg" version="1.1"
  width="100%" height="100%" viewBox="0 0 1024 768"
  style="fill: none; font-family: Arial;
 font: Arial;
">

<!-- Creator: NGspice -->

<rect x="0" y="0" width="1024" height="768" fill="white" stroke="none"/>
<text stroke="none" fill="black" font-size="16" x="358" y="752">
Power(mW)
</text>
<text transform="rotate(-90, 20, 449)"  stroke="none" fill="black" font-size="16" x="20" y="449">
Frequency(Hz)
</text>
<text stroke="none" fill="black" font-size="16" x="10" y="16">
ac1: OTA_2stage_GBW_vs_Power
</text>
<path stroke="black" stroke-dasharray="1,2" d="M85 704l0 -640"/>
<text stroke="none" fill="black" font-size="16" x="70" y="728">
5.0
</text>
<path stroke="black" stroke-dasharray="1,2" d="M147 704l0 -640"/>
<text stroke="none" fill="black" font-size="16" x="132" y="728">
5.1
</text>
<path stroke="black" stroke-dasharray="1,2" d="M209 704l0 -640"/>
<text stroke="none" fill="black" font-size="16" x="194" y="728">
5.2
</text>
<path stroke="black" stroke-dasharray="1,2" d="M271 704l0 -640"/>
<text stroke="none" fill="black" font-size="16" x="256" y="728">
5.3
</text>
<path stroke="black" stroke-dasharray="1,2" d="M333 704l0 -640"/>
<text stroke="none" fill="black" font-size="16" x="318" y="728">
5.4
</text>
<path stroke="black" stroke-dasharray="1,2" d="M395 704l0 -640"/>
<text stroke="none" fill="black" font-size="16" x="380" y="728">
5.5
</text>
<path stroke="black" stroke-dasharray="1,2" d="M457 704l0 -640"/>
<text stroke="none" fill="black" font-size="16" x="442" y="728">
5.6
</text>
<path stroke="black" stroke-dasharray="1,2" d="M519 704l0 -640"/>
<text stroke="none" fill="black" font-size="16" x="504" y="728">
5.7
</text>
<path stroke="black" stroke-dasharray="1,2" d="M581 704l0 -640"/>
<text stroke="none" fill="black" font-size="16" x="566" y="728">
5.8
</text>
<path stroke="black" stroke-dasharray="1,2" d="M643 704l0 -640"/>
<text stroke="none" fill="black" font-size="16" x="628" y="728">
5.9
</text>
<path stroke="black" stroke-dasharray="1,2" d="M705 704l0 -640"/>
<text stroke="none" fill="black" font-size="16" x="690" y="728">
6.0
</text>
<path stroke="black" stroke-dasharray="1,2" d="M767 704l0 -640"/>
<text stroke="none" fill="black" font-size="16" x="752" y="728">
6.1
</text>
<path stroke="black" stroke-dasharray="1,2" d="M829 704l0 -640"/>
<text stroke="none" fill="black" font-size="16" x="814" y="728">
6.2
</text>
<path stroke="black" stroke-dasharray="1,2" d="M891 704l0 -640"/>
<text stroke="none" fill="black" font-size="16" x="876" y="728">
6.3
</text>
<path stroke="black" stroke-dasharray="1,2" d="M953 704l0 -640"/>
<text stroke="none" fill="black" font-size="16" x="938" y="728">
6.4
</text>
<text stroke="none" fill="black" font-size="16" x="614" y="752">
m     
</text>
<path stroke="black" stroke-dasharray="1,2" d="M85 704l868 0"/>
<text stroke="none" fill="black" font-size="16" x="43" y="712">
17.5
</text>
<path stroke="black" stroke-dasharray="1,2" d="M85 624l868 0"/>
<text stroke="none" fill="black" font-size="16" x="43" y="632">
18.0
</text>
<path stroke="black" stroke-dasharray="1,2" d="M85 544l868 0"/>
<text stroke="none" fill="black" font-size="16" x="43" y="552">
18.5
</text>
<path stroke="black" stroke-dasharray="1,2" d="M85 464l868 0"/>
<text stroke="none" fill="black" font-size="16" x="43" y="472">
19.0
</text>
<path stroke="black" stroke-dasharray="1,2" d="M85 384l868 0"/>
<text stroke="none" fill="black" font-size="16" x="43" y="392">
19.5
</text>
<path stroke="black" stroke-dasharray="1,2" d="M85 304l868 0"/>
<text stroke="none" fill="black" font-size="16" x="43" y="312">
20.0
</text>
<path stroke="black" stroke-dasharray="1,2" d="M85 224l868 0"/>
<text stroke="none" fill="black" font-size="16" x="43" y="232">
20.5
</text>
<path stroke="black" stroke-dasharray="1,2" d="M85 144l868 0"/>
<text stroke="none" fill="black" font-size="16" x="43" y="152">
21.0
</text>
<path stroke="black" stroke-dasharray="1,2" d="M85 64l868 0"/>
<text stroke="none" fill="black" font-size="16" x="43" y="72">
21.5
</text>
<text stroke="none" fill="black" font-size="16" x="10" y="32">
M     
</text>
</svg>
