<?xml version="1.0" standalone="yes"?>
<!DOCTYPE svg PUBLIC "-//W3C//DTD SVG 1.1//EN"
 "http://www.w3.org/Graphics/SVG/1.1/DTD/svg11.dtd">
<svg xmlns="http://www.w3.org/2000/svg" version="1.1"
  width="100%" height="100%" viewBox="0 0 1024 768"
  style="fill: none; font-family: Arial;
 font: Arial;
">

<!-- Creator: NGspice -->

<rect x="0" y="0" width="1024" height="768" fill="white" stroke="none"/>
<text stroke="none" fill="black" font-size="16" x="358" y="752">
Power(mW)
</text>
<text transform="rotate(-90, 20, 484)"  stroke="none" fill="black" font-size="16" x="20" y="484">
Integrated_Noise(uV)
</text>
<text stroke="none" fill="black" font-size="16" x="10" y="16">
noise58: OTA_2stage Integrated_Noise_vs_Power
</text>
<path stroke="black" stroke-dasharray="1,2" d="M85 704l0 -638"/>
<text stroke="none" fill="black" font-size="16" x="70" y="728">
1.0
</text>
<path stroke="black" stroke-dasharray="1,2" d="M164 704l0 -638"/>
<text stroke="none" fill="black" font-size="16" x="149" y="728">
2.0
</text>
<path stroke="black" stroke-dasharray="1,2" d="M243 704l0 -638"/>
<text stroke="none" fill="black" font-size="16" x="228" y="728">
3.0
</text>
<path stroke="black" stroke-dasharray="1,2" d="M322 704l0 -638"/>
<text stroke="none" fill="black" font-size="16" x="307" y="728">
4.0
</text>
<path stroke="black" stroke-dasharray="1,2" d="M401 704l0 -638"/>
<text stroke="none" fill="black" font-size="16" x="386" y="728">
5.0
</text>
<path stroke="black" stroke-dasharray="1,2" d="M480 704l0 -638"/>
<text stroke="none" fill="black" font-size="16" x="465" y="728">
6.0
</text>
<path stroke="black" stroke-dasharray="1,2" d="M559 704l0 -638"/>
<text stroke="none" fill="black" font-size="16" x="544" y="728">
7.0
</text>
<path stroke="black" stroke-dasharray="1,2" d="M638 704l0 -638"/>
<text stroke="none" fill="black" font-size="16" x="623" y="728">
8.0
</text>
<path stroke="black" stroke-dasharray="1,2" d="M717 704l0 -638"/>
<text stroke="none" fill="black" font-size="16" x="702" y="728">
9.0
</text>
<path stroke="black" stroke-dasharray="1,2" d="M796 704l0 -638"/>
<text stroke="none" fill="black" font-size="16" x="776" y="728">
10.0
</text>
<path stroke="black" stroke-dasharray="1,2" d="M875 704l0 -638"/>
<text stroke="none" fill="black" font-size="16" x="855" y="728">
11.0
</text>
<path stroke="black" stroke-dasharray="1,2" d="M954 704l0 -638"/>
<text stroke="none" fill="black" font-size="16" x="934" y="728">
12.0
</text>
<text stroke="none" fill="black" font-size="16" x="614" y="752">
m     
</text>
<path stroke="black" stroke-dasharray="1,2" d="M85 704l869 0"/>
<text stroke="none" fill="black" font-size="16" x="53" y="712">
5.0
</text>
<path stroke="black" stroke-dasharray="1,2" d="M85 646l869 0"/>
<text stroke="none" fill="black" font-size="16" x="53" y="654">
6.0
</text>
<path stroke="black" stroke-dasharray="1,2" d="M85 588l869 0"/>
<text stroke="none" fill="black" font-size="16" x="53" y="596">
7.0
</text>
<path stroke="black" stroke-dasharray="1,2" d="M85 530l869 0"/>
<text stroke="none" fill="black" font-size="16" x="53" y="538">
8.0
</text>
<path stroke="black" stroke-dasharray="1,2" d="M85 472l869 0"/>
<text stroke="none" fill="black" font-size="16" x="53" y="480">
9.0
</text>
<path stroke="black" stroke-dasharray="1,2" d="M85 414l869 0"/>
<text stroke="none" fill="black" font-size="16" x="43" y="422">
10.0
</text>
<path stroke="black" stroke-dasharray="1,2" d="M85 356l869 0"/>
<text stroke="none" fill="black" font-size="16" x="43" y="364">
11.0
</text>
<path stroke="black" stroke-dasharray="1,2" d="M85 298l869 0"/>
<text stroke="none" fill="black" font-size="16" x="43" y="306">
12.0
</text>
<path stroke="black" stroke-dasharray="1,2" d="M85 240l869 0"/>
<text stroke="none" fill="black" font-size="16" x="43" y="248">
13.0
</text>
<path stroke="black" stroke-dasharray="1,2" d="M85 182l869 0"/>
<text stroke="none" fill="black" font-size="16" x="43" y="190">
14.0
</text>
<path stroke="black" stroke-dasharray="1,2" d="M85 124l869 0"/>
<text stroke="none" fill="black" font-size="16" x="43" y="132">
15.0
</text>
<path stroke="black" stroke-dasharray="1,2" d="M85 66l869 0"/>
<text stroke="none" fill="black" font-size="16" x="43" y="74">
16.0
</text>
<text stroke="none" fill="black" font-size="16" x="10" y="32">
u     
</text>
<path stroke="red" d="M872 652l49 3M841 648l31 4M800 644l41 4M744 638l56 6M718 629l26 9M658 619l60 10M619 605l39 14M571 586l48 19M520 567l51 19M458 544l62 23M428 518l30 26M382 493l46 25M340 462l42 31M274 425l66 37M260 386l14 39M198 340l62 46"/>
<path stroke="red" d="M164 276l34 64M132 193l32 83M103 85l29 108"/>
</svg>
