<?xml version="1.0" standalone="yes"?>
<!DOCTYPE svg PUBLIC "-//W3C//DTD SVG 1.1//EN"
 "http://www.w3.org/Graphics/SVG/1.1/DTD/svg11.dtd">
<svg xmlns="http://www.w3.org/2000/svg" version="1.1"
  width="100%" height="100%" viewBox="0 0 1024 768"
  style="fill: none; font-family: Arial;
 font: Arial;
">

<!-- Creator: NGspice -->

<rect x="0" y="0" width="1024" height="768" fill="white" stroke="none"/>
<text stroke="none" fill="black" font-size="16" x="358" y="752">
Frequency(Hz)
</text>
<text transform="rotate(-90, 20, 484)"  stroke="none" fill="black" font-size="16" x="20" y="484">
Integrated_Noise(uV)
</text>
<text stroke="none" fill="black" font-size="16" x="10" y="16">
noise1: OTA_2stage Integrated_Noise
</text>
<path stroke="black" d="M85 704l0 -636"/>
<text stroke="none" fill="black" font-size="16" x="65" y="728">
10^4
</text>
<path stroke="black" stroke-dasharray="1,2" d="M136 704l0 -636M173 704l0 -636M201 704l0 -636M224 704l0 -636M244 704l0 -636M261 704l0 -636M276 704l0 -636M289 704l0 -636M301 704l0 -636M312 704l0 -636M323 704l0 -636M332 704l0 -636M341 704l0 -636"/>
<path stroke="black" stroke-dasharray="1,2" d="M349 704l0 -636M357 704l0 -636M364 704l0 -636M371 704l0 -636"/>
<path stroke="black" d="M378 704l0 -636"/>
<text stroke="none" fill="black" font-size="16" x="358" y="728">
10^5
</text>
<path stroke="black" stroke-dasharray="1,2" d="M429 704l0 -636M466 704l0 -636M494 704l0 -636M517 704l0 -636M537 704l0 -636M554 704l0 -636M569 704l0 -636M582 704l0 -636M594 704l0 -636M605 704l0 -636M616 704l0 -636M625 704l0 -636M634 704l0 -636"/>
<path stroke="black" stroke-dasharray="1,2" d="M642 704l0 -636M650 704l0 -636M657 704l0 -636M664 704l0 -636"/>
<path stroke="black" d="M671 704l0 -636"/>
<text stroke="none" fill="black" font-size="16" x="651" y="728">
10^6
</text>
<path stroke="black" stroke-dasharray="1,2" d="M722 704l0 -636M759 704l0 -636M787 704l0 -636M810 704l0 -636M830 704l0 -636M847 704l0 -636M862 704l0 -636M875 704l0 -636M887 704l0 -636M898 704l0 -636M909 704l0 -636M918 704l0 -636M927 704l0 -636"/>
<path stroke="black" stroke-dasharray="1,2" d="M935 704l0 -636M943 704l0 -636M950 704l0 -636M957 704l0 -636"/>
<path stroke="black" d="M964 704l0 -636"/>
<text stroke="none" fill="black" font-size="16" x="944" y="728">
10^7
</text>
<text stroke="none" fill="black" font-size="16" x="614" y="752">
Hz
</text>
<path stroke="black" d="M85 704l879 0"/>
<text stroke="none" fill="black" font-size="16" x="53" y="712">
0.0
</text>
<path stroke="black" stroke-dasharray="1,2" d="M85 598l879 0"/>
<text stroke="none" fill="black" font-size="16" x="53" y="606">
5.0
</text>
<path stroke="black" stroke-dasharray="1,2" d="M85 492l879 0"/>
<text stroke="none" fill="black" font-size="16" x="43" y="500">
10.0
</text>
<path stroke="black" stroke-dasharray="1,2" d="M85 386l879 0"/>
<text stroke="none" fill="black" font-size="16" x="43" y="394">
15.0
</text>
<path stroke="black" stroke-dasharray="1,2" d="M85 280l879 0"/>
<text stroke="none" fill="black" font-size="16" x="43" y="288">
20.0
</text>
<path stroke="black" stroke-dasharray="1,2" d="M85 174l879 0"/>
<text stroke="none" fill="black" font-size="16" x="43" y="182">
25.0
</text>
<path stroke="black" stroke-dasharray="1,2" d="M85 68l879 0"/>
<text stroke="none" fill="black" font-size="16" x="43" y="76">
30.0
</text>
<text stroke="none" fill="black" font-size="16" x="10" y="32">
mV/sqrt(Hz)
</text>
<path stroke="red" d="M173 173l3 8 3 9 3 8 3 9 3 8 3 9 3 8 3 9 3 8 3 9 2 8 3 8 3 9 6 16 3 9 18 48 3 7 3 8 2 8 3 7 3 8 9 21 3 8 3 6 9 21 3 6 3 7 3 6 2 6 12 24 3 5 3 6 6 10 3 6 6 10 3 4 3 5 2 5 6 8 3 5 12 16 3 3 3 4 3 3 3 4 9 9 2 4 3 2 9 9 3 2"/>
<path stroke="red" d="M387 619l3 3 3 2 3 3 9 6 3 3 3 2 2 2 3 1 9 6 3 1 6 4 3 1 3 2 6 2 3 2 3 1 2 1 3 1 3 2 24 8 3 0 9 3 2 1 3 0 6 2 3 0 6 2 3 0 6 2 3 0 3 1 3 0 3 1 2 0 3 1 3 0 3 1 3 0 3 1 6 0 3 1 3 0 3 1 6 0 3 1 5 0 3 1 6 0 3 1 9 0 3 1 9 0 3 1"/>
<path stroke="red" d="M619 694l8 0 3 1 12 0 3 1 12 0 3 1 14 0 3 1 18 0 3 1 23 0 3 1 29 0 3 1 3 0"/>
</svg>
