<?xml version="1.0" standalone="yes"?>
<!DOCTYPE svg PUBLIC "-//W3C//DTD SVG 1.1//EN"
 "http://www.w3.org/Graphics/SVG/1.1/DTD/svg11.dtd">
<svg xmlns="http://www.w3.org/2000/svg" version="1.1"
  width="100%" height="100%" viewBox="0 0 1024 768"
  style="fill: none; font-family: Arial;
 font: Arial;
">

<!-- Creator: NGspice -->

<rect x="0" y="0" width="1024" height="768" fill="white" stroke="none"/>
<text stroke="none" fill="black" font-size="16" x="358" y="752">
Frequency(Hz)
</text>
<text transform="rotate(-90, 20, 484)"  stroke="none" fill="black" font-size="16" x="20" y="484">
Integrated_Noise(uV)
</text>
<text stroke="none" fill="black" font-size="16" x="10" y="16">
noise58: OTA_2stage Integrated_Noise
</text>
<path stroke="black" d="M85 704l0 -639"/>
<text stroke="none" fill="black" font-size="16" x="65" y="728">
10^4
</text>
<path stroke="black" stroke-dasharray="1,2" d="M136 704l0 -639M173 704l0 -639M201 704l0 -639M224 704l0 -639M244 704l0 -639M261 704l0 -639M276 704l0 -639M289 704l0 -639M301 704l0 -639M312 704l0 -639M323 704l0 -639M332 704l0 -639M341 704l0 -639"/>
<path stroke="black" stroke-dasharray="1,2" d="M349 704l0 -639M357 704l0 -639M364 704l0 -639M371 704l0 -639"/>
<path stroke="black" d="M378 704l0 -639"/>
<text stroke="none" fill="black" font-size="16" x="358" y="728">
10^5
</text>
<path stroke="black" stroke-dasharray="1,2" d="M429 704l0 -639M466 704l0 -639M494 704l0 -639M517 704l0 -639M537 704l0 -639M554 704l0 -639M569 704l0 -639M582 704l0 -639M594 704l0 -639M605 704l0 -639M616 704l0 -639M625 704l0 -639M634 704l0 -639"/>
<path stroke="black" stroke-dasharray="1,2" d="M642 704l0 -639M650 704l0 -639M657 704l0 -639M664 704l0 -639"/>
<path stroke="black" d="M671 704l0 -639"/>
<text stroke="none" fill="black" font-size="16" x="651" y="728">
10^6
</text>
<path stroke="black" stroke-dasharray="1,2" d="M722 704l0 -639M759 704l0 -639M787 704l0 -639M810 704l0 -639M830 704l0 -639M847 704l0 -639M862 704l0 -639M875 704l0 -639M887 704l0 -639M898 704l0 -639M909 704l0 -639M918 704l0 -639M927 704l0 -639"/>
<path stroke="black" stroke-dasharray="1,2" d="M935 704l0 -639M943 704l0 -639M950 704l0 -639M957 704l0 -639"/>
<path stroke="black" d="M964 704l0 -639"/>
<text stroke="none" fill="black" font-size="16" x="944" y="728">
10^7
</text>
<text stroke="none" fill="black" font-size="16" x="614" y="752">
Hz
</text>
<path stroke="black" stroke-dasharray="1,2" d="M85 704l879 0"/>
<text stroke="none" fill="black" font-size="16" x="53" y="712">
2.0
</text>
<path stroke="black" stroke-dasharray="1,2" d="M85 633l879 0"/>
<text stroke="none" fill="black" font-size="16" x="53" y="641">
4.0
</text>
<path stroke="black" stroke-dasharray="1,2" d="M85 562l879 0"/>
<text stroke="none" fill="black" font-size="16" x="53" y="570">
6.0
</text>
<path stroke="black" stroke-dasharray="1,2" d="M85 491l879 0"/>
<text stroke="none" fill="black" font-size="16" x="53" y="499">
8.0
</text>
<path stroke="black" stroke-dasharray="1,2" d="M85 420l879 0"/>
<text stroke="none" fill="black" font-size="16" x="43" y="428">
10.0
</text>
<path stroke="black" stroke-dasharray="1,2" d="M85 349l879 0"/>
<text stroke="none" fill="black" font-size="16" x="43" y="357">
12.0
</text>
<path stroke="black" stroke-dasharray="1,2" d="M85 278l879 0"/>
<text stroke="none" fill="black" font-size="16" x="43" y="286">
14.0
</text>
<path stroke="black" stroke-dasharray="1,2" d="M85 207l879 0"/>
<text stroke="none" fill="black" font-size="16" x="43" y="215">
16.0
</text>
<path stroke="black" stroke-dasharray="1,2" d="M85 136l879 0"/>
<text stroke="none" fill="black" font-size="16" x="43" y="144">
18.0
</text>
<path stroke="black" stroke-dasharray="1,2" d="M85 65l879 0"/>
<text stroke="none" fill="black" font-size="16" x="43" y="73">
20.0
</text>
<text stroke="none" fill="black" font-size="16" x="10" y="32">
nV/sqrt(Hz)
</text>
<path stroke="red" d="M173 365l27 36 3 3 2 4 3 4 3 3 3 4 3 3 3 4 6 6 3 4 9 9 3 4 3 3 2 3 18 18 3 2 9 9 3 2 11 11 3 2 3 3 3 2 3 3 3 2 3 3 9 6 3 3 6 4 2 2 9 6 3 3 9 6 3 1 15 10 3 1 2 2 6 4 3 1 6 4 3 1 3 2 3 1 3 2 3 1 3 2 3 1 3 2 2 1 3 2 3 1 3 2"/>
<path stroke="red" d="M422 583l6 2 3 2 9 3 3 2 9 3 2 1 3 1 3 2 36 12 2 1 3 1 3 0 15 5 3 0 9 3 3 0 3 1 2 1 3 1 3 0 6 2 3 0 6 2 3 0 3 1 3 0 6 2 3 0 2 1 3 0 3 1 3 0 3 1 3 0 3 1 3 0 3 1 3 0 3 1 3 0 3 1 3 0 2 1 6 0 3 1 3 0 3 1 6 0 3 1 6 0 3 1 6 0"/>
<path stroke="red" d="M660 643l3 1 5 0 3 1 6 0 3 1 9 0 3 1 9 0 3 1 8 0 3 1 12 0 3 1 15 0 2 1 12 0"/>
<path stroke="blue" d="M173 367l21 28 3 3 6 8 2 4 3 3 3 4 3 3 3 4 6 6 3 4 6 6 3 4 9 9 2 3 18 18 3 2 9 9 3 2 11 11 3 2 3 3 6 4 3 3 6 4 3 3 9 6 5 5 27 18 3 1 12 8 2 1 6 4 3 1 6 4 3 1 3 2 3 1 3 2 3 1 3 2 3 1 3 2 2 1 3 2 6 2 3 2 6 2 3 2 12 4 3 2"/>
<path stroke="blue" d="M449 594l3 1 2 1 42 14 2 1 9 3 3 0 12 4 3 0 9 3 3 0 2 1 3 1 3 0 6 2 3 0 6 2 3 0 3 1 3 0 6 2 3 0 2 1 3 0 3 1 3 0 3 1 3 0 3 1 3 0 3 1 3 0 3 1 3 0 3 1 5 0 3 1 3 0 3 1 6 0 3 1 6 0 3 1 3 0 3 1 9 0 2 1 6 0 3 1 6 0 3 1 9 0 3 1"/>
<path stroke="blue" d="M695 646l11 0 3 1 9 0 3 1 15 0 3 1 14 0 3 1 3 0"/>
<path stroke="#FFA500" d="M173 367l24 32 3 3 3 4 2 4 3 3 3 4 3 3 3 4 3 3 3 4 9 9 3 4 9 9 2 3 15 15 3 2 9 9 3 2 6 6 3 2 2 3 3 2 3 3 3 2 3 3 6 4 3 3 6 4 3 3 9 6 2 2 33 22 3 1 6 4 2 2 3 1 6 4 3 1 3 2 3 1 6 4 3 1 3 2 6 2 3 2 2 1 3 2 6 2 3 2 9 3 3 2"/>
<path stroke="#FFA500" d="M437 588l12 4 3 2 2 1 42 14 2 1 3 0 15 5 3 0 9 3 3 0 6 2 2 1 3 0 6 2 3 0 3 1 3 0 6 2 3 0 3 1 3 0 3 1 3 0 2 1 3 1 3 0 3 1 3 0 3 1 3 0 3 1 6 0 3 1 3 0 3 1 3 0 2 1 6 0 3 1 3 0 3 1 6 0 3 1 6 0 3 1 6 0 3 1 8 0 3 1 6 0 3 1"/>
<path stroke="#FFA500" d="M683 643l9 0 3 1 11 0 3 1 12 0 3 1 15 0 3 1 17 0"/>
<path stroke="green" d="M173 368l15 20 3 3 9 12 3 3 2 4 3 3 3 4 3 3 3 4 3 3 3 4 9 9 3 4 9 9 2 3 12 12 3 2 9 9 3 2 6 6 3 2 8 8 3 2 3 3 3 2 3 3 6 4 3 3 15 10 2 3 18 12 3 1 15 10 3 1 3 2 2 2 3 1 6 4 3 1 3 2 3 1 3 2 3 1 3 2 3 1 3 2 3 1 3 2 2 1 3 1"/>
<path stroke="green" d="M416 577l3 2 6 2 3 2 9 3 3 2 12 4 2 1 6 2 3 2 21 7 3 0 9 3 2 1 9 3 3 0 9 3 3 0 9 3 3 0 3 1 2 1 3 0 6 2 3 0 6 2 3 0 3 1 3 0 3 1 3 0 6 2 2 0 3 1 3 0 3 1 3 0 3 1 6 0 3 1 3 0 3 1 3 0 3 1 5 0 3 1 3 0 3 1 6 0 3 1 6 0 3 1 6 0"/>
<path stroke="green" d="M654 637l3 1 6 0 2 1 9 0 3 1 9 0 3 1 9 0 3 1 11 0 3 1 15 0 3 1 14 0 3 1 9 0"/>
<path stroke="#FFC0C5" d="M173 366l3 5 6 8 3 3 12 16 3 3 3 4 2 4 3 3 3 4 3 3 3 4 6 6 3 4 15 15 3 4 2 3 3 3 3 2 15 15 3 2 6 6 3 2 3 3 3 2 2 3 3 2 3 3 3 2 3 3 6 4 3 3 9 6 3 3 6 4 2 2 24 16 3 1 12 8 3 1 2 2 3 2 3 1 3 2 3 1 6 4 3 1 3 2 3 1 3 2 6 2"/>
<path stroke="#FFC0C5" d="M408 571l3 2 2 1 3 1 3 2 6 2 3 2 9 3 3 2 12 4 2 1 42 14 2 1 3 1 3 0 12 4 3 0 6 2 3 0 9 3 2 0 6 2 3 0 3 1 3 0 6 2 3 0 3 1 3 0 3 1 3 0 3 1 2 0 3 1 3 0 3 1 3 0 3 1 3 0 3 1 3 0 3 1 3 0 3 1 6 0 2 1 6 0 3 1 3 0 3 1 6 0 3 1"/>
<path stroke="#FFC0C5" d="M645 634l6 0 3 1 9 0 2 1 6 0 3 1 9 0 3 1 12 0 3 1 11 0 3 1 15 0 3 1 17 0 3 1 6 0"/>
<path stroke="#A52A2A" d="M173 362l3 4 3 5 3 4 3 3 12 16 3 3 3 4 2 4 3 3 3 4 3 3 3 4 3 3 3 4 9 9 3 4 9 9 2 3 15 15 3 2 9 9 3 2 3 3 3 2 3 3 2 3 3 2 3 3 6 4 3 3 6 4 3 3 12 8 5 5 18 12 3 1 15 10 3 1 3 2 2 2 3 1 6 4 3 1 3 2 3 1 3 2 3 1 3 2 3 1 3 2"/>
<path stroke="#A52A2A" d="M405 567l6 2 2 2 3 1 3 2 9 3 3 2 12 4 3 2 6 2 2 1 39 13 3 0 2 1 12 4 3 0 9 3 3 0 6 2 3 0 3 1 2 1 3 0 6 2 3 0 6 2 3 0 3 1 3 0 3 1 3 0 3 1 3 0 2 1 3 0 3 1 3 0 3 1 3 0 3 1 3 0 3 1 3 0 3 1 6 0 3 1 2 0 3 1 6 0 3 1 6 0 3 1"/>
<path stroke="#A52A2A" d="M642 630l6 0 3 1 6 0 3 1 8 0 3 1 9 0 3 1 9 0 3 1 11 0 3 1 15 0 3 1 20 0 3 1 9 0"/>
<path stroke="#F0E68C" d="M173 356l21 28 3 3 6 8 2 4 3 3 3 4 3 3 3 4 3 3 3 4 6 6 3 4 12 12 2 3 21 21 3 2 9 9 3 2 8 8 3 2 3 3 3 2 3 3 6 4 3 3 12 8 5 5 21 14 3 1 12 8 3 1 3 2 2 2 3 2 3 1 3 2 3 1 6 4 3 1 3 2 3 1 3 2 6 2 3 2 2 1 3 2 9 3 3 2 9 3 3 2"/>
<path stroke="#F0E68C" d="M440 578l12 4 2 1 6 2 3 2 15 5 3 0 15 5 2 1 3 1 3 0 12 4 3 0 9 3 3 0 6 2 2 0 6 2 3 0 3 1 3 0 6 2 3 0 3 1 3 0 3 1 3 0 3 1 2 0 3 1 3 0 3 1 3 0 3 1 3 0 3 1 3 0 3 1 6 0 3 1 3 0 2 1 6 0 3 1 6 0 3 1 6 0 3 1 6 0 3 1 8 0 3 1"/>
<path stroke="#F0E68C" d="M668 628l9 0 3 1 9 0 3 1 12 0 2 1 15 0 3 1 18 0 3 1 14 0"/>
<path stroke="#DDA0DD" d="M173 346l6 8 3 5 12 16 3 3 6 8 2 4 3 3 6 8 3 3 3 4 3 3 3 4 6 6 3 4 9 9 2 3 27 27 3 2 6 6 3 2 2 3 3 3 3 2 3 3 6 4 3 3 3 2 3 3 9 6 3 3 3 2 2 2 30 20 3 1 9 6 2 2 3 1 6 4 3 1 3 2 3 1 3 2 3 1 3 2 3 1 3 2 3 1 3 2 2 1 3 1 3 2"/>
<path stroke="#DDA0DD" d="M419 563l6 2 3 2 9 3 3 2 12 4 2 1 3 1 3 2 24 8 3 0 9 3 2 1 6 2 3 0 12 4 3 0 6 2 3 0 6 2 2 1 3 0 3 1 3 0 6 2 3 0 3 1 3 0 6 2 3 0 3 1 3 0 2 1 3 0 3 1 3 0 3 1 3 0 3 1 6 0 3 1 3 0 3 1 6 0 2 1 3 0 3 1 6 0 3 1 6 0 3 1 6 0"/>
<path stroke="#DDA0DD" d="M651 620l3 1 9 0 2 1 9 0 3 1 9 0 3 1 12 0 3 1 14 0 3 1 21 0 3 1 14 0"/>
<path stroke="#DA70D6" d="M173 325l3 5 6 8 3 5 18 24 2 4 6 8 3 3 6 8 3 3 6 8 6 6 3 4 3 3 3 4 2 3 9 9 3 4 12 12 3 2 20 20 3 2 3 3 3 2 3 3 3 2 3 3 3 2 3 3 6 4 5 5 9 6 3 3 21 14 3 1 6 4 2 2 3 2 3 1 9 6 3 1 3 2 3 1 6 4 3 1 3 2 3 1 2 2 6 2 3 2 3 1"/>
<path stroke="#DA70D6" d="M425 555l3 2 9 3 3 2 9 3 3 2 2 1 42 14 2 1 9 3 3 0 12 4 3 0 9 3 3 0 2 1 3 1 3 0 6 2 3 0 6 2 3 0 3 1 3 0 6 2 3 0 2 1 3 0 3 1 3 0 3 1 3 0 3 1 3 0 3 1 6 0 3 1 3 0 3 1 5 0 3 1 3 0 3 1 6 0 3 1 6 0 3 1 6 0 3 1 8 0 3 1 9 0"/>
<path stroke="#DA70D6" d="M680 615l3 1 12 0 3 1 11 0 3 1 18 0 3 1 26 0"/>
<path stroke="#EE82EE" d="M173 311l3 4 3 5 3 4 3 5 9 12 3 5 6 8 2 4 9 12 3 3 9 12 3 3 3 4 3 3 3 4 3 3 3 4 2 3 3 3 3 4 33 33 2 3 3 2 6 6 3 2 6 6 3 2 3 3 3 2 3 3 6 4 5 5 6 4 3 3 33 22 2 2 3 2 3 1 9 6 3 1 6 4 3 1 3 2 3 1 3 2 3 1 2 2 3 1 3 2 3 1"/>
<path stroke="#EE82EE" d="M422 545l3 2 6 2 3 2 6 2 3 2 9 3 2 1 3 2 39 13 2 1 9 3 3 0 15 5 3 0 9 3 2 0 6 2 3 0 6 2 3 0 3 1 3 0 6 2 3 0 3 1 3 0 2 1 3 0 3 1 3 0 3 1 3 0 3 1 3 0 3 1 3 0 3 1 3 0 3 1 5 0 3 1 3 0 3 1 6 0 3 1 6 0 3 1 6 0 3 1 8 0 3 1"/>
<path stroke="#EE82EE" d="M668 607l9 0 3 1 9 0 3 1 12 0 2 1 18 0 3 1 29 0 3 1"/>
<path stroke="#B03060" d="M173 288l6 10 3 4 3 5 3 4 3 5 3 4 3 5 6 8 2 4 3 5 15 20 3 3 9 12 3 3 6 8 2 3 3 4 6 6 3 4 9 9 3 4 15 15 2 3 3 3 3 2 9 9 3 2 6 6 3 2 3 3 3 2 3 3 3 2 2 3 6 4 3 3 12 8 3 3 18 12 2 2 6 4 3 1 9 6 3 1 9 6 3 1 3 2 3 1 2 2 3 1"/>
<path stroke="#B03060" d="M416 530l3 2 3 1 3 2 3 1 3 2 6 2 3 2 6 2 3 2 3 1 2 1 3 1 3 2 21 7 3 2 12 4 2 0 24 8 3 0 9 3 3 0 2 1 6 2 3 0 6 2 3 0 6 2 3 0 3 1 3 0 6 2 2 0 3 1 3 0 3 1 3 0 3 1 3 0 3 1 3 0 3 1 3 0 3 1 3 0 3 1 5 0 3 1 3 0 3 1 6 0 3 1"/>
<path stroke="#B03060" d="M642 595l6 0 3 1 6 0 3 1 8 0 3 1 9 0 3 1 9 0 3 1 14 0 3 1 18 0 3 1 26 0"/>
<path stroke="#40E0D0" d="M173 265l9 15 3 4 6 10 3 4 3 5 3 4 3 5 2 4 3 5 15 20 3 5 3 3 15 20 2 3 3 4 3 3 3 4 3 3 3 4 3 3 3 4 12 12 3 4 3 3 2 3 9 9 3 2 12 12 3 2 6 6 3 2 8 8 6 4 3 3 6 4 3 3 12 8 3 3 6 4 2 2 6 4 3 1 15 10 3 1 6 4 3 1 3 2 2 2 3 1"/>
<path stroke="#40E0D0" d="M416 517l3 2 3 1 3 2 3 1 3 2 3 1 3 2 3 1 3 2 6 2 3 2 2 1 6 2 3 2 18 6 3 2 12 4 2 1 9 3 3 0 18 6 3 0 6 2 2 1 3 1 3 0 6 2 3 0 6 2 3 0 6 2 3 0 6 2 2 0 3 1 3 0 3 1 3 0 3 1 3 0 3 1 3 0 3 1 3 0 3 1 3 0 3 1 5 0 3 1 3 0 3 1"/>
<path stroke="#40E0D0" d="M633 583l6 0 3 1 6 0 3 1 6 0 3 1 5 0 3 1 9 0 3 1 9 0 3 1 14 0 3 1 18 0 3 1 29 0"/>
<path stroke="#A0522D" d="M173 250l15 25 3 4 6 10 3 4 3 5 2 4 3 5 6 8 3 5 27 36 2 3 6 8 3 3 3 4 3 3 3 4 6 6 3 4 9 9 3 4 2 3 12 12 3 2 12 12 3 2 6 6 3 2 2 3 3 2 3 3 6 4 3 3 6 4 3 3 12 8 3 3 3 2 2 2 9 6 3 1 15 10 3 1 6 4 3 1 2 2 3 2 3 1 3 2 3 1"/>
<path stroke="#A0522D" d="M425 511l3 2 3 1 3 2 3 1 3 2 6 2 3 2 3 1 2 1 3 2 12 4 3 2 24 8 2 1 24 8 3 0 12 4 2 0 9 3 3 0 6 2 3 0 6 2 3 0 6 2 3 0 2 1 3 0 3 1 3 0 3 1 3 0 3 1 3 0 3 1 3 0 3 1 3 0 3 1 3 0 2 1 6 0 3 1 3 0 3 1 6 0 3 1 6 0 3 1 9 0 2 1"/>
<path stroke="#A0522D" d="M665 576l6 0 3 1 12 0 3 1 12 0 3 1 17 0 3 1 35 0"/>
<path stroke="#FF7F50" d="M173 228l3 6 18 30 3 4 6 10 2 4 3 5 3 4 3 5 3 4 3 5 24 32 2 4 6 8 3 3 6 8 3 3 3 4 6 6 3 4 6 6 3 4 2 3 27 27 3 2 6 6 3 2 2 3 3 3 3 2 3 3 6 4 3 3 6 4 3 3 9 6 3 3 3 2 2 2 18 12 3 1 12 8 3 1 3 2 2 2 3 1 6 4 3 1 3 2 3 1 3 2"/>
<path stroke="#FF7F50" d="M434 502l3 1 3 2 6 2 3 2 3 1 2 1 3 2 9 3 3 2 15 5 3 2 9 3 2 1 12 4 3 0 18 6 3 0 3 1 2 1 6 2 3 0 6 2 3 0 6 2 3 0 6 2 3 0 3 1 2 0 3 1 3 0 6 2 3 0 3 1 3 0 3 1 3 0 3 1 6 0 3 1 2 0 3 1 6 0 3 1 3 0 3 1 6 0 3 1 9 0 3 1 5 0"/>
<path stroke="#FF7F50" d="M665 562l3 1 9 0 3 1 15 0 3 1 17 0 3 1 41 0"/>
<path stroke="cyan" d="M173 205l6 10 3 6 21 35 2 5 3 4 3 5 3 4 3 5 3 4 3 5 6 8 3 5 12 16 2 4 9 12 3 3 6 8 3 3 3 4 3 3 3 4 3 3 3 4 3 3 2 3 3 3 3 4 21 21 3 2 17 17 3 2 3 3 3 2 3 3 6 4 3 3 9 6 3 3 3 2 2 2 27 18 3 1 9 6 2 1 6 4 3 1 6 4 3 1 3 2 3 1"/>
<path stroke="cyan" d="M437 487l3 2 6 2 3 2 3 1 2 2 9 3 3 2 12 4 3 2 15 5 2 1 24 8 3 0 12 4 2 0 9 3 3 0 9 3 3 0 3 1 3 0 6 2 3 0 2 1 3 0 6 2 3 0 3 1 3 0 3 1 3 0 3 1 6 0 3 1 3 0 2 1 3 0 3 1 6 0 3 1 6 0 3 1 6 0 3 1 9 0 2 1 9 0 3 1 15 0 3 1 20 0"/>
<path stroke="cyan" d="M715 549l3 1 41 0"/>
<path stroke="magenta" d="M173 192l3 5 3 6 24 40 2 5 3 4 6 10 3 4 3 5 6 8 3 5 15 20 2 4 9 12 3 3 6 8 3 3 3 4 3 3 3 4 6 6 3 4 2 3 9 9 3 4 6 6 3 2 12 12 3 2 3 3 2 3 3 2 6 6 6 4 3 3 3 2 3 3 9 6 3 3 6 4 2 2 24 16 3 1 9 6 3 1 2 2 3 2 3 1 3 2 3 1 3 2"/>
<path stroke="magenta" d="M428 468l3 1 3 2 3 1 3 2 3 1 3 2 6 2 2 1 3 2 9 3 3 2 27 9 2 1 27 9 3 0 9 3 2 0 9 3 3 0 6 2 3 0 6 2 3 0 3 1 3 0 3 1 2 0 3 1 3 0 3 1 3 0 3 1 3 0 3 1 3 0 3 1 3 0 3 1 6 0 2 1 3 0 3 1 6 0 3 1 9 0 3 1 6 0 3 1 11 0 3 1 15 0"/>
<path stroke="magenta" d="M686 530l3 1 26 0 3 1 29 0 3 -1 9 0"/>
<path stroke="#666" d="M173 180l3 6 6 10 3 6 12 20 3 4 3 5 2 5 3 5 3 4 3 5 6 8 3 5 9 12 3 5 9 12 2 3 12 16 3 3 3 4 3 3 3 4 6 6 3 4 6 6 2 3 3 4 15 15 3 2 12 12 3 2 8 8 3 2 3 3 3 2 3 3 6 4 3 3 18 12 2 2 24 16 3 1 6 4 3 1 3 2 2 2 3 1 3 2 3 1 3 2"/>
<path stroke="#666" d="M425 450l3 1 3 2 6 2 3 2 6 2 3 2 3 1 2 1 3 1 3 2 36 12 2 1 18 6 3 0 9 3 3 0 6 2 2 1 3 0 6 2 3 0 3 1 3 0 6 2 3 0 3 1 3 0 3 1 3 0 2 1 3 0 3 1 3 0 3 1 3 0 3 1 6 0 3 1 3 0 3 1 6 0 2 1 6 0 3 1 9 0 3 1 9 0 3 1 11 0 3 1 21 0 3 1"/>
<path stroke="#666" d="M692 510l53 0 2 -1 12 0"/>
<path stroke="#949494" d="M173 159l6 10 3 6 18 30 3 4 2 5 3 5 3 4 3 5 3 4 3 5 6 8 3 5 15 20 2 4 3 3 9 12 3 3 3 4 3 3 3 4 6 6 3 4 6 6 2 3 6 6 3 4 3 2 15 15 3 2 6 6 3 2 2 3 3 2 3 3 6 4 3 3 6 4 3 3 18 12 2 2 15 10 3 1 9 6 3 1 3 2 3 1 3 2 2 2 3 1"/>
<path stroke="#949494" d="M416 421l3 2 3 1 3 2 6 2 3 2 6 2 3 2 9 3 2 2 42 14 2 1 9 3 3 0 12 4 3 0 6 2 3 0 3 1 2 1 3 0 6 2 3 0 3 1 3 0 3 1 3 0 3 1 3 0 3 1 3 0 3 1 2 0 3 1 3 0 3 1 6 0 3 1 3 0 3 1 6 0 3 1 8 0 3 1 6 0 3 1 12 0 3 1 17 0 3 1 68 0 3 -1"/>
<path stroke="#949494" d="M739 480l17 0 3 -1"/>
<path stroke="#888" d="M173 130l3 5 3 6 24 40 2 4 6 10 3 4 3 5 6 8 3 5 18 24 2 4 3 4 3 3 6 8 3 3 3 4 3 3 3 4 9 9 3 4 3 3 2 3 18 18 3 2 6 6 3 2 6 6 3 2 2 3 6 4 3 3 6 4 3 3 24 16 2 2 12 8 3 1 6 4 3 1 6 4 3 1 3 2 3 1 2 2 3 1 3 2 3 1 3 2 6 2 3 2"/>
<path stroke="#888" d="M434 398l9 3 3 2 6 2 2 1 42 14 2 1 3 1 3 0 9 3 3 0 6 2 3 0 6 2 3 0 3 1 2 1 3 0 3 1 3 0 3 1 3 0 3 1 3 0 3 1 3 0 3 1 3 0 3 1 3 0 2 1 6 0 3 1 6 0 3 1 6 0 3 1 9 0 3 1 11 0 3 1 18 0 3 1 58 0 3 -1 21 0 3 -1 11 0 3 -1 6 0"/>
<path stroke="red" d="M173 101l6 10 3 6 9 15 3 4 9 15 2 4 3 5 6 8 3 5 27 36 2 3 6 8 3 3 3 4 3 3 3 4 9 9 3 4 9 9 2 3 3 3 3 2 9 9 3 2 6 6 3 2 3 3 3 2 3 3 3 2 5 5 9 6 3 3 21 14 3 1 3 2 2 2 6 4 3 1 6 4 3 1 3 2 3 1 3 2 3 1 3 2 3 1 3 2 2 1 3 1 3 2"/>
<path stroke="red" d="M419 351l9 3 3 2 18 6 3 2 2 1 12 4 3 0 18 6 3 0 6 2 2 1 3 0 9 3 3 0 3 1 3 0 6 2 3 0 3 1 3 0 3 1 2 0 3 1 3 0 3 1 3 0 3 1 3 0 3 1 6 0 3 1 6 0 3 1 5 0 3 1 9 0 3 1 9 0 3 1 17 0 3 1 59 0 3 -1 17 0 3 -1 12 0 3 -1 9 0 3 -1 6 0"/>
<path stroke="red" d="M745 392l2 -1 6 0 3 -1 3 0"/>
</svg>
