<?xml version="1.0" standalone="yes"?>
<!DOCTYPE svg PUBLIC "-//W3C//DTD SVG 1.1//EN"
 "http://www.w3.org/Graphics/SVG/1.1/DTD/svg11.dtd">
<svg xmlns="http://www.w3.org/2000/svg" version="1.1"
  width="100%" height="100%" viewBox="0 0 1024 768"
  style="fill: none; font-family: Arial;
 font: Arial;
">

<!-- Creator: NGspice -->

<rect x="0" y="0" width="1024" height="768" fill="white" stroke="none"/>
<text stroke="none" fill="black" font-size="16" x="358" y="752">
Power(mW)
</text>
<text transform="rotate(-90, 20, 484)"  stroke="none" fill="black" font-size="16" x="20" y="484">
Integrated_Noise(uV)
</text>
<text stroke="none" fill="black" font-size="16" x="10" y="16">
noise1: OTA_2stage Integrated_Noise_vs_Power
</text>
<path stroke="black" stroke-dasharray="1,2" d="M85 704l0 -640"/>
<text stroke="none" fill="black" font-size="16" x="65" y="728">
1.55
</text>
<path stroke="black" stroke-dasharray="1,2" d="M210 704l0 -640"/>
<text stroke="none" fill="black" font-size="16" x="190" y="728">
1.60
</text>
<path stroke="black" stroke-dasharray="1,2" d="M335 704l0 -640"/>
<text stroke="none" fill="black" font-size="16" x="315" y="728">
1.65
</text>
<path stroke="black" stroke-dasharray="1,2" d="M460 704l0 -640"/>
<text stroke="none" fill="black" font-size="16" x="440" y="728">
1.70
</text>
<path stroke="black" stroke-dasharray="1,2" d="M585 704l0 -640"/>
<text stroke="none" fill="black" font-size="16" x="565" y="728">
1.75
</text>
<path stroke="black" stroke-dasharray="1,2" d="M710 704l0 -640"/>
<text stroke="none" fill="black" font-size="16" x="690" y="728">
1.80
</text>
<path stroke="black" stroke-dasharray="1,2" d="M835 704l0 -640"/>
<text stroke="none" fill="black" font-size="16" x="815" y="728">
1.85
</text>
<path stroke="black" stroke-dasharray="1,2" d="M960 704l0 -640"/>
<text stroke="none" fill="black" font-size="16" x="940" y="728">
1.90
</text>
<text stroke="none" fill="black" font-size="16" x="614" y="752">
     
</text>
<path stroke="black" stroke-dasharray="1,2" d="M85 704l875 0"/>
<text stroke="none" fill="black" font-size="16" x="43" y="712">
3.10
</text>
<path stroke="black" stroke-dasharray="1,2" d="M85 624l875 0"/>
<text stroke="none" fill="black" font-size="16" x="43" y="632">
3.20
</text>
<path stroke="black" stroke-dasharray="1,2" d="M85 544l875 0"/>
<text stroke="none" fill="black" font-size="16" x="43" y="552">
3.30
</text>
<path stroke="black" stroke-dasharray="1,2" d="M85 464l875 0"/>
<text stroke="none" fill="black" font-size="16" x="43" y="472">
3.40
</text>
<path stroke="black" stroke-dasharray="1,2" d="M85 384l875 0"/>
<text stroke="none" fill="black" font-size="16" x="43" y="392">
3.50
</text>
<path stroke="black" stroke-dasharray="1,2" d="M85 304l875 0"/>
<text stroke="none" fill="black" font-size="16" x="43" y="312">
3.60
</text>
<path stroke="black" stroke-dasharray="1,2" d="M85 224l875 0"/>
<text stroke="none" fill="black" font-size="16" x="43" y="232">
3.70
</text>
<path stroke="black" stroke-dasharray="1,2" d="M85 144l875 0"/>
<text stroke="none" fill="black" font-size="16" x="43" y="152">
3.80
</text>
<path stroke="black" stroke-dasharray="1,2" d="M85 64l875 0"/>
<text stroke="none" fill="black" font-size="16" x="43" y="72">
3.90
</text>
<text stroke="none" fill="black" font-size="16" x="10" y="32">
     
</text>
</svg>
