<?xml version="1.0" standalone="yes"?>
<!DOCTYPE svg PUBLIC "-//W3C//DTD SVG 1.1//EN"
 "http://www.w3.org/Graphics/SVG/1.1/DTD/svg11.dtd">
<svg xmlns="http://www.w3.org/2000/svg" version="1.1"
  width="100%" height="100%" viewBox="0 0 1024 768"
  style="fill: none; font-family: Arial;
 font: Arial;
">

<!-- Creator: NGspice -->

<rect x="0" y="0" width="1024" height="768" fill="white" stroke="none"/>
<text stroke="none" fill="black" font-size="16" x="358" y="752">
Power(mW)
</text>
<text transform="rotate(-90, 20, 484)"  stroke="none" fill="black" font-size="16" x="20" y="484">
Integrated_Noise(uV)
</text>
<text stroke="none" fill="black" font-size="16" x="10" y="16">
noise1: OTA_2stage Integrated_Noise_vs_Power
</text>
<path stroke="black" stroke-dasharray="1,2" d="M75 704l0 -639"/>
<text stroke="none" fill="black" font-size="16" x="60" y="728">
5.0
</text>
<path stroke="black" stroke-dasharray="1,2" d="M139 704l0 -639"/>
<text stroke="none" fill="black" font-size="16" x="124" y="728">
5.1
</text>
<path stroke="black" stroke-dasharray="1,2" d="M203 704l0 -639"/>
<text stroke="none" fill="black" font-size="16" x="188" y="728">
5.2
</text>
<path stroke="black" stroke-dasharray="1,2" d="M267 704l0 -639"/>
<text stroke="none" fill="black" font-size="16" x="252" y="728">
5.3
</text>
<path stroke="black" stroke-dasharray="1,2" d="M331 704l0 -639"/>
<text stroke="none" fill="black" font-size="16" x="316" y="728">
5.4
</text>
<path stroke="black" stroke-dasharray="1,2" d="M395 704l0 -639"/>
<text stroke="none" fill="black" font-size="16" x="380" y="728">
5.5
</text>
<path stroke="black" stroke-dasharray="1,2" d="M459 704l0 -639"/>
<text stroke="none" fill="black" font-size="16" x="444" y="728">
5.6
</text>
<path stroke="black" stroke-dasharray="1,2" d="M523 704l0 -639"/>
<text stroke="none" fill="black" font-size="16" x="508" y="728">
5.7
</text>
<path stroke="black" stroke-dasharray="1,2" d="M587 704l0 -639"/>
<text stroke="none" fill="black" font-size="16" x="572" y="728">
5.8
</text>
<path stroke="black" stroke-dasharray="1,2" d="M651 704l0 -639"/>
<text stroke="none" fill="black" font-size="16" x="636" y="728">
5.9
</text>
<path stroke="black" stroke-dasharray="1,2" d="M715 704l0 -639"/>
<text stroke="none" fill="black" font-size="16" x="700" y="728">
6.0
</text>
<path stroke="black" stroke-dasharray="1,2" d="M779 704l0 -639"/>
<text stroke="none" fill="black" font-size="16" x="764" y="728">
6.1
</text>
<path stroke="black" stroke-dasharray="1,2" d="M843 704l0 -639"/>
<text stroke="none" fill="black" font-size="16" x="828" y="728">
6.2
</text>
<path stroke="black" stroke-dasharray="1,2" d="M907 704l0 -639"/>
<text stroke="none" fill="black" font-size="16" x="892" y="728">
6.3
</text>
<path stroke="black" stroke-dasharray="1,2" d="M971 704l0 -639"/>
<text stroke="none" fill="black" font-size="16" x="956" y="728">
6.4
</text>
<text stroke="none" fill="black" font-size="16" x="614" y="752">
m     
</text>
<path stroke="black" stroke-dasharray="1,2" d="M75 704l896 0"/>
<text stroke="none" fill="black" font-size="16" x="43" y="712">
6.4
</text>
<path stroke="black" stroke-dasharray="1,2" d="M75 633l896 0"/>
<text stroke="none" fill="black" font-size="16" x="43" y="641">
6.6
</text>
<path stroke="black" stroke-dasharray="1,2" d="M75 562l896 0"/>
<text stroke="none" fill="black" font-size="16" x="43" y="570">
6.8
</text>
<path stroke="black" stroke-dasharray="1,2" d="M75 491l896 0"/>
<text stroke="none" fill="black" font-size="16" x="43" y="499">
7.0
</text>
<path stroke="black" stroke-dasharray="1,2" d="M75 420l896 0"/>
<text stroke="none" fill="black" font-size="16" x="43" y="428">
7.2
</text>
<path stroke="black" stroke-dasharray="1,2" d="M75 349l896 0"/>
<text stroke="none" fill="black" font-size="16" x="43" y="357">
7.4
</text>
<path stroke="black" stroke-dasharray="1,2" d="M75 278l896 0"/>
<text stroke="none" fill="black" font-size="16" x="43" y="286">
7.6
</text>
<path stroke="black" stroke-dasharray="1,2" d="M75 207l896 0"/>
<text stroke="none" fill="black" font-size="16" x="43" y="215">
7.8
</text>
<path stroke="black" stroke-dasharray="1,2" d="M75 136l896 0"/>
<text stroke="none" fill="black" font-size="16" x="43" y="144">
8.0
</text>
<path stroke="black" stroke-dasharray="1,2" d="M75 65l896 0"/>
<text stroke="none" fill="black" font-size="16" x="43" y="73">
8.2
</text>
<text stroke="none" fill="black" font-size="16" x="10" y="32">
u     
</text>
</svg>
