<?xml version="1.0" standalone="yes"?>
<!DOCTYPE svg PUBLIC "-//W3C//DTD SVG 1.1//EN"
 "http://www.w3.org/Graphics/SVG/1.1/DTD/svg11.dtd">
<svg xmlns="http://www.w3.org/2000/svg" version="1.1"
  width="100%" height="100%" viewBox="0 0 1024 768"
  style="fill: none; font-family: Arial;
 font: Arial;
">

<!-- Creator: NGspice -->

<rect x="0" y="0" width="1024" height="768" fill="white" stroke="none"/>
<text stroke="none" fill="black" font-size="16" x="358" y="752">
Power(mW)
</text>
<text transform="rotate(-90, 20, 484)"  stroke="none" fill="black" font-size="16" x="20" y="484">
Integrated_Noise(uV)
</text>
<text stroke="none" fill="black" font-size="16" x="10" y="16">
noise73: OTA_2stage Integrated_Noise_vs_Power
</text>
<path stroke="black" d="M85 704l0 -639"/>
<text stroke="none" fill="black" font-size="16" x="70" y="728">
0.0
</text>
<path stroke="black" stroke-dasharray="1,2" d="M158 704l0 -639"/>
<text stroke="none" fill="black" font-size="16" x="143" y="728">
1.0
</text>
<path stroke="black" stroke-dasharray="1,2" d="M231 704l0 -639"/>
<text stroke="none" fill="black" font-size="16" x="216" y="728">
2.0
</text>
<path stroke="black" stroke-dasharray="1,2" d="M304 704l0 -639"/>
<text stroke="none" fill="black" font-size="16" x="289" y="728">
3.0
</text>
<path stroke="black" stroke-dasharray="1,2" d="M377 704l0 -639"/>
<text stroke="none" fill="black" font-size="16" x="362" y="728">
4.0
</text>
<path stroke="black" stroke-dasharray="1,2" d="M450 704l0 -639"/>
<text stroke="none" fill="black" font-size="16" x="435" y="728">
5.0
</text>
<path stroke="black" stroke-dasharray="1,2" d="M523 704l0 -639"/>
<text stroke="none" fill="black" font-size="16" x="508" y="728">
6.0
</text>
<path stroke="black" stroke-dasharray="1,2" d="M596 704l0 -639"/>
<text stroke="none" fill="black" font-size="16" x="581" y="728">
7.0
</text>
<path stroke="black" stroke-dasharray="1,2" d="M669 704l0 -639"/>
<text stroke="none" fill="black" font-size="16" x="654" y="728">
8.0
</text>
<path stroke="black" stroke-dasharray="1,2" d="M742 704l0 -639"/>
<text stroke="none" fill="black" font-size="16" x="727" y="728">
9.0
</text>
<path stroke="black" stroke-dasharray="1,2" d="M815 704l0 -639"/>
<text stroke="none" fill="black" font-size="16" x="795" y="728">
10.0
</text>
<path stroke="black" stroke-dasharray="1,2" d="M888 704l0 -639"/>
<text stroke="none" fill="black" font-size="16" x="868" y="728">
11.0
</text>
<path stroke="black" stroke-dasharray="1,2" d="M961 704l0 -639"/>
<text stroke="none" fill="black" font-size="16" x="941" y="728">
12.0
</text>
<text stroke="none" fill="black" font-size="16" x="614" y="752">
m     
</text>
<path stroke="black" d="M85 704l876 0"/>
<text stroke="none" fill="black" font-size="16" x="53" y="712">
0.0
</text>
<path stroke="black" stroke-dasharray="1,2" d="M85 633l876 0"/>
<text stroke="none" fill="black" font-size="16" x="43" y="641">
10.0
</text>
<path stroke="black" stroke-dasharray="1,2" d="M85 562l876 0"/>
<text stroke="none" fill="black" font-size="16" x="43" y="570">
20.0
</text>
<path stroke="black" stroke-dasharray="1,2" d="M85 491l876 0"/>
<text stroke="none" fill="black" font-size="16" x="43" y="499">
30.0
</text>
<path stroke="black" stroke-dasharray="1,2" d="M85 420l876 0"/>
<text stroke="none" fill="black" font-size="16" x="43" y="428">
40.0
</text>
<path stroke="black" stroke-dasharray="1,2" d="M85 349l876 0"/>
<text stroke="none" fill="black" font-size="16" x="43" y="357">
50.0
</text>
<path stroke="black" stroke-dasharray="1,2" d="M85 278l876 0"/>
<text stroke="none" fill="black" font-size="16" x="43" y="286">
60.0
</text>
<path stroke="black" stroke-dasharray="1,2" d="M85 207l876 0"/>
<text stroke="none" fill="black" font-size="16" x="43" y="215">
70.0
</text>
<path stroke="black" stroke-dasharray="1,2" d="M85 136l876 0"/>
<text stroke="none" fill="black" font-size="16" x="43" y="144">
80.0
</text>
<path stroke="black" stroke-dasharray="1,2" d="M85 65l876 0"/>
<text stroke="none" fill="black" font-size="16" x="43" y="73">
90.0
</text>
<text stroke="none" fill="black" font-size="16" x="10" y="32">
u     
</text>
<path stroke="red" d="M438 23l43 0"/>
<text stroke="none" fill="black" font-size="16" x="491" y="32">
n
</text>
<path stroke="red" d="M895 667l39 0M854 666l41 1M811 666l43 0M767 665l44 1M722 664l45 1M675 662l47 2M629 661l46 1M584 658l45 3M540 656l44 2M498 653l42 3M457 650l41 3M417 646l40 4M379 643l38 3M342 638l37 5M307 633l35 5M274 627l33 6M243 620l31 7"/>
<path stroke="red" d="M214 610l29 10M188 596l26 14M163 577l25 19M141 548l22 29M122 499l19 49M106 399l16 100M94 94l12 305"/>
</svg>
