<?xml version="1.0" standalone="yes"?>
<!DOCTYPE svg PUBLIC "-//W3C//DTD SVG 1.1//EN"
 "http://www.w3.org/Graphics/SVG/1.1/DTD/svg11.dtd">
<svg xmlns="http://www.w3.org/2000/svg" version="1.1"
  width="100%" height="100%" viewBox="0 0 1024 768"
  style="fill: none; font-family: Arial;
 font: Arial;
">

<!-- Creator: NGspice -->

<rect x="0" y="0" width="1024" height="768" fill="white" stroke="none"/>
<text stroke="none" fill="black" font-size="16" x="358" y="752">
Frequency(Hz)
</text>
<text transform="rotate(-90, 20, 484)"  stroke="none" fill="black" font-size="16" x="20" y="484">
Integrated_Noise(uV)
</text>
<text stroke="none" fill="black" font-size="16" x="10" y="16">
noise1: OTA_2stage Integrated_Noise
</text>
<path stroke="black" d="M85 704l0 -640"/>
<text stroke="none" fill="black" font-size="16" x="65" y="728">
10^4
</text>
<path stroke="black" stroke-dasharray="1,2" d="M136 704l0 -640M173 704l0 -640M201 704l0 -640M224 704l0 -640M244 704l0 -640M261 704l0 -640M276 704l0 -640M289 704l0 -640M301 704l0 -640M312 704l0 -640M323 704l0 -640M332 704l0 -640M341 704l0 -640"/>
<path stroke="black" stroke-dasharray="1,2" d="M349 704l0 -640M357 704l0 -640M364 704l0 -640M371 704l0 -640"/>
<path stroke="black" d="M378 704l0 -640"/>
<text stroke="none" fill="black" font-size="16" x="358" y="728">
10^5
</text>
<path stroke="black" stroke-dasharray="1,2" d="M429 704l0 -640M466 704l0 -640M494 704l0 -640M517 704l0 -640M537 704l0 -640M554 704l0 -640M569 704l0 -640M582 704l0 -640M594 704l0 -640M605 704l0 -640M616 704l0 -640M625 704l0 -640M634 704l0 -640"/>
<path stroke="black" stroke-dasharray="1,2" d="M642 704l0 -640M650 704l0 -640M657 704l0 -640M664 704l0 -640"/>
<path stroke="black" d="M671 704l0 -640"/>
<text stroke="none" fill="black" font-size="16" x="651" y="728">
10^6
</text>
<path stroke="black" stroke-dasharray="1,2" d="M722 704l0 -640M759 704l0 -640M787 704l0 -640M810 704l0 -640M830 704l0 -640M847 704l0 -640M862 704l0 -640M875 704l0 -640M887 704l0 -640M898 704l0 -640M909 704l0 -640M918 704l0 -640M927 704l0 -640"/>
<path stroke="black" stroke-dasharray="1,2" d="M935 704l0 -640M943 704l0 -640M950 704l0 -640M957 704l0 -640"/>
<path stroke="black" d="M964 704l0 -640"/>
<text stroke="none" fill="black" font-size="16" x="944" y="728">
10^7
</text>
<text stroke="none" fill="black" font-size="16" x="614" y="752">
Hz
</text>
<path stroke="black" stroke-dasharray="1,2" d="M85 704l879 0"/>
<text stroke="none" fill="black" font-size="16" x="53" y="712">
4.0
</text>
<path stroke="black" stroke-dasharray="1,2" d="M85 640l879 0"/>
<text stroke="none" fill="black" font-size="16" x="53" y="648">
5.0
</text>
<path stroke="black" stroke-dasharray="1,2" d="M85 576l879 0"/>
<text stroke="none" fill="black" font-size="16" x="53" y="584">
6.0
</text>
<path stroke="black" stroke-dasharray="1,2" d="M85 512l879 0"/>
<text stroke="none" fill="black" font-size="16" x="53" y="520">
7.0
</text>
<path stroke="black" stroke-dasharray="1,2" d="M85 448l879 0"/>
<text stroke="none" fill="black" font-size="16" x="53" y="456">
8.0
</text>
<path stroke="black" stroke-dasharray="1,2" d="M85 384l879 0"/>
<text stroke="none" fill="black" font-size="16" x="53" y="392">
9.0
</text>
<path stroke="black" stroke-dasharray="1,2" d="M85 320l879 0"/>
<text stroke="none" fill="black" font-size="16" x="43" y="328">
10.0
</text>
<path stroke="black" stroke-dasharray="1,2" d="M85 256l879 0"/>
<text stroke="none" fill="black" font-size="16" x="43" y="264">
11.0
</text>
<path stroke="black" stroke-dasharray="1,2" d="M85 192l879 0"/>
<text stroke="none" fill="black" font-size="16" x="43" y="200">
12.0
</text>
<path stroke="black" stroke-dasharray="1,2" d="M85 128l879 0"/>
<text stroke="none" fill="black" font-size="16" x="43" y="136">
13.0
</text>
<path stroke="black" stroke-dasharray="1,2" d="M85 64l879 0"/>
<text stroke="none" fill="black" font-size="16" x="43" y="72">
14.0
</text>
<text stroke="none" fill="black" font-size="16" x="10" y="32">
nV/sqrt(Hz)
</text>
<path stroke="red" d="M173 87l3 8 3 9 3 8 3 9 18 48 2 8 3 7 3 8 3 7 3 8 18 42 3 6 6 14 2 6 3 6 3 7 18 36 3 5 6 12 3 5 3 6 2 5 3 5 3 6 18 30 3 4 6 10 3 4 3 5 2 4 3 5 9 12 3 5 15 20 3 3 6 8 3 3 2 4 3 4 3 3 3 4 6 6 3 4 21 21 2 3 9 9 3 2 6 6 3 2"/>
<path stroke="red" d="M434 549l6 6 3 2 3 3 6 4 2 3 9 6 3 3 30 20 2 1 9 6 3 1 6 4 3 1 6 4 3 1 3 2 6 2 2 2 3 1 3 2 6 2 3 2 9 3 3 2 12 4 2 1 39 13 2 0 9 3 3 0 9 3 3 0 6 2 3 0 3 1 3 0 3 1 2 1 3 0 3 1 3 0 3 1 3 0 3 1 3 0 3 1 6 0 3 1 3 0 3 1 5 0 3 1"/>
<path stroke="red" d="M712 668l6 0 3 1 9 0 3 1 9 0 3 1 14 0"/>
</svg>
