<?xml version="1.0" standalone="yes"?>
<!DOCTYPE svg PUBLIC "-//W3C//DTD SVG 1.1//EN"
 "http://www.w3.org/Graphics/SVG/1.1/DTD/svg11.dtd">
<svg xmlns="http://www.w3.org/2000/svg" version="1.1"
  width="100%" height="100%" viewBox="0 0 1024 768"
  style="fill: none; font-family: Arial;
 font: Arial;
">

<!-- Creator: NGspice -->

<rect x="0" y="0" width="1024" height="768" fill="white" stroke="none"/>
<text stroke="none" fill="black" font-size="16" x="358" y="752">
Frequency(Hz)
</text>
<text transform="rotate(-90, 20, 434)"  stroke="none" fill="black" font-size="16" x="20" y="434">
Phase(deg)
</text>
<text stroke="none" fill="black" font-size="16" x="10" y="16">
ac39: OTA_2stage Phase
</text>
<path stroke="black" d="M95 704l0 -637"/>
<text stroke="none" fill="black" font-size="16" x="90" y="728">
1
</text>
<path stroke="black" stroke-dasharray="1,2" d="M152 704l0 -637M168 704l0 -637M180 704l0 -637"/>
<path stroke="black" d="M190 704l0 -637"/>
<text stroke="none" fill="black" font-size="16" x="180" y="728">
10
</text>
<path stroke="black" stroke-dasharray="1,2" d="M247 704l0 -637M263 704l0 -637M275 704l0 -637"/>
<path stroke="black" d="M285 704l0 -637"/>
<text stroke="none" fill="black" font-size="16" x="270" y="728">
100
</text>
<path stroke="black" stroke-dasharray="1,2" d="M342 704l0 -637M358 704l0 -637M370 704l0 -637"/>
<path stroke="black" d="M380 704l0 -637"/>
<text stroke="none" fill="black" font-size="16" x="360" y="728">
10^3
</text>
<path stroke="black" stroke-dasharray="1,2" d="M437 704l0 -637M453 704l0 -637M465 704l0 -637"/>
<path stroke="black" d="M475 704l0 -637"/>
<text stroke="none" fill="black" font-size="16" x="455" y="728">
10^4
</text>
<path stroke="black" stroke-dasharray="1,2" d="M532 704l0 -637M548 704l0 -637M560 704l0 -637"/>
<path stroke="black" d="M570 704l0 -637"/>
<text stroke="none" fill="black" font-size="16" x="550" y="728">
10^5
</text>
<path stroke="black" stroke-dasharray="1,2" d="M627 704l0 -637M643 704l0 -637M655 704l0 -637"/>
<path stroke="black" d="M665 704l0 -637"/>
<text stroke="none" fill="black" font-size="16" x="645" y="728">
10^6
</text>
<path stroke="black" stroke-dasharray="1,2" d="M722 704l0 -637M738 704l0 -637M750 704l0 -637"/>
<path stroke="black" d="M760 704l0 -637"/>
<text stroke="none" fill="black" font-size="16" x="740" y="728">
10^7
</text>
<path stroke="black" stroke-dasharray="1,2" d="M817 704l0 -637M833 704l0 -637M845 704l0 -637"/>
<path stroke="black" d="M855 704l0 -637"/>
<text stroke="none" fill="black" font-size="16" x="835" y="728">
10^8
</text>
<path stroke="black" stroke-dasharray="1,2" d="M912 704l0 -637M928 704l0 -637M940 704l0 -637"/>
<path stroke="black" d="M950 704l0 -637"/>
<text stroke="none" fill="black" font-size="16" x="930" y="728">
10^9
</text>
<text stroke="none" fill="black" font-size="16" x="614" y="752">
Hz
</text>
<path stroke="black" stroke-dasharray="1,2" d="M95 704l855 0"/>
<text stroke="none" fill="black" font-size="16" x="33" y="712">
-350.0
</text>
<path stroke="black" stroke-dasharray="1,2" d="M95 613l855 0"/>
<text stroke="none" fill="black" font-size="16" x="33" y="621">
-300.0
</text>
<path stroke="black" stroke-dasharray="1,2" d="M95 522l855 0"/>
<text stroke="none" fill="black" font-size="16" x="33" y="530">
-250.0
</text>
<path stroke="black" stroke-dasharray="1,2" d="M95 431l855 0"/>
<text stroke="none" fill="black" font-size="16" x="33" y="439">
-200.0
</text>
<path stroke="black" stroke-dasharray="1,2" d="M95 340l855 0"/>
<text stroke="none" fill="black" font-size="16" x="33" y="348">
-150.0
</text>
<path stroke="black" stroke-dasharray="1,2" d="M95 249l855 0"/>
<text stroke="none" fill="black" font-size="16" x="33" y="257">
-100.0
</text>
<path stroke="black" stroke-dasharray="1,2" d="M95 158l855 0"/>
<text stroke="none" fill="black" font-size="16" x="43" y="166">
-50.0
</text>
<path stroke="black" d="M95 67l855 0"/>
<text stroke="none" fill="black" font-size="16" x="63" y="75">
0.0
</text>
<text stroke="none" fill="black" font-size="16" x="10" y="32">
     
</text>
<path stroke="red" d="M95 67l10 0 9 1 39 0 9 1 10 0 9 1 10 0 9 1 10 1 10 2 9 2 10 2 9 3 10 3 10 4 9 6 10 6 9 8 10 9 10 11 9 12 10 12 9 12 10 11 9 10 20 16 9 6 10 5 9 4 10 3 10 2 9 2 10 2 9 1 10 1 9 1 10 0 10 1 9 0 10 1 29 0 9 1 39 0 9 1 19 0"/>
<path stroke="red" d="M622 232l10 1 9 0 10 1 10 0 9 1 10 2 9 1 20 4 9 2 10 4 9 3 10 5 10 6 9 8 10 10 9 13 10 19 9 23 10 17 10 -17 9 -11 10 12 9 20 10 26 10 33 9 40 10 46 9 47"/>
<path stroke="blue" d="M95 67l10 0 9 1 39 0 9 1 10 0 9 1 10 1 9 1 20 2 9 2 10 2 9 3 10 4 10 5 9 5 10 7 9 9 10 9 10 11 9 12 10 12 9 12 10 11 9 9 10 9 10 6 9 6 10 5 9 3 20 6 9 2 10 1 9 1 10 1 9 1 10 1 19 0 10 1 29 0 9 1 39 0 9 1 19 0 10 1 9 0 10 1"/>
<path stroke="blue" d="M651 234l10 0 9 1 10 2 9 1 20 4 9 2 10 4 9 3 10 5 10 6 9 8 10 10 9 14 10 18 9 23 10 14 10 -19 9 -7 10 13 9 20 10 27 10 33 9 41 10 49 9 49"/>
<path stroke="#FFA500" d="M95 67l10 1 38 0 10 1 19 0 9 1 10 1 9 1 10 1 10 2 9 2 10 2 9 4 10 4 10 5 9 6 10 7 19 19 10 11 9 12 10 12 9 12 19 19 10 8 10 7 9 5 10 4 9 4 20 4 9 2 10 2 9 1 10 1 9 0 10 1 10 0 9 1 29 0 10 1 48 0 9 1 19 0 10 1 9 0 10 1"/>
<path stroke="#FFA500" d="M651 234l10 0 9 1 10 2 9 1 20 4 9 3 10 3 9 4 10 4 10 7 9 8 10 10 9 14 10 19 9 22 10 10 10 -20 9 -3 10 14 9 21 10 27 10 34 9 43 10 51 9 51"/>
<path stroke="green" d="M95 67l10 1 38 0 10 1 9 0 10 1 9 0 10 1 9 1 10 2 10 1 9 3 10 2 9 4 10 4 10 5 9 7 10 7 9 10 10 10 10 12 9 12 10 12 9 11 19 19 10 7 10 6 9 5 10 4 9 3 10 3 10 2 9 2 10 1 9 1 10 1 9 0 10 1 10 0 9 1 29 0 10 1 48 0 9 1 19 0"/>
<path stroke="green" d="M622 232l10 1 9 0 10 1 10 0 9 1 10 2 9 1 20 4 9 2 10 4 9 4 10 5 10 6 9 8 10 10 9 15 10 18 9 22 10 4 10 -18 9 0 10 15 9 22 10 27 10 35 9 45 10 54 9 54"/>
<path stroke="#FFC0C5" d="M95 67l10 1 38 0 10 1 9 0 10 1 9 1 10 1 9 1 10 1 10 2 9 2 10 3 9 4 10 4 10 6 9 7 10 8 9 10 20 22 9 13 10 11 9 11 10 10 9 8 10 7 10 6 9 5 10 3 9 3 10 3 10 2 9 1 10 1 9 1 10 1 9 1 20 0 9 1 29 0 10 1 48 0 9 1 19 0 10 1"/>
<path stroke="#FFC0C5" d="M632 233l9 0 10 1 10 0 9 1 10 2 9 1 20 4 9 2 10 4 9 4 10 5 10 6 9 8 10 11 9 14 10 19 9 20 10 -1 10 -16 9 4 10 16 9 22 10 28 10 36 9 46 10 58 9 58"/>
<path stroke="#A52A2A" d="M95 68l38 0 10 1 19 0 10 1 9 1 10 1 9 1 20 4 9 2 10 3 9 4 10 5 10 6 9 7 10 9 9 10 10 11 10 12 9 12 10 12 9 10 10 9 9 8 10 7 10 5 9 5 10 3 9 3 20 4 9 1 10 2 9 0 10 1 9 1 10 0 10 1 38 0 10 1 48 0 9 1 19 0 10 1 9 0 10 1"/>
<path stroke="#A52A2A" d="M651 234l10 0 9 1 10 1 9 2 20 4 9 3 10 3 9 4 10 5 10 7 9 8 10 11 9 14 10 19 9 17 10 -5 10 -11 9 7 10 17 9 22 10 29 10 37 9 49 10 63 9 60"/>
<path stroke="#F0E68C" d="M95 68l38 0 10 1 10 0 9 1 10 0 9 1 10 1 9 1 20 4 9 3 10 3 9 4 10 5 10 7 9 7 10 9 9 10 20 24 9 12 10 11 9 10 10 9 9 8 10 6 10 5 9 5 10 3 9 3 10 2 10 1 9 2 10 1 9 1 10 0 9 1 10 0 10 1 38 0 10 1 48 0 9 1 19 0 10 1 9 0 10 1"/>
<path stroke="#F0E68C" d="M651 234l10 0 9 1 10 1 9 2 20 4 9 2 10 4 9 4 10 5 10 7 9 9 10 11 9 14 10 18 9 13 10 -7 10 -6 9 10 10 18 9 23 10 29 10 37 9 52 19 133"/>
<path stroke="#DDA0DD" d="M95 68l38 0 10 1 10 0 9 1 10 0 9 1 10 1 9 1 20 4 9 3 10 3 9 4 10 5 10 7 9 7 10 9 9 10 20 24 9 12 10 11 9 11 10 9 9 7 20 12 9 4 10 3 9 3 10 2 10 1 9 2 10 1 9 1 10 0 9 1 10 0 10 1 38 0 10 1 48 0 9 1 19 0 10 1 9 0 10 1"/>
<path stroke="#DDA0DD" d="M651 234l10 0 9 1 10 1 9 2 20 4 9 2 10 4 9 4 10 5 10 7 9 9 10 12 9 14 10 17 9 9 10 -8 10 -1 9 12 10 19 9 23 10 30 10 38 9 54 10 77 9 65"/>
<path stroke="#DA70D6" d="M95 68l38 0 10 1 19 0 10 1 9 1 10 1 9 1 20 4 9 2 10 4 9 4 10 5 10 6 9 7 10 9 9 10 10 11 10 12 9 12 10 12 9 10 10 10 9 7 10 7 10 5 9 4 10 4 9 2 10 3 10 1 9 2 10 1 9 1 10 0 9 1 10 0 10 1 38 0 10 1 48 0 9 1 19 0 10 1 9 0"/>
<path stroke="#DA70D6" d="M641 233l10 1 10 0 9 1 10 1 9 2 20 4 9 3 10 3 9 5 10 5 10 7 9 9 10 12 9 15 10 15 9 6 10 -5 10 3 9 14 10 19 9 25 10 31 10 40 9 59 10 89 9 56"/>
<path stroke="#EE82EE" d="M95 67l10 1 38 0 10 1 9 0 10 1 9 1 10 1 9 1 10 1 10 2 9 3 10 3 9 3 10 5 10 6 9 7 10 8 9 10 10 11 10 12 9 12 10 12 9 10 10 10 9 8 10 7 10 6 9 4 10 4 9 3 20 4 9 1 10 1 9 1 10 1 9 1 20 0 9 1 29 0 10 1 48 0 9 1 29 0 9 1"/>
<path stroke="#EE82EE" d="M641 233l10 1 10 0 9 1 10 1 9 2 20 4 9 3 10 3 9 5 10 5 10 8 9 9 10 12 9 13 10 13 9 4 10 -1 10 6 9 15 10 21 9 25 10 31 10 41 9 65 10 97 9 49"/>
<path stroke="#B03060" d="M95 67l10 1 38 0 10 1 9 0 10 1 9 1 10 0 9 2 10 1 10 2 9 2 10 3 9 4 10 4 10 6 9 6 10 8 9 10 20 22 9 12 10 12 9 11 19 19 10 7 10 5 9 5 10 4 9 3 20 4 9 2 10 1 9 1 10 1 9 1 20 0 9 1 29 0 10 1 48 0 9 1 19 0 10 1 9 0 10 1"/>
<path stroke="#B03060" d="M651 234l10 0 9 1 10 1 9 2 20 4 9 3 10 4 9 5 10 6 10 7 9 10 10 12 9 13 10 12 9 5 10 2 10 9 9 17 10 22 9 27 10 33 10 47 9 85 10 91 9 16"/>
<path stroke="#40E0D0" d="M95 67l10 1 38 0 10 1 19 0 9 1 10 1 9 1 10 1 10 2 9 2 10 2 9 3 10 4 10 5 9 6 10 8 9 8 10 10 10 12 9 12 10 12 9 11 10 11 9 9 10 8 10 6 9 6 10 4 9 3 10 3 10 2 9 2 10 2 9 1 10 1 9 0 10 1 10 0 9 1 29 0 10 1 48 0 9 1 19 0"/>
<path stroke="#40E0D0" d="M622 232l10 1 9 0 10 1 10 0 9 1 10 2 9 1 20 4 9 3 10 4 9 5 20 14 9 10 10 12 9 13 10 10 9 5 10 4 10 11 9 18 10 22 9 28 10 34 10 50 9 95 10 86 9 10"/>
<path stroke="#A0522D" d="M95 67l10 0 9 1 39 0 9 1 10 0 9 1 10 1 9 1 20 2 9 2 10 2 9 3 10 4 10 5 9 5 10 7 9 8 10 10 10 11 9 12 10 12 9 12 10 10 9 10 10 8 10 7 9 6 10 5 9 3 20 6 9 2 10 1 9 1 10 1 9 1 10 1 19 0 10 1 29 0 9 1 39 0 9 1 19 0 10 1"/>
<path stroke="#A0522D" d="M632 233l9 0 20 2 9 1 10 1 9 1 10 3 10 2 9 3 10 5 9 5 10 6 10 9 9 10 10 12 9 13 10 10 9 7 10 7 10 14 9 19 10 24 9 29 10 39 10 68 9 114 10 32 9 -8"/>
<path stroke="#FF7F50" d="M95 67l10 0 9 1 39 0 9 1 10 0 9 1 10 0 9 1 10 1 10 2 9 1 10 3 9 2 20 8 9 5 10 7 9 8 10 9 10 10 9 12 10 12 9 12 10 11 9 10 10 9 10 7 9 6 10 5 9 4 20 6 9 2 10 2 9 1 10 1 9 1 10 0 10 1 9 0 10 1 29 0 9 1 39 0 9 1 19 0 10 1"/>
<path stroke="#FF7F50" d="M632 233l9 0 20 2 9 1 10 1 9 2 10 2 10 3 9 3 10 4 9 6 10 7 10 8 9 11 10 12 9 12 10 10 9 8 10 10 10 15 9 20 10 26 9 31 10 43 10 87 9 102 10 10 9 -10"/>
<path stroke="cyan" d="M95 67l10 0 9 1 39 0 9 1 10 0 9 1 10 0 9 1 20 2 9 2 10 2 9 3 10 3 10 4 9 6 10 6 9 8 10 9 10 10 9 11 10 12 9 12 10 12 9 10 10 9 10 7 9 7 10 5 9 4 20 6 9 2 10 1 9 2 10 1 9 1 10 0 10 1 9 0 10 1 29 0 9 1 39 0 9 1 19 0 10 1"/>
<path stroke="cyan" d="M632 233l9 0 20 2 9 1 10 2 9 1 20 6 9 3 10 5 9 6 10 7 10 9 9 11 10 12 9 13 10 11 9 10 10 12 10 17 9 22 10 27 9 35 10 57 10 118 9 48 10 -16 9 -2"/>
<path stroke="magenta" d="M95 67l10 0 9 1 39 0 9 1 10 0 9 1 10 0 9 1 20 2 9 2 10 2 9 3 10 3 10 4 9 5 10 7 9 7 10 9 10 11 9 11 10 12 9 12 10 11 9 11 10 9 10 7 9 6 10 6 9 4 20 6 9 2 10 1 9 2 10 1 9 1 10 0 10 1 9 0 10 1 29 0 9 1 29 0 10 1 19 0 9 1"/>
<path stroke="magenta" d="M622 233l10 0 9 1 10 0 10 1 9 2 10 1 9 2 20 6 9 4 10 5 9 6 10 8 10 9 9 11 10 12 9 13 10 12 9 13 10 14 10 19 9 24 10 29 9 42 10 88 10 100 9 -2 10 -15 9 8"/>
<path stroke="#666" d="M95 67l10 0 9 1 39 0 9 1 10 0 9 1 10 0 9 1 10 1 10 2 9 1 10 3 9 2 20 8 9 5 10 7 9 8 10 9 10 11 9 11 10 12 9 12 10 11 9 10 10 9 10 7 9 7 10 4 9 4 10 4 10 2 9 2 10 2 9 1 10 1 9 1 10 0 10 1 9 0 10 1 19 0 10 1 38 0 10 1 19 0"/>
<path stroke="#666" d="M613 232l9 1 10 0 9 1 20 2 9 1 10 2 9 2 20 6 9 5 10 5 9 7 10 8 10 10 9 12 10 13 9 14 10 14 9 15 10 17 10 21 9 27 10 36 9 69 10 114 10 5 9 -22 10 7 9 20"/>
<path stroke="#949494" d="M95 67l10 0 9 1 39 0 9 1 10 0 9 1 10 1 9 1 20 2 9 2 10 2 9 3 10 4 10 5 9 5 10 7 9 8 10 10 10 11 9 12 10 12 9 12 10 11 9 9 10 9 10 6 9 6 10 5 9 3 20 6 9 2 10 1 9 1 10 1 9 1 10 1 10 0 9 1 29 0 10 1 38 0 10 1 19 0 9 1 10 1"/>
<path stroke="#949494" d="M632 234l9 0 10 1 10 2 9 1 10 2 9 2 10 3 10 4 9 5 10 6 9 7 10 9 10 11 9 12 10 14 9 15 10 16 9 17 10 20 10 23 9 31 10 52 9 114 10 36 10 -33 9 0 10 18 9 25"/>
<path stroke="#888" d="M95 67l10 1 38 0 10 1 9 0 10 1 9 0 10 1 9 1 10 1 10 2 9 2 10 3 9 3 10 4 10 5 9 6 10 8 19 19 10 12 9 12 10 12 9 11 19 19 10 8 10 6 9 5 10 5 9 3 10 3 10 2 9 1 10 2 9 1 10 1 9 0 10 1 10 0 9 1 19 0 10 1 38 0 10 1 19 0 10 1"/>
<path stroke="#888" d="M613 233l9 0 10 1 9 1 20 2 9 2 10 2 9 3 20 8 9 5 10 7 9 8 10 10 10 12 9 13 10 14 9 17 10 18 9 19 10 23 10 28 9 46 10 105 9 50 10 -44 10 -2 9 18 10 26 9 27"/>
<path stroke="red" d="M95 67l10 1 38 0 10 1 9 0 10 1 9 1 10 1 9 1 10 1 10 2 9 3 10 3 9 4 10 4 10 6 9 7 10 9 9 10 10 11 10 12 9 12 10 11 9 11 10 10 9 8 20 12 9 4 10 4 9 3 20 4 9 1 10 1 9 1 10 1 9 1 10 0 10 1 28 0 10 1 29 0 9 1 20 0 9 1 10 0 9 1"/>
<path stroke="red" d="M622 234l10 1 9 1 10 1 10 2 9 2 10 3 9 3 10 4 10 5 9 7 10 7 9 10 10 11 10 12 9 15 10 16 19 38 9 23 10 28 10 47 9 108 10 20 9 -50 10 5 10 22 9 26 10 29 9 32"/>
</svg>
