<?xml version="1.0" standalone="yes"?>
<!DOCTYPE svg PUBLIC "-//W3C//DTD SVG 1.1//EN"
 "http://www.w3.org/Graphics/SVG/1.1/DTD/svg11.dtd">
<svg xmlns="http://www.w3.org/2000/svg" version="1.1"
  width="100%" height="100%" viewBox="0 0 1024 768"
  style="fill: none; font-family: Arial;
 font: Arial;
">

<!-- Creator: NGspice -->

<rect x="0" y="0" width="1024" height="768" fill="white" stroke="none"/>
<text stroke="none" fill="black" font-size="16" x="358" y="752">
Frequency(Hz)
</text>
<text transform="rotate(-90, 20, 434)"  stroke="none" fill="black" font-size="16" x="20" y="434">
Phase(deg)
</text>
<text stroke="none" fill="black" font-size="16" x="10" y="16">
ac39: OTA_2stage Phase
</text>
<path stroke="black" d="M95 704l0 -636"/>
<text stroke="none" fill="black" font-size="16" x="90" y="728">
1
</text>
<path stroke="black" stroke-dasharray="1,2" d="M152 704l0 -636M168 704l0 -636M180 704l0 -636"/>
<path stroke="black" d="M190 704l0 -636"/>
<text stroke="none" fill="black" font-size="16" x="180" y="728">
10
</text>
<path stroke="black" stroke-dasharray="1,2" d="M247 704l0 -636M263 704l0 -636M275 704l0 -636"/>
<path stroke="black" d="M285 704l0 -636"/>
<text stroke="none" fill="black" font-size="16" x="270" y="728">
100
</text>
<path stroke="black" stroke-dasharray="1,2" d="M342 704l0 -636M358 704l0 -636M370 704l0 -636"/>
<path stroke="black" d="M380 704l0 -636"/>
<text stroke="none" fill="black" font-size="16" x="360" y="728">
10^3
</text>
<path stroke="black" stroke-dasharray="1,2" d="M437 704l0 -636M453 704l0 -636M465 704l0 -636"/>
<path stroke="black" d="M475 704l0 -636"/>
<text stroke="none" fill="black" font-size="16" x="455" y="728">
10^4
</text>
<path stroke="black" stroke-dasharray="1,2" d="M532 704l0 -636M548 704l0 -636M560 704l0 -636"/>
<path stroke="black" d="M570 704l0 -636"/>
<text stroke="none" fill="black" font-size="16" x="550" y="728">
10^5
</text>
<path stroke="black" stroke-dasharray="1,2" d="M627 704l0 -636M643 704l0 -636M655 704l0 -636"/>
<path stroke="black" d="M665 704l0 -636"/>
<text stroke="none" fill="black" font-size="16" x="645" y="728">
10^6
</text>
<path stroke="black" stroke-dasharray="1,2" d="M722 704l0 -636M738 704l0 -636M750 704l0 -636"/>
<path stroke="black" d="M760 704l0 -636"/>
<text stroke="none" fill="black" font-size="16" x="740" y="728">
10^7
</text>
<path stroke="black" stroke-dasharray="1,2" d="M817 704l0 -636M833 704l0 -636M845 704l0 -636"/>
<path stroke="black" d="M855 704l0 -636"/>
<text stroke="none" fill="black" font-size="16" x="835" y="728">
10^8
</text>
<path stroke="black" stroke-dasharray="1,2" d="M912 704l0 -636M928 704l0 -636M940 704l0 -636"/>
<path stroke="black" d="M950 704l0 -636"/>
<text stroke="none" fill="black" font-size="16" x="930" y="728">
10^9
</text>
<text stroke="none" fill="black" font-size="16" x="614" y="752">
Hz
</text>
<path stroke="black" stroke-dasharray="1,2" d="M95 704l855 0"/>
<text stroke="none" fill="black" font-size="16" x="33" y="712">
-240.0
</text>
<path stroke="black" stroke-dasharray="1,2" d="M95 651l855 0"/>
<text stroke="none" fill="black" font-size="16" x="33" y="659">
-220.0
</text>
<path stroke="black" stroke-dasharray="1,2" d="M95 598l855 0"/>
<text stroke="none" fill="black" font-size="16" x="33" y="606">
-200.0
</text>
<path stroke="black" stroke-dasharray="1,2" d="M95 545l855 0"/>
<text stroke="none" fill="black" font-size="16" x="33" y="553">
-180.0
</text>
<path stroke="black" stroke-dasharray="1,2" d="M95 492l855 0"/>
<text stroke="none" fill="black" font-size="16" x="33" y="500">
-160.0
</text>
<path stroke="black" stroke-dasharray="1,2" d="M95 439l855 0"/>
<text stroke="none" fill="black" font-size="16" x="33" y="447">
-140.0
</text>
<path stroke="black" stroke-dasharray="1,2" d="M95 386l855 0"/>
<text stroke="none" fill="black" font-size="16" x="33" y="394">
-120.0
</text>
<path stroke="black" stroke-dasharray="1,2" d="M95 333l855 0"/>
<text stroke="none" fill="black" font-size="16" x="33" y="341">
-100.0
</text>
<path stroke="black" stroke-dasharray="1,2" d="M95 280l855 0"/>
<text stroke="none" fill="black" font-size="16" x="43" y="288">
-80.0
</text>
<path stroke="black" stroke-dasharray="1,2" d="M95 227l855 0"/>
<text stroke="none" fill="black" font-size="16" x="43" y="235">
-60.0
</text>
<path stroke="black" stroke-dasharray="1,2" d="M95 174l855 0"/>
<text stroke="none" fill="black" font-size="16" x="43" y="182">
-40.0
</text>
<path stroke="black" stroke-dasharray="1,2" d="M95 121l855 0"/>
<text stroke="none" fill="black" font-size="16" x="43" y="129">
-20.0
</text>
<path stroke="black" d="M95 68l855 0"/>
<text stroke="none" fill="black" font-size="16" x="53" y="76">
-0.0
</text>
<text stroke="none" fill="black" font-size="16" x="10" y="32">
     
</text>
<path stroke="red" d="M427 23l42 0"/>
<text stroke="none" fill="black" font-size="16" x="479" y="32">
(ac20.phase)
</text>
<path stroke="red" d="M95 68l288 0 9 1 39 0 9 1 10 0 9 1 10 0 9 1 20 2 9 2 10 2 9 3 10 3 10 4 9 6 10 6 9 8 10 10 10 12 9 14 10 16 9 17 10 18 9 17 10 17 10 14 9 13 10 11 9 9 10 8 10 7 9 6 10 6 9 5 10 5 10 6 9 6 10 8 19 19 9 13 10 15 10 19 9 22"/>
<path stroke="red" d="M833 421l10 25 9 29 10 30 10 31 9 30 10 27 9 24"/>
<path stroke="blue" d="M95 23l42 0"/>
<text stroke="none" fill="black" font-size="16" x="147" y="32">
(ac21.phase)
</text>
<path stroke="blue" d="M95 68l288 0 9 1 39 0 9 1 10 0 9 1 10 0 9 1 10 1 10 2 9 1 10 3 9 2 20 8 9 6 10 7 9 8 10 10 10 12 9 15 10 16 9 17 10 18 9 17 10 16 10 15 9 12 10 11 9 9 20 14 9 6 10 5 9 6 10 5 10 6 9 7 10 7 9 9 10 11 9 14 10 16 10 19 9 22"/>
<path stroke="blue" d="M833 425l10 26 9 29 20 60 9 29 10 27 9 23"/>
<path stroke="#FFA500" d="M427 39l42 0"/>
<text stroke="none" fill="black" font-size="16" x="479" y="48">
(ac22.phase)
</text>
<path stroke="#FFA500" d="M95 68l288 0 9 1 39 0 9 1 10 0 9 1 10 1 9 0 10 2 10 1 9 2 10 2 9 3 20 8 9 6 10 7 19 19 10 13 9 15 10 16 9 17 10 18 9 17 10 16 10 14 9 12 10 11 9 8 10 8 10 6 9 6 10 5 9 6 10 5 10 6 9 7 10 8 9 9 10 12 9 13 10 17 10 19"/>
<path stroke="#FFA500" d="M824 406l9 24 10 26 9 28 10 31 10 29 9 29 10 25 9 22"/>
<path stroke="green" d="M95 39l42 0"/>
<text stroke="none" fill="black" font-size="16" x="147" y="48">
(ac23.phase)
</text>
<path stroke="green" d="M95 68l278 0 10 1 48 0 9 1 10 0 9 1 10 1 9 1 20 2 9 2 10 3 9 3 20 8 9 6 10 8 9 9 10 11 10 13 9 15 10 17 9 17 10 18 9 17 10 15 10 14 9 12 10 10 9 8 20 14 9 5 10 6 9 5 10 5 10 6 9 7 10 8 9 10 10 12 9 14 10 17 10 20 9 24"/>
<path stroke="green" d="M833 434l10 26 9 29 10 30 10 29 9 28 10 24 9 21"/>
<path stroke="#FFC0C5" d="M427 55l42 0"/>
<text stroke="none" fill="black" font-size="16" x="479" y="64">
(ac24.phase)
</text>
<path stroke="#FFC0C5" d="M95 68l278 0 10 1 38 0 10 1 19 0 9 1 10 1 9 1 10 1 10 2 9 2 10 2 9 4 10 4 10 5 9 6 10 8 9 9 10 12 10 13 9 16 10 17 9 18 10 17 9 17 10 15 10 13 9 11 10 10 9 8 10 7 10 6 9 5 10 6 9 5 20 12 9 7 10 8 9 10 10 12 9 15 10 17"/>
<path stroke="#FFC0C5" d="M814 393l10 21 9 24 10 27 9 29 20 58 9 27 10 23 9 21"/>
<path stroke="#A52A2A" d="M95 55l42 0"/>
<text stroke="none" fill="black" font-size="16" x="147" y="64">
(ac25.phase)
</text>
<path stroke="#A52A2A" d="M95 68l278 0 10 1 38 0 10 1 9 0 10 1 9 0 10 1 9 1 10 2 10 1 9 2 10 3 9 4 10 4 10 5 9 7 10 8 9 10 10 12 10 14 9 16 10 18 9 17 10 18 9 16 10 15 10 12 9 11 10 9 9 8 20 12 9 6 10 5 9 5 20 12 9 7 10 9 9 10 10 13 9 15 10 18"/>
<path stroke="#A52A2A" d="M814 397l10 21 9 25 10 27 9 29 10 29 10 28 9 26 10 23 9 19"/>
<path stroke="#F0E68C" d="M427 71l42 0"/>
<text stroke="none" fill="black" font-size="16" x="479" y="80">
(ac26.phase)
</text>
<path stroke="#F0E68C" d="M95 68l278 0 10 1 38 0 10 1 9 0 10 1 9 1 10 0 9 2 10 1 10 2 9 2 10 3 9 4 10 4 10 6 9 7 10 9 9 11 10 12 10 15 9 16 10 18 9 18 10 17 9 16 10 14 10 12 9 10 10 8 9 8 20 12 9 5 10 5 9 5 20 12 9 8 10 9 9 10 10 13 9 16 10 19"/>
<path stroke="#F0E68C" d="M814 401l10 22 9 24 10 28 9 29 10 29 10 27 9 25 10 22 9 19"/>
<path stroke="#DDA0DD" d="M95 71l42 0"/>
<text stroke="none" fill="black" font-size="16" x="147" y="80">
(ac27.phase)
</text>
<path stroke="#DDA0DD" d="M95 68l268 0 10 1 38 0 10 1 19 0 10 1 9 1 10 1 9 1 20 4 9 2 10 3 9 4 10 5 10 6 9 8 10 9 9 12 10 13 10 15 9 17 10 18 9 17 10 17 9 15 10 14 10 11 9 10 10 8 9 7 10 6 10 5 9 5 10 5 9 6 10 5 10 7 9 8 10 9 9 11 10 13 9 16"/>
<path stroke="#DDA0DD" d="M804 385l10 20 10 22 9 25 10 28 9 29 10 29 10 27 9 24 10 21 9 19"/>
<path stroke="#DA70D6" d="M427 87l42 0"/>
<text stroke="none" fill="black" font-size="16" x="479" y="96">
(ac28.phase)
</text>
<path stroke="#DA70D6" d="M95 68l268 0 10 1 38 0 10 1 10 0 9 1 10 0 9 1 10 1 9 2 10 1 10 2 9 3 10 4 9 4 10 5 10 7 9 8 10 10 9 12 10 14 10 16 9 17 10 18 9 17 10 16 9 15 10 13 19 19 10 8 9 7 10 5 10 6 9 5 10 5 9 5 10 6 10 7 9 7 10 10 9 11 10 14"/>
<path stroke="#DA70D6" d="M795 372l9 17 10 20 10 23 9 26 10 28 9 29 10 28 10 26 9 24 19 38"/>
<path stroke="#EE82EE" d="M95 87l42 0"/>
<text stroke="none" fill="black" font-size="16" x="147" y="96">
(ac29.phase)
</text>
<path stroke="#EE82EE" d="M95 68l268 0 10 1 38 0 10 1 10 0 9 1 10 1 9 1 10 1 9 1 20 4 9 3 10 4 9 5 10 5 10 8 9 8 10 11 9 13 10 14 10 17 9 17 10 18 9 17 10 16 9 14 10 12 10 10 9 8 10 7 9 7 20 10 9 5 10 5 9 5 10 6 10 7 9 8 10 10 9 12 10 15 9 17"/>
<path stroke="#EE82EE" d="M804 393l10 21 10 23 9 27 10 28 9 28 10 28 10 26 9 23 10 20 9 17"/>
<path stroke="#B03060" d="M427 103l42 0"/>
<text stroke="none" fill="black" font-size="16" x="479" y="112">
(ac30.phase)
</text>
<path stroke="#B03060" d="M95 68l259 0 9 1 39 0 9 1 20 0 9 1 10 1 9 1 10 1 9 2 20 4 9 4 10 4 9 5 10 6 10 8 9 9 10 12 9 13 10 16 10 17 9 17 10 18 9 17 10 14 9 14 10 11 10 9 9 8 10 7 9 6 20 10 9 5 10 5 9 5 10 6 10 7 19 19 9 12 10 15 9 18 10 22"/>
<path stroke="#B03060" d="M814 419l10 24 9 27 10 28 9 29 10 27 10 25 9 22 10 20 9 16"/>
<path stroke="#40E0D0" d="M95 103l42 0"/>
<text stroke="none" fill="black" font-size="16" x="147" y="112">
(ac31.phase)
</text>
<path stroke="#40E0D0" d="M95 68l259 0 9 1 39 0 9 1 10 0 10 1 9 0 10 1 9 1 10 2 9 2 10 2 10 3 9 3 10 5 9 5 10 7 10 8 9 11 10 12 9 14 20 34 9 18 10 17 9 16 10 14 9 12 10 11 10 8 9 8 10 6 9 6 10 5 10 4 9 5 10 5 9 6 10 6 10 7 9 9 10 11 9 13 10 16"/>
<path stroke="#40E0D0" d="M795 384l9 18 10 22 10 25 9 27 10 29 9 28 10 27 10 25 9 21 10 18 9 17"/>
<path stroke="#A0522D" d="M427 119l42 0"/>
<text stroke="none" fill="black" font-size="16" x="479" y="128">
(ac32.phase)
</text>
<path stroke="#A0522D" d="M95 68l249 0 10 1 38 0 10 1 19 0 10 1 9 1 10 1 9 1 10 2 9 2 10 2 10 3 9 4 10 5 9 6 10 8 10 9 9 11 10 13 9 16 10 16 10 18 9 18 10 16 9 15 10 14 9 11 10 10 10 8 9 7 10 5 9 6 10 4 10 5 9 5 10 5 9 5 20 14 9 10 10 11 9 14"/>
<path stroke="#A0522D" d="M785 372l10 16 9 20 10 22 10 26 9 28 10 28 9 28 10 27 10 23 9 21 10 18 9 16"/>
<path stroke="#FF7F50" d="M95 119l42 0"/>
<text stroke="none" fill="black" font-size="16" x="147" y="128">
(ac33.phase)
</text>
<path stroke="#FF7F50" d="M95 68l249 0 10 1 38 0 10 1 9 0 10 1 10 0 9 1 10 1 9 2 10 1 9 3 10 2 10 4 9 4 10 6 9 6 10 9 10 10 9 12 10 14 9 16 10 18 10 17 9 18 10 16 9 14 10 12 9 11 10 9 10 7 9 6 10 6 9 5 10 4 10 5 9 4 10 5 9 6 10 7 10 8 9 10 10 12"/>
<path stroke="#FF7F50" d="M776 362l9 14 10 17 9 21 10 23 10 27 9 28 10 28 9 28 10 26 10 22 9 20 10 17 9 16"/>
<path stroke="cyan" d="M427 135l42 0"/>
<text stroke="none" fill="black" font-size="16" x="479" y="144">
(ac34.phase)
</text>
<path stroke="cyan" d="M95 68l240 0 9 1 39 0 9 1 19 0 20 2 9 1 10 1 9 2 10 2 9 2 10 3 10 4 9 5 10 6 9 8 10 9 10 11 9 13 10 16 9 16 20 36 9 16 10 16 9 13 10 11 9 10 10 8 10 6 9 6 10 5 9 5 20 8 9 5 10 5 9 6 10 7 10 9 9 10 10 13 9 15 10 18 9 22"/>
<path stroke="cyan" d="M804 421l10 24 10 27 9 28 10 29 9 27 10 25 10 21 9 19 10 17 9 16"/>
<path stroke="magenta" d="M95 135l42 0"/>
<text stroke="none" fill="black" font-size="16" x="147" y="144">
(ac35.phase)
</text>
<path stroke="magenta" d="M95 68l240 0 9 1 39 0 9 1 10 0 9 1 10 0 10 1 9 1 10 2 9 2 10 2 9 3 10 3 10 5 9 5 10 7 19 19 10 13 9 14 10 16 9 18 10 17 10 18 9 15 10 14 9 12 10 11 9 8 10 7 10 6 9 6 10 4 9 5 20 8 9 5 10 5 9 7 10 7 10 9 9 11 10 14 9 16"/>
<path stroke="magenta" d="M785 387l10 19 9 22 10 26 10 27 9 29 10 28 9 26 10 24 10 21 9 18 10 16 9 17"/>
<path stroke="#666" d="M427 151l42 0"/>
<text stroke="none" fill="black" font-size="16" x="479" y="160">
(ac36.phase)
</text>
<path stroke="#666" d="M95 68l230 0 10 1 38 0 10 1 9 0 10 1 9 0 20 2 9 1 10 2 9 2 10 3 9 3 10 4 10 5 9 7 10 8 9 9 10 12 10 14 9 15 10 17 9 18 10 18 10 16 9 15 10 12 9 11 10 9 9 8 20 12 9 4 10 5 9 4 20 8 9 5 10 6 9 6 10 8 10 10 9 12 10 14 9 17"/>
<path stroke="#666" d="M785 393l10 21 9 23 10 26 10 28 9 29 10 28 9 25 10 23 10 20 9 17 10 16 9 17"/>
<path stroke="#949494" d="M95 151l42 0"/>
<text stroke="none" fill="black" font-size="16" x="147" y="160">
(ac37.phase)
</text>
<path stroke="#949494" d="M95 68l221 0 9 1 38 0 10 1 19 0 10 1 9 1 20 2 9 2 10 1 9 3 10 3 9 4 10 5 10 6 9 7 10 10 9 11 10 13 10 15 9 17 10 17 9 18 10 17 10 15 9 13 10 11 9 10 10 8 9 6 10 6 10 5 9 4 10 4 9 4 10 4 10 5 9 5 10 6 9 7 10 8 10 11 9 12"/>
<path stroke="#949494" d="M766 367l10 16 9 18 10 22 9 24 20 56 9 28 10 27 9 25 10 21 10 19 9 17 10 17 9 18"/>
<path stroke="#888" d="M427 167l42 0"/>
<text stroke="none" fill="black" font-size="16" x="479" y="176">
(ac38.phase)
</text>
<path stroke="#888" d="M95 68l221 0 9 1 38 0 10 1 10 0 9 1 10 1 9 1 20 2 9 2 10 3 9 2 10 4 9 5 10 6 10 7 9 9 10 11 9 13 10 15 10 16 9 18 10 17 9 17 10 15 10 14 9 12 10 9 9 8 10 7 9 6 10 5 10 4 9 4 10 4 9 3 10 5 10 4 9 5 10 7 9 7 10 10 10 11 9 14"/>
<path stroke="#888" d="M766 374l10 17 9 20 10 23 9 25 10 28 10 29 9 28 10 26 9 23 10 21 10 17 9 17 10 18 9 19"/>
<path stroke="red" d="M95 167l42 0"/>
<text stroke="none" fill="black" font-size="16" x="147" y="176">
(ac39.phase)
</text>
<path stroke="red" d="M95 68l211 0 10 1 38 0 9 1 10 0 10 1 9 1 10 1 9 1 10 1 10 2 9 2 10 3 9 4 10 5 9 6 10 7 10 9 9 11 10 13 9 14 20 34 9 18 10 17 9 15 10 14 10 11 9 10 10 8 9 7 10 5 9 5 20 8 9 4 10 3 9 4 10 4 10 5 9 6 10 7 9 8 10 10 10 13 9 15"/>
<path stroke="red" d="M766 382l10 19 9 21 10 25 9 27 10 28 10 29 9 27 10 25 9 22 10 19 10 17 9 17 10 19 9 22"/>
</svg>
