<?xml version="1.0" standalone="yes"?>
<!DOCTYPE svg PUBLIC "-//W3C//DTD SVG 1.1//EN"
 "http://www.w3.org/Graphics/SVG/1.1/DTD/svg11.dtd">
<svg xmlns="http://www.w3.org/2000/svg" version="1.1"
  width="100%" height="100%" viewBox="0 0 1024 768"
  style="fill: none; font-family: Arial;
 font: Arial;
">

<!-- Creator: NGspice -->

<rect x="0" y="0" width="1024" height="768" fill="white" stroke="none"/>
<text stroke="none" fill="black" font-size="16" x="358" y="752">
Power(mW)
</text>
<text transform="rotate(-90, 20, 444)"  stroke="none" fill="black" font-size="16" x="20" y="444">
Phase_margin
</text>
<text stroke="none" fill="black" font-size="16" x="10" y="16">
ac1: OTA_2stage_PM_vs_Power
</text>
<path stroke="black" stroke-dasharray="1,2" d="M75 704l0 -640"/>
<text stroke="none" fill="black" font-size="16" x="55" y="728">
1.55
</text>
<path stroke="black" stroke-dasharray="1,2" d="M203 704l0 -640"/>
<text stroke="none" fill="black" font-size="16" x="183" y="728">
1.60
</text>
<path stroke="black" stroke-dasharray="1,2" d="M331 704l0 -640"/>
<text stroke="none" fill="black" font-size="16" x="311" y="728">
1.65
</text>
<path stroke="black" stroke-dasharray="1,2" d="M459 704l0 -640"/>
<text stroke="none" fill="black" font-size="16" x="439" y="728">
1.70
</text>
<path stroke="black" stroke-dasharray="1,2" d="M587 704l0 -640"/>
<text stroke="none" fill="black" font-size="16" x="567" y="728">
1.75
</text>
<path stroke="black" stroke-dasharray="1,2" d="M715 704l0 -640"/>
<text stroke="none" fill="black" font-size="16" x="695" y="728">
1.80
</text>
<path stroke="black" stroke-dasharray="1,2" d="M843 704l0 -640"/>
<text stroke="none" fill="black" font-size="16" x="823" y="728">
1.85
</text>
<path stroke="black" stroke-dasharray="1,2" d="M971 704l0 -640"/>
<text stroke="none" fill="black" font-size="16" x="951" y="728">
1.90
</text>
<text stroke="none" fill="black" font-size="16" x="614" y="752">
     
</text>
<path stroke="black" stroke-dasharray="1,2" d="M75 704l896 0"/>
<text stroke="none" fill="black" font-size="16" x="33" y="712">
-1.0
</text>
<path stroke="black" stroke-dasharray="1,2" d="M75 640l896 0"/>
<text stroke="none" fill="black" font-size="16" x="33" y="648">
-0.8
</text>
<path stroke="black" stroke-dasharray="1,2" d="M75 576l896 0"/>
<text stroke="none" fill="black" font-size="16" x="33" y="584">
-0.6
</text>
<path stroke="black" stroke-dasharray="1,2" d="M75 512l896 0"/>
<text stroke="none" fill="black" font-size="16" x="33" y="520">
-0.4
</text>
<path stroke="black" stroke-dasharray="1,2" d="M75 448l896 0"/>
<text stroke="none" fill="black" font-size="16" x="33" y="456">
-0.2
</text>
<path stroke="black" d="M75 384l896 0"/>
<text stroke="none" fill="black" font-size="16" x="43" y="392">
0.0
</text>
<path stroke="black" stroke-dasharray="1,2" d="M75 320l896 0"/>
<text stroke="none" fill="black" font-size="16" x="43" y="328">
0.2
</text>
<path stroke="black" stroke-dasharray="1,2" d="M75 256l896 0"/>
<text stroke="none" fill="black" font-size="16" x="43" y="264">
0.4
</text>
<path stroke="black" stroke-dasharray="1,2" d="M75 192l896 0"/>
<text stroke="none" fill="black" font-size="16" x="43" y="200">
0.6
</text>
<path stroke="black" stroke-dasharray="1,2" d="M75 128l896 0"/>
<text stroke="none" fill="black" font-size="16" x="43" y="136">
0.8
</text>
<path stroke="black" stroke-dasharray="1,2" d="M75 64l896 0"/>
<text stroke="none" fill="black" font-size="16" x="43" y="72">
1.0
</text>
<text stroke="none" fill="black" font-size="16" x="10" y="32">
     
</text>
</svg>
