<?xml version="1.0" standalone="yes"?>
<!DOCTYPE svg PUBLIC "-//W3C//DTD SVG 1.1//EN"
 "http://www.w3.org/Graphics/SVG/1.1/DTD/svg11.dtd">
<svg xmlns="http://www.w3.org/2000/svg" version="1.1"
  width="100%" height="100%" viewBox="0 0 1024 768"
  style="fill: none; font-family: Arial;
 font: Arial;
">

<!-- Creator: NGspice -->

<rect x="0" y="0" width="1024" height="768" fill="white" stroke="none"/>
<text stroke="none" fill="black" font-size="16" x="358" y="752">
Power(mW)
</text>
<text transform="rotate(-90, 20, 444)"  stroke="none" fill="black" font-size="16" x="20" y="444">
Phase_margin
</text>
<text stroke="none" fill="black" font-size="16" x="10" y="16">
ac39: OTA_2stage_PM_vs_Power
</text>
<path stroke="black" stroke-dasharray="1,2" d="M85 704l0 -636"/>
<text stroke="none" fill="black" font-size="16" x="70" y="728">
1.0
</text>
<path stroke="black" stroke-dasharray="1,2" d="M164 704l0 -636"/>
<text stroke="none" fill="black" font-size="16" x="149" y="728">
2.0
</text>
<path stroke="black" stroke-dasharray="1,2" d="M243 704l0 -636"/>
<text stroke="none" fill="black" font-size="16" x="228" y="728">
3.0
</text>
<path stroke="black" stroke-dasharray="1,2" d="M322 704l0 -636"/>
<text stroke="none" fill="black" font-size="16" x="307" y="728">
4.0
</text>
<path stroke="black" stroke-dasharray="1,2" d="M401 704l0 -636"/>
<text stroke="none" fill="black" font-size="16" x="386" y="728">
5.0
</text>
<path stroke="black" stroke-dasharray="1,2" d="M480 704l0 -636"/>
<text stroke="none" fill="black" font-size="16" x="465" y="728">
6.0
</text>
<path stroke="black" stroke-dasharray="1,2" d="M559 704l0 -636"/>
<text stroke="none" fill="black" font-size="16" x="544" y="728">
7.0
</text>
<path stroke="black" stroke-dasharray="1,2" d="M638 704l0 -636"/>
<text stroke="none" fill="black" font-size="16" x="623" y="728">
8.0
</text>
<path stroke="black" stroke-dasharray="1,2" d="M717 704l0 -636"/>
<text stroke="none" fill="black" font-size="16" x="702" y="728">
9.0
</text>
<path stroke="black" stroke-dasharray="1,2" d="M796 704l0 -636"/>
<text stroke="none" fill="black" font-size="16" x="776" y="728">
10.0
</text>
<path stroke="black" stroke-dasharray="1,2" d="M875 704l0 -636"/>
<text stroke="none" fill="black" font-size="16" x="855" y="728">
11.0
</text>
<path stroke="black" stroke-dasharray="1,2" d="M954 704l0 -636"/>
<text stroke="none" fill="black" font-size="16" x="934" y="728">
12.0
</text>
<text stroke="none" fill="black" font-size="16" x="614" y="752">
m     
</text>
<path stroke="black" stroke-dasharray="1,2" d="M85 704l869 0"/>
<text stroke="none" fill="black" font-size="16" x="43" y="712">
35.0
</text>
<path stroke="black" stroke-dasharray="1,2" d="M85 598l869 0"/>
<text stroke="none" fill="black" font-size="16" x="43" y="606">
40.0
</text>
<path stroke="black" stroke-dasharray="1,2" d="M85 492l869 0"/>
<text stroke="none" fill="black" font-size="16" x="43" y="500">
45.0
</text>
<path stroke="black" stroke-dasharray="1,2" d="M85 386l869 0"/>
<text stroke="none" fill="black" font-size="16" x="43" y="394">
50.0
</text>
<path stroke="black" stroke-dasharray="1,2" d="M85 280l869 0"/>
<text stroke="none" fill="black" font-size="16" x="43" y="288">
55.0
</text>
<path stroke="black" stroke-dasharray="1,2" d="M85 174l869 0"/>
<text stroke="none" fill="black" font-size="16" x="43" y="182">
60.0
</text>
<path stroke="black" stroke-dasharray="1,2" d="M85 68l869 0"/>
<text stroke="none" fill="black" font-size="16" x="43" y="76">
65.0
</text>
<text stroke="none" fill="black" font-size="16" x="10" y="32">
     
</text>
<path stroke="red" d="M872 659l49 25M841 637l31 22M800 609l41 28M744 581l56 28M718 557l26 24M658 532l60 25M619 491l39 41M571 457l48 34M520 415l51 42M458 403l62 12M428 367l30 36M382 351l46 16M340 313l42 38M274 284l66 29M260 245l14 39M198 214l62 31"/>
<path stroke="red" d="M164 170l34 44M132 128l32 42M103 93l29 35"/>
</svg>
