<?xml version="1.0" standalone="yes"?>
<!DOCTYPE svg PUBLIC "-//W3C//DTD SVG 1.1//EN"
 "http://www.w3.org/Graphics/SVG/1.1/DTD/svg11.dtd">
<svg xmlns="http://www.w3.org/2000/svg" version="1.1"
  width="100%" height="100%" viewBox="0 0 1024 768"
  style="fill: none; font-family: Arial;
 font: Arial;
">

<!-- Creator: NGspice -->

<rect x="0" y="0" width="1024" height="768" fill="white" stroke="none"/>
<text stroke="none" fill="black" font-size="16" x="358" y="752">
Power(mW)
</text>
<text transform="rotate(-90, 20, 444)"  stroke="none" fill="black" font-size="16" x="20" y="444">
Phase_margin
</text>
<text stroke="none" fill="black" font-size="16" x="10" y="16">
ac1: OTA_2stage_PM_vs_Power
</text>
<path stroke="black" stroke-dasharray="1,2" d="M85 704l0 -640"/>
<text stroke="none" fill="black" font-size="16" x="65" y="728">
0.94
</text>
<path stroke="black" stroke-dasharray="1,2" d="M152 704l0 -640"/>
<text stroke="none" fill="black" font-size="16" x="132" y="728">
0.96
</text>
<path stroke="black" stroke-dasharray="1,2" d="M219 704l0 -640"/>
<text stroke="none" fill="black" font-size="16" x="199" y="728">
0.98
</text>
<path stroke="black" stroke-dasharray="1,2" d="M286 704l0 -640"/>
<text stroke="none" fill="black" font-size="16" x="266" y="728">
1.00
</text>
<path stroke="black" stroke-dasharray="1,2" d="M353 704l0 -640"/>
<text stroke="none" fill="black" font-size="16" x="333" y="728">
1.02
</text>
<path stroke="black" stroke-dasharray="1,2" d="M420 704l0 -640"/>
<text stroke="none" fill="black" font-size="16" x="400" y="728">
1.04
</text>
<path stroke="black" stroke-dasharray="1,2" d="M487 704l0 -640"/>
<text stroke="none" fill="black" font-size="16" x="467" y="728">
1.06
</text>
<path stroke="black" stroke-dasharray="1,2" d="M554 704l0 -640"/>
<text stroke="none" fill="black" font-size="16" x="534" y="728">
1.08
</text>
<path stroke="black" stroke-dasharray="1,2" d="M621 704l0 -640"/>
<text stroke="none" fill="black" font-size="16" x="601" y="728">
1.10
</text>
<path stroke="black" stroke-dasharray="1,2" d="M688 704l0 -640"/>
<text stroke="none" fill="black" font-size="16" x="668" y="728">
1.12
</text>
<path stroke="black" stroke-dasharray="1,2" d="M755 704l0 -640"/>
<text stroke="none" fill="black" font-size="16" x="735" y="728">
1.14
</text>
<path stroke="black" stroke-dasharray="1,2" d="M822 704l0 -640"/>
<text stroke="none" fill="black" font-size="16" x="802" y="728">
1.16
</text>
<path stroke="black" stroke-dasharray="1,2" d="M889 704l0 -640"/>
<text stroke="none" fill="black" font-size="16" x="869" y="728">
1.18
</text>
<path stroke="black" stroke-dasharray="1,2" d="M956 704l0 -640"/>
<text stroke="none" fill="black" font-size="16" x="936" y="728">
1.20
</text>
<text stroke="none" fill="black" font-size="16" x="614" y="752">
m     
</text>
<path stroke="black" stroke-dasharray="1,2" d="M85 704l871 0"/>
<text stroke="none" fill="black" font-size="16" x="43" y="712">
62.0
</text>
<path stroke="black" stroke-dasharray="1,2" d="M85 624l871 0"/>
<text stroke="none" fill="black" font-size="16" x="43" y="632">
64.0
</text>
<path stroke="black" stroke-dasharray="1,2" d="M85 544l871 0"/>
<text stroke="none" fill="black" font-size="16" x="43" y="552">
66.0
</text>
<path stroke="black" stroke-dasharray="1,2" d="M85 464l871 0"/>
<text stroke="none" fill="black" font-size="16" x="43" y="472">
68.0
</text>
<path stroke="black" stroke-dasharray="1,2" d="M85 384l871 0"/>
<text stroke="none" fill="black" font-size="16" x="43" y="392">
70.0
</text>
<path stroke="black" stroke-dasharray="1,2" d="M85 304l871 0"/>
<text stroke="none" fill="black" font-size="16" x="43" y="312">
72.0
</text>
<path stroke="black" stroke-dasharray="1,2" d="M85 224l871 0"/>
<text stroke="none" fill="black" font-size="16" x="43" y="232">
74.0
</text>
<path stroke="black" stroke-dasharray="1,2" d="M85 144l871 0"/>
<text stroke="none" fill="black" font-size="16" x="43" y="152">
76.0
</text>
<path stroke="black" stroke-dasharray="1,2" d="M85 64l871 0"/>
<text stroke="none" fill="black" font-size="16" x="43" y="72">
78.0
</text>
<text stroke="none" fill="black" font-size="16" x="10" y="32">
     
</text>
<path stroke="red" d="M435 23l43 0"/>
<text stroke="none" fill="black" font-size="16" x="488" y="32">
phase_margins
</text>
</svg>
