<?xml version="1.0" standalone="yes"?>
<!DOCTYPE svg PUBLIC "-//W3C//DTD SVG 1.1//EN"
 "http://www.w3.org/Graphics/SVG/1.1/DTD/svg11.dtd">
<svg xmlns="http://www.w3.org/2000/svg" version="1.1"
  width="100%" height="100%" viewBox="0 0 1024 768"
  style="fill: none; font-family: Arial;
 font: Arial;
">

<!-- Creator: NGspice -->

<rect x="0" y="0" width="1024" height="768" fill="white" stroke="none"/>
<text stroke="none" fill="black" font-size="16" x="358" y="752">
Time(ns)
</text>
<text transform="rotate(-90, 20, 414)"  stroke="none" fill="black" font-size="16" x="20" y="414">
Output
</text>
<text stroke="none" fill="black" font-size="16" x="10" y="16">
tran1: OTA_2stage Transient Plot
</text>
<path stroke="black" d="M95 704l0 -640"/>
<text stroke="none" fill="black" font-size="16" x="80" y="728">
0.0
</text>
<path stroke="black" stroke-dasharray="1,2" d="M180 704l0 -640"/>
<text stroke="none" fill="black" font-size="16" x="160" y="728">
10.0
</text>
<path stroke="black" stroke-dasharray="1,2" d="M265 704l0 -640"/>
<text stroke="none" fill="black" font-size="16" x="245" y="728">
20.0
</text>
<path stroke="black" stroke-dasharray="1,2" d="M350 704l0 -640"/>
<text stroke="none" fill="black" font-size="16" x="330" y="728">
30.0
</text>
<path stroke="black" stroke-dasharray="1,2" d="M435 704l0 -640"/>
<text stroke="none" fill="black" font-size="16" x="415" y="728">
40.0
</text>
<path stroke="black" stroke-dasharray="1,2" d="M520 704l0 -640"/>
<text stroke="none" fill="black" font-size="16" x="500" y="728">
50.0
</text>
<path stroke="black" stroke-dasharray="1,2" d="M605 704l0 -640"/>
<text stroke="none" fill="black" font-size="16" x="585" y="728">
60.0
</text>
<path stroke="black" stroke-dasharray="1,2" d="M690 704l0 -640"/>
<text stroke="none" fill="black" font-size="16" x="670" y="728">
70.0
</text>
<path stroke="black" stroke-dasharray="1,2" d="M775 704l0 -640"/>
<text stroke="none" fill="black" font-size="16" x="755" y="728">
80.0
</text>
<path stroke="black" stroke-dasharray="1,2" d="M860 704l0 -640"/>
<text stroke="none" fill="black" font-size="16" x="840" y="728">
90.0
</text>
<path stroke="black" stroke-dasharray="1,2" d="M945 704l0 -640"/>
<text stroke="none" fill="black" font-size="16" x="920" y="728">
100.0
</text>
<text stroke="none" fill="black" font-size="16" x="614" y="752">
us
</text>
<path stroke="black" stroke-dasharray="1,2" d="M95 704l850 0"/>
<text stroke="none" fill="black" font-size="16" x="43" y="712">
1.142
</text>
<path stroke="black" stroke-dasharray="1,2" d="M95 640l850 0"/>
<text stroke="none" fill="black" font-size="16" x="43" y="648">
1.144
</text>
<path stroke="black" stroke-dasharray="1,2" d="M95 576l850 0"/>
<text stroke="none" fill="black" font-size="16" x="43" y="584">
1.146
</text>
<path stroke="black" stroke-dasharray="1,2" d="M95 512l850 0"/>
<text stroke="none" fill="black" font-size="16" x="43" y="520">
1.148
</text>
<path stroke="black" stroke-dasharray="1,2" d="M95 448l850 0"/>
<text stroke="none" fill="black" font-size="16" x="43" y="456">
1.150
</text>
<path stroke="black" stroke-dasharray="1,2" d="M95 384l850 0"/>
<text stroke="none" fill="black" font-size="16" x="43" y="392">
1.152
</text>
<path stroke="black" stroke-dasharray="1,2" d="M95 320l850 0"/>
<text stroke="none" fill="black" font-size="16" x="43" y="328">
1.154
</text>
<path stroke="black" stroke-dasharray="1,2" d="M95 256l850 0"/>
<text stroke="none" fill="black" font-size="16" x="43" y="264">
1.156
</text>
<path stroke="black" stroke-dasharray="1,2" d="M95 192l850 0"/>
<text stroke="none" fill="black" font-size="16" x="43" y="200">
1.158
</text>
<path stroke="black" stroke-dasharray="1,2" d="M95 128l850 0"/>
<text stroke="none" fill="black" font-size="16" x="43" y="136">
1.160
</text>
<path stroke="black" stroke-dasharray="1,2" d="M95 64l850 0"/>
<text stroke="none" fill="black" font-size="16" x="43" y="72">
1.162
</text>
<text stroke="none" fill="black" font-size="16" x="10" y="32">
V
</text>
<path stroke="red" d="M425 23l42 0"/>
<text stroke="none" fill="black" font-size="16" x="477" y="32">
(tran1.vout)
</text>
<path stroke="red" d="M95 661l0 -40M95 661l1 6 0 -39M96 664l1 -9M97 666l0 -39M97 642l1 -11M98 665l0 -38M98 631l1 -5M99 665l0 -40M99 628l1 9M100 664l0 -39M100 648l1 10M101 664l0 -40M101 663l1 -2M102 663l0 -39M102 660l1 -9M103 662l0 -39M103 638l1 -11"/>
<path stroke="red" d="M104 661l0 -39 1 3M105 661l0 -40M105 633l1 11M106 660l0 -39M106 654l1 6 0 -40M107 659l1 -2M108 659l0 -39M108 647l1 -12M109 658l0 -39M109 624l1 -5M110 657l0 -39M110 621l1 8M111 657l0 -39M111 629l1 11M112 656l0 -39M112 650l1 6"/>
<path stroke="red" d="M113 656l0 -40M113 653l1 -9M114 655l0 -39M114 631l1 -11M115 654l0 -39M115 620l1 -5M116 654l0 -40M116 617l1 8M117 653l0 -39M117 636l1 11M118 652l0 -39M118 652l1 -2M119 651l0 -39M119 649l1 -9M120 651l0 -39M120 627l1 -11M121 650l0 -39"/>
<path stroke="red" d="M121 611l1 2M122 650l0 -40M122 621l1 12M123 649l0 -39M123 643l1 5 0 -39M124 648l1 -2M125 647l0 -39M125 636l1 -12M126 647l0 -39M126 612l1 -5M127 646l0 -39M127 609l1 9M128 646l0 -40M128 617l1 12M129 645l0 -39M129 639l1 5 0 -39"/>
<path stroke="red" d="M130 642l1 -9M131 643l0 -38M131 620l1 -11M132 643l0 -39M132 608l1 -5M133 642l0 -39M133 605l1 9M134 642l0 -40M134 625l1 11M135 641l0 -39M135 641l1 -3M136 640l0 -39M136 638l1 -9M137 639l0 -38M137 616l1 -11M138 639l0 -40 1 3"/>
<path stroke="red" d="M139 638l0 -39M139 610l1 12M140 638l0 -40M140 632l1 5 0 -39M141 637l1 -3M142 636l0 -39M142 625l1 -13M143 635l0 -38M143 601l1 -5M144 635l0 -39M144 598l1 9M145 634l0 -39M145 606l1 12M146 634l0 -40M146 628l1 5 0 -39M147 631l1 -10"/>
<path stroke="red" d="M148 632l0 -39M148 608l1 -10M149 632l0 -39M149 597l1 -5M150 631l0 -39M150 594l1 9M151 630l0 -39M151 614l1 10M152 630l0 -40M152 629l1 -2M153 629l0 -39M153 627l1 -10M154 628l0 -39M154 604l1 -10M155 628l0 -40 1 3M156 627l0 -39"/>
<path stroke="red" d="M156 599l1 12M157 626l0 -39M157 620l1 6 0 -39M158 625l1 -2M159 625l0 -39M159 614l1 -13M160 624l0 -39M160 590l1 -5M161 624l0 -40M161 587l1 8M162 623l0 -39M162 595l1 12M163 623l0 -40M163 617l1 5 0 -39M164 619l1 -9M165 621l0 -39"/>
<path stroke="red" d="M165 597l1 -11M166 620l0 -39M166 586l1 -5M167 620l0 -40M167 583l1 9M168 619l0 -39M168 603l1 10M169 619l0 -40M169 618l1 -2M170 617l0 -38M170 615l1 -9M171 617l0 -39M171 593l1 -11M172 616l0 -39 1 2M173 616l0 -40M173 588l1 11"/>
<path stroke="red" d="M174 615l0 -39M174 609l1 6 0 -40M175 614l1 -2M176 614l0 -39M176 602l1 -12M177 613l0 -39M177 579l1 -5M178 612l0 -39M178 576l1 8M179 612l0 -40M179 584l1 11M180 611l0 -39M180 605l1 6 0 -40M181 608l1 -9M182 610l0 -39M182 586l1 -11"/>
<path stroke="red" d="M183 609l0 -39M183 575l1 -5M184 609l0 -40M184 572l1 8M185 608l0 -39M185 591l1 11M186 607l0 -39M186 607l1 -2M187 606l0 -39M187 604l1 -9M188 606l0 -39M188 582l1 -11M189 605l0 -39 1 2M190 605l0 -40M190 576l1 12M191 604l0 -39"/>
<path stroke="red" d="M191 598l1 5 0 -39M192 603l1 -2M193 602l0 -38M193 591l1 -12M194 602l0 -39M194 567l1 -5M195 601l0 -39M195 564l1 9M196 601l0 -40M196 572l1 12M197 600l0 -39M197 594l1 6 0 -40M198 597l1 -9M199 598l0 -38M199 575l1 -11M200 598l0 -39"/>
<path stroke="red" d="M200 563l1 -5M201 597l0 -39M201 560l1 9M202 597l0 -40M202 580l1 11M203 596l0 -39M203 596l1 -2M204 595l0 -39M204 593l1 -9M205 595l0 -39M205 571l1 -11M206 594l0 -39 1 2M207 593l0 -39M207 565l1 12M208 593l0 -40M208 587l1 5"/>
<path stroke="red" d="M209 592l0 -39M209 592l1 -2M210 591l0 -39M210 580l1 -13M211 591l0 -39M211 556l1 -5M212 590l0 -39M212 553l1 9M213 589l0 -39M213 561l1 12M214 589l0 -39M214 583l1 5 0 -39M215 586l1 -9M216 587l0 -39M216 564l1 -11M217 587l0 -39"/>
<path stroke="red" d="M217 552l1 -5M218 586l0 -39M218 549l1 9M219 586l0 -40M219 569l1 11M220 585l0 -39M220 584l1 -2M221 584l0 -39M221 582l1 -9M222 583l0 -38M222 560l1 -11M223 583l0 -40 1 3M224 582l0 -39M224 554l1 12M225 582l0 -40M225 576l1 5"/>
<path stroke="red" d="M226 581l0 -39M226 581l1 -3M227 580l0 -39M227 569l1 -13M228 579l0 -38M228 545l1 -5M229 579l0 -39M229 542l1 9M230 578l0 -39M230 550l1 12M231 578l0 -40M231 572l1 5 0 -39M232 575l1 -10M233 576l0 -39M233 552l1 -10M234 576l0 -39"/>
<path stroke="red" d="M234 541l1 -5M235 575l0 -39M235 538l1 9M236 574l0 -39M236 558l1 10M237 574l0 -40M237 573l1 -2M238 573l0 -39M238 571l1 -9M239 572l0 -39M239 548l1 -10M240 572l0 -40 1 3M241 571l0 -39M241 543l1 12M242 571l0 -40M242 565l1 5"/>
<path stroke="red" d="M243 570l0 -39M243 569l1 -2M244 569l0 -39M244 558l1 -13M245 568l0 -39M245 534l1 -5M246 568l0 -40M246 531l1 9M247 567l0 -39M247 539l1 12M248 567l0 -40M248 561l1 5 0 -39M249 563l1 -9M250 565l0 -39M250 541l1 -11M251 564l0 -38"/>
<path stroke="red" d="M251 530l1 -5M252 564l0 -40M252 527l1 9M253 563l0 -39M253 547l1 10M254 563l0 -40M254 562l1 -2M255 562l0 -39M255 560l1 -10M256 561l0 -39M256 537l1 -10M257 561l0 -40 1 3M258 560l0 -39M258 532l1 11M259 559l0 -39M259 553l1 6"/>
<path stroke="red" d="M260 559l0 -40M260 558l1 -2M261 558l0 -39M261 547l1 -13M262 557l0 -39M262 523l1 -5M263 557l0 -40M263 520l1 8M264 556l0 -39M264 526l1 12M265 555l0 -39M265 548l1 6 0 -38M266 553l1 -9M267 553l0 -38M267 531l1 -11M268 553l0 -39"/>
<path stroke="red" d="M268 514l1 1M269 552l0 -39M269 515l1 8M270 552l0 -39M270 534l1 11M271 551l0 -39M271 551l1 -2M272 550l0 -38M272 540l1 -12M273 549l0 -38M273 528l1 -12M274 549l0 -39 1 2M275 548l0 -39M275 519l1 12M276 548l0 -39M276 541l1 6"/>
<path stroke="red" d="M277 547l0 -39M277 547l1 -1 0 -38M278 537l1 -13M279 546l0 -39M279 512l1 -5M280 545l0 -39M280 508l1 8M281 544l0 -38M281 515l1 12M282 544l0 -39M282 537l1 6 0 -39M283 542l1 -9M284 542l0 -38M284 520l1 -11M285 542l0 -39 1 1M286 541l0 -39"/>
<path stroke="red" d="M286 504l1 8M287 541l0 -39M287 523l1 11M288 540l0 -39M288 539l1 -1M289 539l0 -38M289 529l1 -12M290 538l0 -38M290 516l1 -11M291 538l0 -39 1 2M292 537l0 -39M292 508l1 12M293 537l0 -39M293 530l1 6 0 -39M294 536l1 -2M295 535l0 -38"/>
<path stroke="red" d="M295 526l1 -13M296 534l0 -38M296 501l1 -5M297 534l0 -39M297 497l1 8M298 533l0 -39M298 504l1 12M299 533l0 -39M299 526l1 6 0 -39M300 531l1 -9M301 531l0 -38M301 509l1 -11M302 531l0 -39 1 1M303 530l0 -39M303 493l1 8M304 530l0 -39"/>
<path stroke="red" d="M304 512l1 11M305 529l0 -39M305 528l1 -1M306 528l0 -38M306 518l1 -12M307 527l0 -38M307 505l1 -11M308 527l0 -39 1 1M309 526l0 -39M309 497l1 11M310 526l0 -39M310 519l1 6 0 -39M311 525l1 -2M312 524l0 -38M312 514l1 -12M313 523l0 -38"/>
<path stroke="red" d="M313 490l1 -5M314 523l0 -39M314 486l1 8M315 522l0 -39M315 493l1 12M316 522l0 -39M316 515l1 6 0 -39M317 520l1 -9M318 520l0 -38M318 498l1 -11M319 520l0 -39 1 1M320 519l0 -39M320 482l1 8M321 518l0 -38M321 501l1 11M322 518l0 -39"/>
<path stroke="red" d="M322 517l1 -1M323 517l0 -39M323 507l1 -12M324 516l0 -38M324 494l1 -11M325 516l0 -39 1 1M326 515l0 -39M326 486l1 11M327 515l0 -39M327 508l1 6 0 -39M328 514l1 -2M329 513l0 -38M329 503l1 -12M330 512l0 -38M330 479l1 -5M331 512l0 -39"/>
<path stroke="red" d="M331 475l1 8M332 511l0 -39M332 482l1 12M333 511l0 -39M333 504l1 6 0 -39M334 509l1 -9M335 509l0 -38M335 487l1 -11M336 509l0 -39 1 1M337 508l0 -39M337 471l1 8M338 507l0 -38M338 490l1 11M339 507l0 -39M339 506l1 -1M340 506l0 -39"/>
<path stroke="red" d="M340 496l1 -12M341 505l0 -38M341 483l1 -11M342 505l0 -39 1 1M343 504l0 -39M343 475l1 11M344 504l0 -39M344 497l1 6 0 -39M345 503l1 -2M346 502l0 -38M346 492l1 -12M347 501l0 -38M347 468l1 -5M348 501l0 -39M348 464l1 8M349 500l0 -39"/>
<path stroke="red" d="M349 471l1 12M350 500l0 -39M350 493l1 6 0 -39M351 498l1 -9M352 498l0 -38M352 476l1 -11M353 498l0 -39 1 1M354 497l0 -39M354 460l1 8M355 496l0 -38M355 479l1 11M356 496l0 -39M356 495l1 -1M357 495l0 -39M357 485l1 -12M358 494l0 -38"/>
<path stroke="red" d="M358 472l1 -11M359 494l0 -39 1 1M360 493l0 -39M360 464l1 11M361 493l0 -39M361 486l1 6 0 -39M362 492l1 -2M363 491l0 -38M363 481l1 -12M364 490l0 -38M364 457l1 -5M365 490l0 -39M365 453l1 8M366 489l0 -39M366 460l1 12M367 489l0 -39"/>
<path stroke="red" d="M367 482l1 6 0 -39M368 487l1 -9M369 487l0 -38M369 465l1 -11M370 487l0 -39 1 1M371 486l0 -39M371 449l1 8M372 485l0 -38M372 468l1 11M373 485l0 -39M373 484l1 -1M374 484l0 -38M374 474l1 -12M375 483l0 -38M375 461l1 -11M376 483l0 -39"/>
<path stroke="red" d="M376 444l1 1M377 482l0 -39M377 453l1 12M378 482l0 -39M378 475l1 6 0 -39M379 481l1 -2M380 480l0 -38M380 471l1 -13M381 479l0 -38M381 446l1 -5M382 479l0 -39M382 442l1 8M383 478l0 -39M383 449l1 12M384 478l0 -39M384 471l1 6 0 -39"/>
<path stroke="red" d="M385 476l1 -9M386 476l0 -38M386 454l1 -11M387 476l0 -39 1 1M388 475l0 -39M388 438l1 8M389 475l0 -39M389 457l1 11M390 474l0 -39M390 473l1 -1M391 473l0 -38M391 463l1 -12M392 472l0 -38M392 450l1 -11M393 472l0 -39 1 2M394 471l0 -39"/>
<path stroke="red" d="M394 442l1 12M395 471l0 -39M395 464l1 6 0 -39M396 470l1 -1 0 -38M397 460l1 -13M398 469l0 -39M398 435l1 -5M399 468l0 -39M399 431l1 8M400 467l0 -38M400 438l1 12M401 467l0 -39M401 460l1 6 0 -39M402 465l1 -9M403 465l0 -38M403 443l1 -11"/>
<path stroke="red" d="M404 465l0 -39 1 1M405 464l0 -39M405 427l1 8M406 464l0 -39M406 446l1 11M407 463l0 -39M407 463l1 -2M408 462l0 -38M408 452l1 -12M409 461l0 -38M409 440l1 -12M410 461l0 -39 1 2M411 460l0 -39M411 431l1 12M412 460l0 -39M412 453l1 6"/>
<path stroke="red" d="M413 459l0 -39M413 459l1 -1 0 -38M414 449l1 -13M415 458l0 -39M415 425l1 -6M416 457l0 -39M416 420l1 8M417 457l0 -39M417 427l1 12M418 456l0 -39M418 449l1 6 0 -38M419 454l1 -9M420 454l0 -38M420 432l1 -11M421 454l0 -39 1 2M422 453l0 -39"/>
<path stroke="red" d="M422 416l1 8M423 453l0 -39M423 435l1 11M424 452l0 -39M424 452l1 -1 0 -38M425 442l1 -13M426 451l0 -39M426 429l1 -12M427 450l0 -39 1 2M428 449l0 -38M428 420l1 12M429 449l0 -39M429 442l1 6 0 -39M430 448l1 -1 0 -38M431 438l1 -13"/>
<path stroke="red" d="M432 447l0 -39M432 414l1 -6M433 446l0 -39M433 409l1 8M434 446l0 -39M434 416l1 12M435 445l0 -39M435 438l1 7 0 -39M436 443l1 -9M437 443l0 -38M437 422l1 -12M438 443l0 -39 1 2M439 442l0 -39M439 405l1 8M440 442l0 -39M440 424l1 11"/>
<path stroke="red" d="M441 441l0 -39M441 441l1 -1 0 -38M442 431l1 -13M443 440l0 -39M443 418l1 -11M444 439l0 -39 1 2M445 439l0 -39M445 409l1 12M446 438l0 -39M446 431l1 6 0 -38M447 437l1 -1 0 -38M448 427l1 -12M449 436l0 -38M449 403l1 -6M450 435l0 -39"/>
<path stroke="red" d="M450 398l1 8M451 435l0 -39M451 406l1 11M452 434l0 -39M452 427l1 7 0 -39M453 432l1 -8M454 433l0 -39M454 411l1 -12M455 432l0 -39 1 2M456 432l0 -39M456 394l1 8M457 431l0 -39M457 413l1 11M458 430l0 -38M458 430l1 -1 0 -38M459 420l1 -13"/>
<path stroke="red" d="M460 429l0 -39M460 407l1 -11M461 428l0 -39 1 2M462 428l0 -39M462 398l1 12M463 427l0 -39M463 420l1 7 0 -39M464 426l1 -1M465 426l0 -39M465 416l1 -12M466 425l0 -38M466 392l1 -6M467 424l0 -38M467 387l1 8M468 424l0 -39M468 395l1 11"/>
<path stroke="red" d="M469 423l0 -39M469 417l1 6 0 -39M470 421l1 -8M471 422l0 -39M471 400l1 -11M472 421l0 -39 1 2M473 421l0 -39M473 383l1 8M474 420l0 -39M474 402l1 11M475 420l0 -39M475 419l1 -1 0 -38M476 409l1 -12M477 418l0 -38M477 396l1 -11"/>
<path stroke="red" d="M478 417l0 -38 1 1M479 417l0 -39M479 388l1 11M480 416l0 -39M480 410l1 6 0 -39M481 415l1 -1M482 415l0 -39M482 405l1 -12M483 414l0 -38M483 381l1 -6M484 414l0 -39M484 376l1 8M485 413l0 -39M485 384l1 11M486 413l0 -39M486 406l1 6"/>
<path stroke="red" d="M487 412l0 -39M487 410l1 -8M488 411l0 -38M488 389l1 -11M489 410l0 -38 1 1M490 410l0 -39M490 373l1 8M491 409l0 -39M491 392l1 11M492 409l0 -39M492 408l1 -1M493 408l0 -39M493 398l1 -12M494 407l0 -38M494 385l1 -11M495 407l0 -39"/>
<path stroke="red" d="M495 368l1 1M496 406l0 -39M496 377l1 11M497 406l0 -39M497 399l1 6 0 -39M498 404l1 -1M499 404l0 -38M499 394l1 -12M500 403l0 -38M500 370l1 -6M501 403l0 -39M501 366l1 8M502 402l0 -39M502 373l1 12M503 402l0 -39M503 395l1 6 0 -39"/>
<path stroke="red" d="M504 400l1 -9M505 400l0 -38M505 378l1 -11M506 400l0 -39 1 1M507 399l0 -39M507 362l1 8M508 399l0 -39M508 381l1 11M509 398l0 -39M509 397l1 -1M510 397l0 -38M510 387l1 -12M511 396l0 -38M511 374l1 -11M512 396l0 -39 1 2M513 395l0 -39"/>
<path stroke="red" d="M513 366l1 12M514 395l0 -39M514 388l1 6 0 -39M515 394l1 -1 0 -38M516 384l1 -13M517 393l0 -39M517 359l1 -5M518 392l0 -39M518 355l1 8M519 391l0 -38M519 362l1 12M520 391l0 -39M520 384l1 6 0 -38M521 389l1 -9M522 389l0 -38M522 367l1 -11"/>
<path stroke="red" d="M523 389l0 -39 1 2M524 388l0 -39M524 351l1 8M525 388l0 -39M525 370l1 11M526 387l0 -39M526 387l1 -1 0 -38M527 377l1 -13M528 386l0 -39M528 364l1 -12M529 385l0 -39 1 2M530 385l0 -39M530 355l1 12M531 384l0 -39M531 377l1 6 0 -38"/>
<path stroke="red" d="M532 383l1 -1 0 -38M533 373l1 -13M534 382l0 -39M534 349l1 -6M535 381l0 -39M535 344l1 8M536 381l0 -39M536 352l1 11M537 380l0 -39M537 373l1 7 0 -39M538 378l1 -8M539 379l0 -39M539 357l1 -12M540 378l0 -39 1 2M541 378l0 -39M541 340l1 8"/>
<path stroke="red" d="M542 377l0 -39M542 359l1 11M543 376l0 -38M543 376l1 -1 0 -38M544 366l1 -12M545 375l0 -39M545 353l1 -11M546 374l0 -39 1 2M547 374l0 -39M547 345l1 11M548 373l0 -39M548 366l1 7 0 -39M549 372l1 -1M550 372l0 -39M550 362l1 -12"/>
<path stroke="red" d="M551 371l0 -38M551 338l1 -6M552 371l0 -39M552 333l1 8M553 370l0 -39M553 341l1 11M554 369l0 -38M554 363l1 6 0 -39M555 367l1 -8M556 368l0 -38M556 346l1 -11M557 367l0 -39 1 2M558 367l0 -39M558 329l1 9M559 366l0 -39M559 349l1 10"/>
<path stroke="red" d="M560 366l0 -39M560 365l1 -1M561 365l0 -39M561 355l1 -12M562 364l0 -38M562 342l1 -11M563 364l0 -39 1 1M564 363l0 -39M564 334l1 11M565 362l0 -38M565 356l1 6 0 -39M566 361l1 -1M567 361l0 -38M567 351l1 -12M568 360l0 -38M568 327l1 -6"/>
<path stroke="red" d="M569 360l0 -39M569 323l1 8M570 359l0 -39M570 330l1 12M571 359l0 -39M571 352l1 6 0 -39M572 357l1 -9M573 357l0 -38M573 335l1 -11M574 357l0 -39 1 1M575 356l0 -39M575 319l1 8M576 356l0 -39M576 338l1 11M577 355l0 -39M577 354l1 -1"/>
<path stroke="red" d="M578 354l0 -38M578 344l1 -12M579 353l0 -38M579 332l1 -12M580 353l0 -39 1 2M581 352l0 -39M581 323l1 12M582 352l0 -39M582 345l1 6 0 -39M583 351l1 -1 0 -38M584 341l1 -13M585 350l0 -39M585 317l1 -6M586 349l0 -39M586 312l1 8"/>
<path stroke="red" d="M587 349l0 -39M587 319l1 12M588 348l0 -39M588 341l1 7 0 -39M589 346l1 -9M590 346l0 -38M590 325l1 -12M591 346l0 -39 1 2M592 345l0 -39M592 308l1 8M593 345l0 -39M593 327l1 11M594 344l0 -39M594 344l1 -1 0 -38M595 334l1 -13M596 343l0 -39"/>
<path stroke="red" d="M596 321l1 -11M597 342l0 -39 1 2M598 342l0 -39M598 312l1 12M599 341l0 -39M599 334l1 7 0 -39M600 340l1 -1M601 340l0 -39M601 330l1 -12M602 339l0 -38M602 306l1 -6M603 338l0 -38M603 301l1 8M604 338l0 -39M604 309l1 11M605 337l0 -39"/>
<path stroke="red" d="M605 331l1 6 0 -39M606 335l1 -8M607 336l0 -39M607 314l1 -11M608 335l0 -39 1 2M609 335l0 -39M609 297l1 8M610 334l0 -39M610 316l1 11M611 334l0 -39M611 333l1 -1M612 333l0 -39M612 323l1 -12M613 332l0 -38M613 310l1 -11M614 332l0 -39"/>
<path stroke="red" d="M614 293l1 1M615 331l0 -39M615 302l1 11M616 330l0 -38M616 324l1 6 0 -39M617 329l1 -1M618 329l0 -38M618 319l1 -12M619 328l0 -38M619 295l1 -6M620 328l0 -39M620 290l1 9M621 327l0 -39M621 298l1 12M622 327l0 -39M622 320l1 6 0 -39"/>
<path stroke="red" d="M623 325l1 -9M624 325l0 -38M624 303l1 -11M625 325l0 -39 1 1M626 324l0 -39M626 287l1 8M627 324l0 -39M627 306l1 11M628 323l0 -39M628 322l1 -1M629 322l0 -38M629 312l1 -12M630 321l0 -38M630 300l1 -12M631 321l0 -39 1 2M632 320l0 -39"/>
<path stroke="red" d="M632 291l1 12M633 320l0 -39M633 313l1 6 0 -39M634 319l1 -1 0 -38M635 309l1 -13M636 318l0 -39M636 285l1 -6M637 317l0 -39M637 280l1 8M638 317l0 -39M638 287l1 12M639 316l0 -39M639 309l1 7 0 -39M640 314l1 -8M641 314l0 -38M641 293l1 -12"/>
<path stroke="red" d="M642 314l0 -39 1 2M643 313l0 -38M643 276l1 8M644 313l0 -39M644 295l1 11M645 312l0 -39M645 312l1 -1 0 -38M646 302l1 -13M647 311l0 -39M647 289l1 -11M648 310l0 -39 1 2M649 310l0 -39M649 280l1 12M650 309l0 -39M650 302l1 7 0 -39"/>
<path stroke="red" d="M651 308l1 -1M652 308l0 -39M652 298l1 -12M653 307l0 -38M653 274l1 -6M654 307l0 -39M654 269l1 8M655 306l0 -39M655 277l1 11M656 305l0 -38M656 299l1 6 0 -39M657 303l1 -8M658 304l0 -38M658 282l1 -11M659 303l0 -39 1 2M660 303l0 -39"/>
<path stroke="red" d="M660 266l1 8M661 302l0 -39M661 285l1 11M662 302l0 -39M662 301l1 -1M663 301l0 -39M663 291l1 -12M664 300l0 -38M664 278l1 -11M665 300l0 -39 1 1M666 299l0 -39M666 270l1 11M667 299l0 -39M667 292l1 6 0 -39M668 298l1 -2M669 297l0 -38"/>
<path stroke="red" d="M669 287l1 -12M670 296l0 -38M670 263l1 -5M671 296l0 -39M671 259l1 8M672 295l0 -38M672 266l1 12M673 295l0 -39M673 288l1 6 0 -39M674 293l1 -9M675 293l0 -38M675 271l1 -11M676 293l0 -39 1 1M677 292l0 -39M677 255l1 8M678 292l0 -39"/>
<path stroke="red" d="M678 274l1 11M679 291l0 -39M679 291l1 -1 0 -38M680 281l1 -13M681 290l0 -39M681 268l1 -12M682 289l0 -39 1 2M683 289l0 -39M683 259l1 12M684 288l0 -39M684 281l1 6 0 -38M685 287l1 -1 0 -38M686 277l1 -12M687 286l0 -38M687 253l1 -6"/>
<path stroke="red" d="M688 285l0 -39M688 248l1 8M689 285l0 -39M689 256l1 11M690 284l0 -39M690 278l1 6 0 -39M691 282l1 -8M692 283l0 -39M692 261l1 -11M693 282l0 -39 1 2M694 282l0 -39M694 244l1 8M695 281l0 -39M695 263l1 11M696 281l0 -39M696 280l1 -1"/>
<path stroke="red" d="M697 280l0 -39M697 270l1 -12M698 279l0 -38M698 257l1 -11M699 279l0 -39 1 1M700 278l0 -39M700 249l1 11M701 277l0 -38M701 271l1 6 0 -39M702 276l1 -1M703 276l0 -38M703 266l1 -12M704 275l0 -38M704 242l1 -6M705 275l0 -39M705 238l1 8"/>
<path stroke="red" d="M706 274l0 -39M706 245l1 12M707 274l0 -39M707 267l1 6 0 -39M708 272l1 -9M709 272l0 -38M709 250l1 -11M710 272l0 -39 1 1M711 271l0 -39M711 234l1 8M712 271l0 -39M712 253l1 11M713 270l0 -39M713 270l1 -2M714 269l0 -38M714 260l1 -13"/>
<path stroke="red" d="M715 269l0 -39M715 247l1 -12M716 268l0 -39 1 2M717 267l0 -38M717 238l1 12M718 267l0 -39M718 260l1 6 0 -38M719 266l1 -1 0 -38M720 256l1 -13M721 265l0 -39M721 232l1 -6M722 264l0 -39M722 227l1 8M723 264l0 -39M723 235l1 11M724 263l0 -39"/>
<path stroke="red" d="M724 256l1 7 0 -39M725 261l1 -8M726 262l0 -39M726 240l1 -11M727 261l0 -39 1 2M728 261l0 -39M728 223l1 8M729 260l0 -39M729 242l1 11M730 260l0 -39M730 259l1 -1M731 259l0 -39M731 249l1 -12M732 258l0 -38M732 236l1 -11M733 257l0 -38"/>
<path stroke="red" d="M733 219l1 1M734 257l0 -39M734 228l1 11M735 256l0 -38M735 250l1 6 0 -39M736 255l1 -1M737 255l0 -39M737 245l1 -12M738 254l0 -38M738 221l1 -6M739 254l0 -39M739 217l1 8M740 253l0 -39M740 224l1 12M741 253l0 -39M741 246l1 6 0 -39"/>
<path stroke="red" d="M742 251l1 -9M743 251l0 -38M743 229l1 -11M744 251l0 -39 1 1M745 250l0 -39M745 213l1 8M746 250l0 -39M746 232l1 11M747 249l0 -39M747 249l1 -2M748 248l0 -38M748 239l1 -13M749 247l0 -38M749 226l1 -12M750 247l0 -39 1 2M751 246l0 -38"/>
<path stroke="red" d="M751 217l1 12M752 246l0 -39M752 239l1 6 0 -38M753 245l1 -1 0 -38M754 235l1 -13M755 244l0 -39M755 211l1 -6M756 243l0 -39M756 206l1 8M757 243l0 -39M757 214l1 11M758 242l0 -39M758 235l1 7 0 -39M759 240l1 -8M760 241l0 -39M760 219l1 -11"/>
<path stroke="red" d="M761 240l0 -39 1 2M762 240l0 -39M762 202l1 8M763 239l0 -39M763 221l1 11M764 239l0 -39M764 238l1 -1M765 238l0 -39M765 228l1 -12M766 237l0 -38M766 215l1 -11M767 236l0 -38 1 1M768 236l0 -39M768 207l1 11M769 235l0 -38M769 229l1 6"/>
<path stroke="red" d="M770 235l0 -39M770 234l1 -1M771 234l0 -38M771 224l1 -12M772 233l0 -38M772 200l1 -6M773 233l0 -39M773 196l1 8M774 232l0 -39M774 203l1 12M775 232l0 -39M775 225l1 6 0 -39M776 230l1 -9M777 230l0 -38M777 208l1 -11M778 230l0 -39"/>
<path stroke="red" d="M778 191l1 1M779 229l0 -39M779 192l1 8M780 229l0 -39M780 211l1 11M781 228l0 -39M781 228l1 -2M782 227l0 -38M782 218l1 -13M783 227l0 -39M783 205l1 -12M784 226l0 -39 1 2M785 226l0 -39M785 196l1 12M786 225l0 -39M786 218l1 6"/>
<path stroke="red" d="M787 224l0 -38M787 224l1 -1 0 -38M788 214l1 -12M789 223l0 -38M789 190l1 -6M790 222l0 -38M790 185l1 8M791 222l0 -39M791 193l1 11M792 221l0 -39M792 215l1 6 0 -39M793 219l1 -8M794 220l0 -39M794 198l1 -11M795 219l0 -39 1 2M796 219l0 -39"/>
<path stroke="red" d="M796 181l1 9M797 218l0 -39M797 201l1 10M798 218l0 -39M798 217l1 -1M799 217l0 -39M799 207l1 -12M800 216l0 -38M800 194l1 -11M801 216l0 -39 1 1M802 215l0 -39M802 186l1 11M803 215l0 -39M803 208l1 6 0 -39M804 214l1 -2M805 213l0 -38"/>
<path stroke="red" d="M805 204l1 -13M806 212l0 -38M806 179l1 -5M807 212l0 -39M807 175l1 8M808 211l0 -38M808 182l1 12M809 211l0 -39M809 204l1 6 0 -38M810 209l1 -9M811 209l0 -38M811 188l1 -12M812 209l0 -39 1 2M813 208l0 -39M813 171l1 8M814 208l0 -39"/>
<path stroke="red" d="M814 190l1 11M815 207l0 -39M815 207l1 -1 0 -38M816 197l1 -13M817 206l0 -39M817 184l1 -11M818 205l0 -39 1 2M819 205l0 -39M819 175l1 12M820 204l0 -39M820 197l1 7 0 -39M821 203l1 -1M822 203l0 -39M822 193l1 -12M823 202l0 -38"/>
<path stroke="red" d="M823 169l1 -6M824 202l0 -39M824 164l1 8M825 201l0 -39M825 172l1 11M826 201l0 -39M826 194l1 6 0 -39M827 198l1 -8M828 199l0 -38M828 177l1 -11M829 198l0 -38 1 1M830 198l0 -39M830 161l1 8M831 197l0 -38M831 180l1 11M832 197l0 -39"/>
<path stroke="red" d="M832 196l1 -1M833 196l0 -38M833 186l1 -12M834 195l0 -38M834 173l1 -11M835 195l0 -39 1 2M836 194l0 -39M836 165l1 12M837 194l0 -39M837 187l1 6 0 -39M838 193l1 -1 0 -38M839 183l1 -13M840 192l0 -39M840 159l1 -6M841 191l0 -39"/>
<path stroke="red" d="M841 154l1 8M842 191l0 -39M842 161l1 12M843 190l0 -39M843 183l1 7 0 -39M844 188l1 -8M845 189l0 -39M845 167l1 -11M846 188l0 -39 1 2M847 188l0 -39M847 150l1 8M848 187l0 -39M848 169l1 11M849 187l0 -39M849 186l1 -1 0 -38M850 176l1 -12"/>
<path stroke="red" d="M851 185l0 -38M851 163l1 -11M852 184l0 -38 1 1M853 184l0 -39M853 155l1 11M854 183l0 -38M854 177l1 6 0 -39M855 182l1 -1M856 182l0 -38M856 172l1 -12M857 181l0 -38M857 148l1 -6M858 181l0 -39M858 144l1 8M859 180l0 -39M859 151l1 12"/>
<path stroke="red" d="M860 180l0 -39M860 173l1 6 0 -39M861 178l1 -9M862 178l0 -38M862 156l1 -11M863 178l0 -39 1 1M864 177l0 -39M864 140l1 8M865 177l0 -39M865 159l1 11M866 176l0 -39M866 176l1 -1 0 -38M867 166l1 -13M868 175l0 -39M868 153l1 -11"/>
<path stroke="red" d="M869 174l0 -39 1 2M870 174l0 -39M870 144l1 12M871 173l0 -39M871 166l1 7 0 -39M872 172l1 -1M873 172l0 -39M873 162l1 -12M874 171l0 -38M874 138l1 -6M875 170l0 -38M875 133l1 8M876 170l0 -39M876 141l1 11M877 169l0 -38M877 163l1 6"/>
<path stroke="red" d="M878 169l0 -39M878 167l1 -8M879 168l0 -38M879 146l1 -11M880 167l0 -38 1 1M881 167l0 -39M881 130l1 8M882 166l0 -39M882 149l1 11M883 166l0 -39M883 165l1 -1M884 165l0 -39M884 155l1 -12M885 164l0 -38M885 142l1 -11M886 164l0 -39"/>
<path stroke="red" d="M886 125l1 2M887 163l0 -39M887 134l1 12M888 163l0 -39M888 156l1 6 0 -39M889 162l1 -1 0 -38M890 152l1 -13M891 161l0 -39M891 128l1 -6M892 160l0 -39M892 123l1 8M893 160l0 -39M893 130l1 12M894 159l0 -39M894 152l1 7 0 -39M895 157l1 -8"/>
<path stroke="red" d="M896 158l0 -39M896 136l1 -11M897 157l0 -39 1 2M898 157l0 -39M898 119l1 8M899 156l0 -39M899 138l1 11M900 156l0 -39M900 155l1 -1M901 155l0 -39M901 145l1 -12M902 154l0 -38M902 132l1 -11M903 153l0 -38 1 1M904 153l0 -39M904 124l1 11"/>
<path stroke="red" d="M905 152l0 -38M905 146l1 6 0 -39M906 151l1 -1M907 151l0 -38M907 141l1 -12M908 150l0 -38M908 117l1 -5M909 150l0 -39M909 113l1 8M910 149l0 -39M910 120l1 12M911 149l0 -39M911 142l1 6 0 -39M912 147l1 -9M913 147l0 -38M913 125l1 -11"/>
<path stroke="red" d="M914 147l0 -39 1 2M915 146l0 -39M915 109l1 8M916 146l0 -39M916 128l1 11M917 145l0 -39M917 145l1 -1 0 -38M918 135l1 -13M919 144l0 -39M919 122l1 -11M920 143l0 -39 1 2M921 143l0 -39M921 113l1 12M922 142l0 -39M922 135l1 7 0 -39"/>
<path stroke="red" d="M923 141l1 -1M924 141l0 -39M924 131l1 -12M925 140l0 -38M925 107l1 -6M926 140l0 -39M926 102l1 8M927 139l0 -39M927 110l1 11M928 139l0 -39M928 132l1 6 0 -39M929 136l1 -8M930 137l0 -38M930 115l1 -11M931 137l0 -39 1 1M932 136l0 -39"/>
<path stroke="red" d="M932 99l1 8M933 135l0 -38M933 118l1 11M934 135l0 -39M934 134l1 -1M935 134l0 -38M935 124l1 -12M936 133l0 -38M936 112l1 -12M937 133l0 -39 1 2M938 132l0 -38M938 103l1 12M939 132l0 -39M939 125l1 6 0 -38M940 131l1 -1 0 -38M941 121l1 -12"/>
<path stroke="red" d="M942 130l0 -38M942 97l1 -6M943 129l0 -39M943 92l1 8M944 129l0 -39M944 100l1 11M945 128l0 -31"/>
</svg>
