<?xml version="1.0" standalone="yes"?>
<!DOCTYPE svg PUBLIC "-//W3C//DTD SVG 1.1//EN"
 "http://www.w3.org/Graphics/SVG/1.1/DTD/svg11.dtd">
<svg xmlns="http://www.w3.org/2000/svg" version="1.1"
  width="100%" height="100%" viewBox="0 0 1024 768"
  style="fill: none; font-family: Arial;
 font: Arial;
">

<!-- Creator: NGspice -->

<rect x="0" y="0" width="1024" height="768" fill="white" stroke="none"/>
<text stroke="none" fill="black" font-size="16" x="358" y="752">
Time(ns)
</text>
<text transform="rotate(-90, 20, 414)"  stroke="none" fill="black" font-size="16" x="20" y="414">
Output
</text>
<text stroke="none" fill="black" font-size="16" x="10" y="16">
tran1: OTA_2stage Transient Plot
</text>
<path stroke="black" d="M95 704l0 -640"/>
<text stroke="none" fill="black" font-size="16" x="80" y="728">
0.0
</text>
<path stroke="black" stroke-dasharray="1,2" d="M180 704l0 -640"/>
<text stroke="none" fill="black" font-size="16" x="160" y="728">
10.0
</text>
<path stroke="black" stroke-dasharray="1,2" d="M265 704l0 -640"/>
<text stroke="none" fill="black" font-size="16" x="245" y="728">
20.0
</text>
<path stroke="black" stroke-dasharray="1,2" d="M350 704l0 -640"/>
<text stroke="none" fill="black" font-size="16" x="330" y="728">
30.0
</text>
<path stroke="black" stroke-dasharray="1,2" d="M435 704l0 -640"/>
<text stroke="none" fill="black" font-size="16" x="415" y="728">
40.0
</text>
<path stroke="black" stroke-dasharray="1,2" d="M520 704l0 -640"/>
<text stroke="none" fill="black" font-size="16" x="500" y="728">
50.0
</text>
<path stroke="black" stroke-dasharray="1,2" d="M605 704l0 -640"/>
<text stroke="none" fill="black" font-size="16" x="585" y="728">
60.0
</text>
<path stroke="black" stroke-dasharray="1,2" d="M690 704l0 -640"/>
<text stroke="none" fill="black" font-size="16" x="670" y="728">
70.0
</text>
<path stroke="black" stroke-dasharray="1,2" d="M775 704l0 -640"/>
<text stroke="none" fill="black" font-size="16" x="755" y="728">
80.0
</text>
<path stroke="black" stroke-dasharray="1,2" d="M860 704l0 -640"/>
<text stroke="none" fill="black" font-size="16" x="840" y="728">
90.0
</text>
<path stroke="black" stroke-dasharray="1,2" d="M945 704l0 -640"/>
<text stroke="none" fill="black" font-size="16" x="920" y="728">
100.0
</text>
<text stroke="none" fill="black" font-size="16" x="614" y="752">
us
</text>
<path stroke="black" stroke-dasharray="1,2" d="M95 704l850 0"/>
<text stroke="none" fill="black" font-size="16" x="43" y="712">
1.142
</text>
<path stroke="black" stroke-dasharray="1,2" d="M95 640l850 0"/>
<text stroke="none" fill="black" font-size="16" x="43" y="648">
1.144
</text>
<path stroke="black" stroke-dasharray="1,2" d="M95 576l850 0"/>
<text stroke="none" fill="black" font-size="16" x="43" y="584">
1.146
</text>
<path stroke="black" stroke-dasharray="1,2" d="M95 512l850 0"/>
<text stroke="none" fill="black" font-size="16" x="43" y="520">
1.148
</text>
<path stroke="black" stroke-dasharray="1,2" d="M95 448l850 0"/>
<text stroke="none" fill="black" font-size="16" x="43" y="456">
1.150
</text>
<path stroke="black" stroke-dasharray="1,2" d="M95 384l850 0"/>
<text stroke="none" fill="black" font-size="16" x="43" y="392">
1.152
</text>
<path stroke="black" stroke-dasharray="1,2" d="M95 320l850 0"/>
<text stroke="none" fill="black" font-size="16" x="43" y="328">
1.154
</text>
<path stroke="black" stroke-dasharray="1,2" d="M95 256l850 0"/>
<text stroke="none" fill="black" font-size="16" x="43" y="264">
1.156
</text>
<path stroke="black" stroke-dasharray="1,2" d="M95 192l850 0"/>
<text stroke="none" fill="black" font-size="16" x="43" y="200">
1.158
</text>
<path stroke="black" stroke-dasharray="1,2" d="M95 128l850 0"/>
<text stroke="none" fill="black" font-size="16" x="43" y="136">
1.160
</text>
<path stroke="black" stroke-dasharray="1,2" d="M95 64l850 0"/>
<text stroke="none" fill="black" font-size="16" x="43" y="72">
1.162
</text>
<text stroke="none" fill="black" font-size="16" x="10" y="32">
V
</text>
<path stroke="red" d="M425 23l42 0"/>
<text stroke="none" fill="black" font-size="16" x="477" y="32">
(tran1.vout)
</text>
<path stroke="red" d="M95 661l0 -41M95 661l1 5 0 -38M96 664l1 -9M97 666l0 -39M97 642l1 -11M98 665l0 -39M98 631l1 -5M99 665l0 -40M99 628l1 8M100 664l0 -39M100 648l1 10M101 663l0 -39M101 663l1 -2M102 662l0 -38M102 660l1 -9M103 662l0 -39M103 638l1 -11"/>
<path stroke="red" d="M104 661l0 -39 1 2M105 661l0 -40M105 632l1 12M106 660l0 -39M106 654l1 6 0 -40M107 659l1 -2M108 658l0 -38M108 647l1 -12M109 658l0 -39M109 623l1 -5M110 657l0 -39M110 620l1 9M111 657l0 -40M111 628l1 12M112 656l0 -39M112 650l1 6"/>
<path stroke="red" d="M113 656l0 -40M113 653l1 -9M114 654l0 -38M114 631l1 -11M115 654l0 -39M115 619l1 -5M116 653l0 -39M116 616l1 9M117 653l0 -40M117 636l1 11M118 652l0 -39M118 652l1 -2M119 651l0 -39M119 649l1 -9M120 650l0 -38M120 627l1 -11M121 650l0 -39"/>
<path stroke="red" d="M121 611l1 2M122 649l0 -39M122 621l1 12M123 649l0 -40M123 643l1 5 0 -39M124 648l1 -2M125 647l0 -39M125 636l1 -13M126 647l0 -39M126 612l1 -5M127 646l0 -39M127 609l1 9M128 645l0 -39M128 617l1 12M129 645l0 -40M129 639l1 5 0 -39"/>
<path stroke="red" d="M130 642l1 -10M131 643l0 -39M131 619l1 -10M132 643l0 -39M132 608l1 -5M133 642l0 -39M133 605l1 9M134 641l0 -39M134 625l1 10M135 641l0 -40M135 640l1 -2M136 640l0 -39M136 638l1 -9M137 639l0 -39M137 615l1 -10M138 639l0 -40 1 3"/>
<path stroke="red" d="M139 638l0 -39M139 610l1 12M140 638l0 -40M140 632l1 5 0 -39M141 636l1 -2M142 636l0 -39M142 625l1 -13M143 635l0 -39M143 601l1 -5M144 635l0 -40M144 598l1 8M145 634l0 -39M145 606l1 12M146 634l0 -40M146 628l1 5 0 -39M147 630l1 -9"/>
<path stroke="red" d="M148 632l0 -39M148 608l1 -11M149 631l0 -39M149 597l1 -5M150 631l0 -40M150 594l1 9M151 630l0 -39M151 614l1 10M152 630l0 -40M152 629l1 -2M153 628l0 -38M153 626l1 -9M154 628l0 -39M154 604l1 -11M155 627l0 -39 1 2M156 627l0 -40"/>
<path stroke="red" d="M156 599l1 11M157 626l0 -39M157 620l1 6 0 -40M158 625l1 -2M159 625l0 -39M159 613l1 -12M160 624l0 -39M160 590l1 -5M161 623l0 -39M161 587l1 8M162 623l0 -40M162 595l1 11M163 622l0 -39M163 616l1 6 0 -40M164 619l1 -9M165 621l0 -39"/>
<path stroke="red" d="M165 597l1 -11M166 620l0 -39M166 586l1 -5M167 620l0 -40M167 583l1 8M168 619l0 -39M168 602l1 11M169 618l0 -39M169 618l1 -2M170 617l0 -39M170 615l1 -9M171 617l0 -39M171 593l1 -11M172 616l0 -39 1 2M173 616l0 -40M173 587l1 12"/>
<path stroke="red" d="M174 615l0 -39M174 609l1 5 0 -39M175 614l1 -2M176 613l0 -38M176 602l1 -12M177 613l0 -39M177 578l1 -5M178 612l0 -39M178 575l1 9M179 612l0 -40M179 583l1 12M180 611l0 -39M180 605l1 6 0 -40M181 608l1 -9M182 609l0 -38M182 586l1 -11"/>
<path stroke="red" d="M183 609l0 -39M183 574l1 -5M184 608l0 -39M184 571l1 9M185 608l0 -40M185 591l1 11M186 607l0 -39M186 607l1 -2M187 606l0 -39M187 604l1 -9M188 605l0 -38M188 582l1 -11M189 605l0 -39 1 2M190 604l0 -39M190 576l1 12M191 604l0 -40"/>
<path stroke="red" d="M191 598l1 5 0 -39M192 603l1 -2M193 602l0 -39M193 591l1 -13M194 602l0 -39M194 567l1 -5M195 601l0 -39M195 564l1 9M196 600l0 -39M196 572l1 12M197 600l0 -39M197 594l1 5 0 -39M198 597l1 -9M199 598l0 -39M199 575l1 -11M200 598l0 -39"/>
<path stroke="red" d="M200 563l1 -5M201 597l0 -39M201 560l1 9M202 597l0 -40M202 580l1 11M203 596l0 -39M203 595l1 -2M204 595l0 -39M204 593l1 -9M205 594l0 -39M205 571l1 -11M206 594l0 -40 1 3M207 593l0 -39M207 565l1 12M208 593l0 -40M208 587l1 5"/>
<path stroke="red" d="M209 592l0 -39M209 592l1 -3M210 591l0 -39M210 580l1 -13M211 590l0 -38M211 556l1 -5M212 590l0 -40M212 553l1 9M213 589l0 -39M213 561l1 12M214 589l0 -40M214 583l1 5 0 -39M215 586l1 -10M216 587l0 -39M216 563l1 -10M217 586l0 -38"/>
<path stroke="red" d="M217 552l1 -5M218 586l0 -39M218 549l1 9M219 585l0 -39M219 569l1 10M220 585l0 -40M220 584l1 -2M221 584l0 -39M221 582l1 -10M222 583l0 -39M222 559l1 -10M223 583l0 -40 1 3M224 582l0 -39M224 554l1 11M225 581l0 -39M225 575l1 6"/>
<path stroke="red" d="M226 581l0 -39M226 580l1 -2M227 580l0 -39M227 569l1 -13M228 579l0 -39M228 545l1 -5M229 579l0 -40M229 542l1 8M230 578l0 -39M230 550l1 12M231 578l0 -40M231 572l1 5 0 -39M232 574l1 -9M233 576l0 -39M233 552l1 -11M234 575l0 -38"/>
<path stroke="red" d="M234 541l1 -5M235 575l0 -40M235 538l1 9M236 574l0 -39M236 558l1 10M237 574l0 -40M237 573l1 -2M238 573l0 -39M238 570l1 -9M239 572l0 -39M239 548l1 -10M240 571l0 -39 1 3M241 571l0 -40M241 543l1 11M242 570l0 -39M242 564l1 6"/>
<path stroke="red" d="M243 570l0 -40M243 569l1 -2M244 569l0 -39M244 557l1 -12M245 568l0 -39M245 534l1 -5M246 568l0 -40M246 531l1 8M247 567l0 -39M247 539l1 11M248 566l0 -39M248 560l1 6 0 -40M249 563l1 -9M250 565l0 -39M250 541l1 -11M251 564l0 -39"/>
<path stroke="red" d="M251 530l1 -5M252 564l0 -40M252 527l1 8M253 563l0 -39M253 547l1 10M254 563l0 -40M254 562l1 -2M255 561l0 -38M255 559l1 -9M256 561l0 -39M256 537l1 -11M257 560l0 -39 1 2M258 560l0 -40M258 532l1 11M259 559l0 -39M259 553l1 6"/>
<path stroke="red" d="M260 559l0 -40M260 558l1 -2M261 558l0 -39M261 546l1 -12M262 557l0 -39M262 523l1 -5M263 556l0 -39M263 520l1 8M264 556l0 -40M264 528l1 11M265 555l0 -39M265 549l1 6 0 -40M266 552l1 -9M267 554l0 -39M267 530l1 -11M268 553l0 -39"/>
<path stroke="red" d="M268 519l1 -5M269 553l0 -40M269 516l1 8M270 552l0 -39M270 535l1 11M271 551l0 -39M271 551l1 -2M272 550l0 -39M272 548l1 -9M273 550l0 -39M273 526l1 -11M274 549l0 -39 1 2M275 549l0 -40M275 520l1 12M276 548l0 -39M276 542l1 6"/>
<path stroke="red" d="M277 548l0 -40M277 547l1 -2M278 546l0 -38M278 535l1 -12M279 546l0 -39M279 511l1 -4M280 545l0 -39M280 508l1 9M281 545l0 -40M281 517l1 11M282 544l0 -39M282 538l1 6 0 -40M283 541l1 -9M284 543l0 -39M284 519l1 -11M285 542l0 -39"/>
<path stroke="red" d="M285 508l1 -5M286 541l0 -39M286 505l1 8M287 541l0 -39M287 524l1 11M288 540l0 -39M288 540l1 -2M289 539l0 -39M289 537l1 -9M290 539l0 -39M290 515l1 -11M291 538l0 -39 1 2M292 538l0 -40M292 509l1 12M293 537l0 -39M293 531l1 5"/>
<path stroke="red" d="M294 536l0 -39M294 536l1 -2M295 535l0 -38M295 524l1 -12M296 535l0 -39M296 500l1 -5M297 534l0 -39M297 497l1 9M298 534l0 -40M298 506l1 11M299 533l0 -39M299 527l1 6 0 -40M300 530l1 -9M301 532l0 -39M301 508l1 -11M302 531l0 -39"/>
<path stroke="red" d="M302 496l1 -4M303 530l0 -39M303 494l1 8M304 530l0 -40M304 513l1 11M305 529l0 -39M305 529l1 -2M306 528l0 -39M306 526l1 -9M307 528l0 -39M307 504l1 -11M308 527l0 -39 1 2M309 527l0 -40M309 498l1 12M310 526l0 -39M310 520l1 5"/>
<path stroke="red" d="M311 525l0 -39M311 525l1 -2M312 524l0 -39M312 513l1 -12M313 524l0 -39M313 489l1 -5M314 523l0 -39M314 486l1 9M315 523l0 -40M315 494l1 12M316 522l0 -39M316 516l1 6 0 -40M317 519l1 -9M318 520l0 -38M318 497l1 -11M319 520l0 -39"/>
<path stroke="red" d="M319 485l1 -4M320 519l0 -39M320 482l1 9M321 519l0 -40M321 502l1 11M322 518l0 -39M322 518l1 -2M323 517l0 -39M323 515l1 -9M324 517l0 -39M324 493l1 -11M325 516l0 -39 1 2M326 516l0 -40M326 487l1 12M327 515l0 -39M327 509l1 5"/>
<path stroke="red" d="M328 514l0 -39M328 514l1 -2M329 513l0 -39M329 502l1 -12M330 513l0 -39M330 478l1 -5M331 512l0 -39M331 475l1 9M332 512l0 -40M332 483l1 12M333 511l0 -39M333 505l1 6 0 -40M334 508l1 -9M335 509l0 -38M335 486l1 -11M336 509l0 -39"/>
<path stroke="red" d="M336 474l1 -4M337 508l0 -39M337 471l1 9M338 508l0 -40M338 491l1 11M339 507l0 -39M339 507l1 -2M340 506l0 -39M340 504l1 -9M341 506l0 -39M341 482l1 -11M342 505l0 -39 1 2M343 504l0 -39M343 476l1 12M344 504l0 -39M344 498l1 5"/>
<path stroke="red" d="M345 503l0 -39M345 503l1 -2M346 502l0 -39M346 491l1 -12M347 502l0 -39M347 467l1 -5M348 501l0 -39M348 464l1 9M349 501l0 -40M349 472l1 12M350 500l0 -39M350 494l1 6 0 -40M351 497l1 -9M352 498l0 -38M352 475l1 -11M353 498l0 -39"/>
<path stroke="red" d="M353 463l1 -4M354 497l0 -39M354 460l1 9M355 497l0 -40M355 480l1 11M356 496l0 -39M356 496l1 -2M357 495l0 -39M357 493l1 -9M358 495l0 -39M358 471l1 -11M359 494l0 -39 1 2M360 494l0 -40M360 465l1 12M361 493l0 -39M361 487l1 5"/>
<path stroke="red" d="M362 492l0 -39M362 492l1 -2M363 491l0 -39M363 480l1 -12M364 491l0 -39M364 456l1 -5M365 490l0 -39M365 453l1 9M366 490l0 -40M366 461l1 12M367 489l0 -39M367 483l1 6 0 -40M368 486l1 -9M369 487l0 -38M369 464l1 -11M370 487l0 -39"/>
<path stroke="red" d="M370 452l1 -4M371 486l0 -39M371 449l1 9M372 486l0 -40M372 469l1 11M373 485l0 -39M373 485l1 -2M374 484l0 -39M374 482l1 -9M375 484l0 -39M375 460l1 -11M376 483l0 -39 1 2M377 483l0 -40M377 454l1 12M378 482l0 -39M378 476l1 5"/>
<path stroke="red" d="M379 481l0 -39M379 481l1 -2M380 480l0 -38M380 469l1 -12M381 480l0 -39M381 445l1 -5M382 479l0 -39M382 442l1 9M383 479l0 -40M383 451l1 11M384 478l0 -39M384 472l1 6 0 -40M385 475l1 -9M386 477l0 -39M386 453l1 -11M387 476l0 -39"/>
<path stroke="red" d="M387 441l1 -4M388 475l0 -39M388 439l1 8M389 475l0 -40M389 458l1 11M390 474l0 -39M390 474l1 -2M391 473l0 -39M391 471l1 -9M392 473l0 -39M392 449l1 -11M393 472l0 -39 1 2M394 472l0 -40M394 443l1 12M395 471l0 -39M395 465l1 6"/>
<path stroke="red" d="M396 471l0 -40M396 470l1 -2M397 469l0 -38M397 458l1 -12M398 469l0 -39M398 434l1 -5M399 468l0 -39M399 431l1 9M400 468l0 -40M400 440l1 11M401 467l0 -39M401 461l1 6 0 -40M402 464l1 -9M403 466l0 -39M403 442l1 -11M404 465l0 -39"/>
<path stroke="red" d="M404 431l1 -5M405 464l0 -39M405 428l1 8M406 464l0 -39M406 447l1 11M407 463l0 -39M407 463l1 -2M408 462l0 -39M408 460l1 -9M409 462l0 -39M409 438l1 -11M410 461l0 -39 1 2M411 461l0 -40M411 432l1 12M412 460l0 -39M412 454l1 6"/>
<path stroke="red" d="M413 460l0 -40M413 459l1 -2M414 458l0 -38M414 447l1 -12M415 458l0 -39M415 423l1 -4M416 457l0 -39M416 421l1 8M417 457l0 -40M417 429l1 11M418 456l0 -39M418 450l1 6 0 -40M419 453l1 -9M420 455l0 -39M420 431l1 -11M421 454l0 -39"/>
<path stroke="red" d="M421 420l1 -5M422 454l0 -40M422 417l1 8M423 453l0 -39M423 437l1 10M424 452l0 -39M424 452l1 -2M425 451l0 -38M425 449l1 -9M426 451l0 -39M426 427l1 -11M427 450l0 -39 1 2M428 450l0 -40M428 422l1 11M429 449l0 -39M429 443l1 6"/>
<path stroke="red" d="M430 449l0 -40M430 448l1 -2M431 448l0 -39M431 436l1 -12M432 447l0 -39M432 413l1 -5M433 447l0 -40M433 410l1 8M434 446l0 -39M434 418l1 11M435 445l0 -39M435 439l1 6 0 -40M436 442l1 -9M437 444l0 -39M437 420l1 -11M438 443l0 -39"/>
<path stroke="red" d="M438 409l1 -5M439 443l0 -40M439 406l1 8M440 442l0 -39M440 426l1 10M441 442l0 -40M441 441l1 -2M442 441l0 -39M442 438l1 -9M443 440l0 -39M443 416l1 -10M444 439l0 -39 1 3M445 439l0 -39M445 411l1 11M446 438l0 -39M446 432l1 6"/>
<path stroke="red" d="M447 438l0 -40M447 437l1 -2M448 437l0 -39M448 426l1 -13M449 436l0 -39M449 402l1 -5M450 436l0 -40M450 399l1 8M451 435l0 -39M451 407l1 12M452 435l0 -40M452 429l1 5 0 -39M453 431l1 -9M454 433l0 -39M454 409l1 -11M455 432l0 -38"/>
<path stroke="red" d="M455 398l1 -5M456 432l0 -40M456 395l1 9M457 431l0 -39M457 415l1 10M458 431l0 -40M458 430l1 -2M459 430l0 -39M459 428l1 -10M460 429l0 -39M460 405l1 -10M461 429l0 -40 1 3M462 428l0 -39M462 400l1 12M463 427l0 -39M463 422l1 5"/>
<path stroke="red" d="M464 427l0 -39M464 426l1 -2M465 426l0 -39M465 415l1 -13M466 425l0 -39M466 391l1 -5M467 425l0 -40M467 388l1 9M468 424l0 -39M468 396l1 12M469 424l0 -40M469 418l1 5 0 -39M470 421l1 -10M471 422l0 -39M471 398l1 -10M472 422l0 -39"/>
<path stroke="red" d="M472 387l1 -5M473 421l0 -39M473 384l1 9M474 420l0 -39M474 404l1 10M475 420l0 -39M475 419l1 -2M476 419l0 -39M476 417l1 -9M477 418l0 -39M477 395l1 -11M478 418l0 -40 1 3M479 417l0 -39M479 389l1 12M480 417l0 -40M480 411l1 5"/>
<path stroke="red" d="M481 416l0 -39M481 416l1 -3M482 415l0 -39M482 404l1 -13M483 415l0 -39M483 380l1 -5M484 414l0 -39M484 377l1 9M485 413l0 -39M485 385l1 12M486 413l0 -39M486 407l1 5 0 -39M487 410l1 -9M488 411l0 -39M488 388l1 -11M489 411l0 -39"/>
<path stroke="red" d="M489 376l1 -5M490 410l0 -39M490 373l1 9M491 410l0 -40M491 393l1 11M492 409l0 -39M492 409l1 -3M493 408l0 -39M493 406l1 -9M494 407l0 -38M494 384l1 -11M495 407l0 -39 1 2M496 406l0 -39M496 378l1 12M497 406l0 -40M497 400l1 5"/>
<path stroke="red" d="M498 405l0 -39M498 405l1 -2M499 404l0 -39M499 393l1 -12M500 404l0 -39M500 369l1 -5M501 403l0 -39M501 366l1 9M502 403l0 -40M502 374l1 12M503 402l0 -39M503 396l1 6 0 -40M504 399l1 -9M505 400l0 -38M505 377l1 -11M506 400l0 -39"/>
<path stroke="red" d="M506 365l1 -4M507 399l0 -39M507 362l1 9M508 399l0 -40M508 382l1 11M509 398l0 -39M509 398l1 -2M510 397l0 -39M510 395l1 -9M511 397l0 -39M511 373l1 -11M512 396l0 -39 1 2M513 396l0 -40M513 367l1 12M514 395l0 -39M514 389l1 6"/>
<path stroke="red" d="M515 395l0 -40M515 394l1 -2M516 393l0 -38M516 382l1 -12M517 393l0 -39M517 358l1 -4M518 392l0 -39M518 355l1 9M519 392l0 -40M519 364l1 11M520 391l0 -39M520 385l1 6 0 -40M521 388l1 -9M522 390l0 -39M522 366l1 -11M523 389l0 -39"/>
<path stroke="red" d="M523 355l1 -5M524 389l0 -40M524 352l1 8M525 388l0 -39M525 372l1 10M526 388l0 -40M526 387l1 -2M527 386l0 -38M527 384l1 -9M528 386l0 -39M528 362l1 -11M529 385l0 -39 1 2M530 385l0 -40M530 357l1 11M531 384l0 -39M531 378l1 6"/>
<path stroke="red" d="M532 384l0 -40M532 383l1 -2M533 383l0 -39M533 371l1 -12M534 382l0 -39M534 348l1 -5M535 382l0 -40M535 345l1 8M536 381l0 -39M536 353l1 12M537 381l0 -40M537 375l1 5 0 -39M538 377l1 -9M539 379l0 -39M539 355l1 -11M540 378l0 -38"/>
<path stroke="red" d="M540 344l1 -5M541 378l0 -40M541 341l1 9M542 377l0 -39M542 361l1 10M543 377l0 -40M543 376l1 -2M544 376l0 -39M544 374l1 -10M545 375l0 -39M545 351l1 -10M546 375l0 -40 1 3M547 374l0 -39M547 346l1 12M548 374l0 -40M548 368l1 5"/>
<path stroke="red" d="M549 373l0 -39M549 372l1 -2M550 372l0 -39M550 361l1 -13M551 371l0 -38M551 337l1 -5M552 371l0 -40M552 334l1 9M553 370l0 -39M553 342l1 12M554 370l0 -40M554 364l1 5 0 -39M555 367l1 -9M556 368l0 -39M556 344l1 -10M557 368l0 -39"/>
<path stroke="red" d="M557 333l1 -5M558 367l0 -39M558 330l1 9M559 367l0 -40M559 350l1 11M560 366l0 -39M560 366l1 -3M561 365l0 -39M561 363l1 -9M562 364l0 -38M562 341l1 -11M563 364l0 -39 1 2M564 363l0 -39M564 335l1 12M565 363l0 -40M565 357l1 5"/>
<path stroke="red" d="M566 362l0 -39M566 362l1 -2M567 361l0 -39M567 350l1 -12M568 361l0 -39M568 326l1 -5M569 360l0 -39M569 323l1 9M570 360l0 -40M570 331l1 12M571 359l0 -39M571 353l1 6 0 -40M572 356l1 -9M573 357l0 -38M573 334l1 -11M574 357l0 -39"/>
<path stroke="red" d="M574 322l1 -4M575 356l0 -39M575 320l1 8M576 356l0 -40M576 339l1 11M577 355l0 -39M577 355l1 -2M578 354l0 -39M578 352l1 -9M579 354l0 -39M579 330l1 -11M580 353l0 -39 1 2M581 353l0 -40M581 324l1 12M582 352l0 -39M582 346l1 6"/>
<path stroke="red" d="M583 352l0 -40M583 351l1 -2M584 351l0 -39M584 339l1 -12M585 350l0 -39M585 316l1 -5M586 349l0 -39M586 313l1 8M587 349l0 -39M587 321l1 11M588 348l0 -39M588 342l1 6 0 -40M589 345l1 -9M590 347l0 -39M590 323l1 -11M591 346l0 -39"/>
<path stroke="red" d="M591 312l1 -5M592 346l0 -40M592 309l1 9M593 345l0 -39M593 329l1 10M594 345l0 -40M594 344l1 -2M595 344l0 -39M595 341l1 -9M596 343l0 -39M596 319l1 -10M597 343l0 -40 1 3M598 342l0 -39M598 314l1 11M599 341l0 -39M599 335l1 6"/>
<path stroke="red" d="M600 341l0 -39M600 340l1 -2M601 340l0 -39M601 329l1 -13M602 339l0 -39M602 305l1 -5M603 339l0 -40M603 302l1 9M604 338l0 -39M604 310l1 12M605 338l0 -40M605 332l1 5 0 -39M606 335l1 -10M607 336l0 -39M607 312l1 -10M608 336l0 -39"/>
<path stroke="red" d="M608 301l1 -5M609 335l0 -39M609 298l1 9M610 335l0 -40M610 318l1 11M611 334l0 -39M611 333l1 -2M612 333l0 -39M612 331l1 -9M613 332l0 -38M613 309l1 -11M614 332l0 -40 1 3M615 331l0 -39M615 303l1 12M616 331l0 -40M616 325l1 5"/>
<path stroke="red" d="M617 330l0 -39M617 330l1 -2M618 329l0 -39M618 318l1 -13M619 329l0 -39M619 294l1 -5M620 328l0 -39M620 291l1 9M621 328l0 -40M621 299l1 12M622 327l0 -39M622 321l1 6 0 -40M623 324l1 -9M624 325l0 -38M624 302l1 -11M625 325l0 -39"/>
<path stroke="red" d="M625 290l1 -4M626 324l0 -39M626 288l1 8M627 324l0 -40M627 307l1 11M628 323l0 -39M628 323l1 -2M629 322l0 -39M629 320l1 -9M630 322l0 -39M630 298l1 -11M631 321l0 -39 1 2M632 321l0 -40M632 292l1 12M633 320l0 -39M633 314l1 6"/>
<path stroke="red" d="M634 320l0 -40M634 319l1 -2M635 319l0 -39M635 307l1 -12M636 318l0 -39M636 284l1 -5M637 317l0 -39M637 281l1 8M638 317l0 -39M638 289l1 11M639 316l0 -39M639 310l1 6 0 -39M640 313l1 -9M641 315l0 -39M641 291l1 -11M642 314l0 -39"/>
<path stroke="red" d="M642 280l1 -5M643 314l0 -40M643 277l1 9M644 313l0 -39M644 297l1 10M645 313l0 -40M645 312l1 -2M646 312l0 -39M646 310l1 -10M647 311l0 -39M647 287l1 -10M648 311l0 -40 1 3M649 310l0 -39M649 282l1 12M650 310l0 -40M650 304l1 5"/>
<path stroke="red" d="M651 309l0 -39M651 308l1 -2M652 308l0 -39M652 297l1 -13M653 307l0 -38M653 273l1 -5M654 307l0 -40M654 270l1 9M655 306l0 -39M655 278l1 12M656 306l0 -40M656 300l1 5 0 -39M657 303l1 -9M658 304l0 -39M658 281l1 -11M659 304l0 -39"/>
<path stroke="red" d="M659 269l1 -5M660 303l0 -39M660 266l1 9M661 303l0 -40M661 286l1 11M662 302l0 -39M662 302l1 -3M663 301l0 -39M663 299l1 -9M664 301l0 -39M664 277l1 -11M665 300l0 -39 1 2M666 299l0 -39M666 271l1 12M667 299l0 -39M667 293l1 5"/>
<path stroke="red" d="M668 298l0 -39M668 298l1 -2M669 297l0 -39M669 286l1 -12M670 297l0 -39M670 262l1 -5M671 296l0 -39M671 259l1 9M672 296l0 -40M672 268l1 11M673 295l0 -39M673 289l1 6 0 -40M674 292l1 -9M675 294l0 -39M675 270l1 -11M676 293l0 -39"/>
<path stroke="red" d="M676 259l1 -5M677 293l0 -40M677 256l1 8M678 292l0 -39M678 276l1 10M679 292l0 -40M679 291l1 -2M680 290l0 -38M680 288l1 -9M681 290l0 -39M681 266l1 -11M682 289l0 -39 1 3M683 289l0 -40M683 261l1 11M684 288l0 -39M684 282l1 6"/>
<path stroke="red" d="M685 288l0 -40M685 287l1 -2M686 287l0 -39M686 276l1 -13M687 286l0 -39M687 252l1 -5M688 286l0 -40M688 249l1 9M689 285l0 -39M689 257l1 12M690 285l0 -40M690 279l1 5 0 -39M691 282l1 -10M692 283l0 -39M692 259l1 -10M693 283l0 -39"/>
<path stroke="red" d="M693 248l1 -5M694 282l0 -39M694 245l1 9M695 281l0 -39M695 265l1 11M696 281l0 -39M696 280l1 -2M697 280l0 -39M697 278l1 -9M698 279l0 -38M698 256l1 -11M699 279l0 -40 1 3M700 278l0 -39M700 250l1 12M701 278l0 -40M701 272l1 5"/>
<path stroke="red" d="M702 277l0 -39M702 277l1 -2M703 276l0 -39M703 265l1 -12M704 276l0 -39M704 241l1 -5M705 275l0 -39M705 238l1 9M706 275l0 -40M706 246l1 12M707 274l0 -39M707 268l1 6 0 -40M708 271l1 -9M709 273l0 -39M709 249l1 -11M710 272l0 -39"/>
<path stroke="red" d="M710 238l1 -5M711 271l0 -39M711 235l1 8M712 271l0 -39M712 254l1 11M713 270l0 -39M713 270l1 -2M714 269l0 -38M714 267l1 -9M715 269l0 -39M715 245l1 -11M716 268l0 -39 1 2M717 268l0 -40M717 240l1 11M718 267l0 -39M718 261l1 6"/>
<path stroke="red" d="M719 267l0 -40M719 266l1 -2M720 266l0 -39M720 254l1 -12M721 265l0 -39M721 231l1 -5M722 265l0 -40M722 228l1 8M723 264l0 -39M723 236l1 12M724 264l0 -40M724 258l1 5 0 -39M725 260l1 -9M726 262l0 -39M726 238l1 -10M727 261l0 -38"/>
<path stroke="red" d="M727 227l1 -5M728 261l0 -39M728 224l1 9M729 260l0 -39M729 244l1 10M730 260l0 -39M730 259l1 -2M731 259l0 -39M731 257l1 -9M732 258l0 -39M732 235l1 -11M733 258l0 -40 1 3M734 257l0 -39M734 229l1 12M735 257l0 -40M735 251l1 5"/>
<path stroke="red" d="M736 256l0 -39M736 256l1 -2M737 255l0 -39M737 244l1 -13M738 255l0 -39M738 220l1 -5M739 254l0 -39M739 217l1 9M740 254l0 -40M740 225l1 12M741 253l0 -39M741 247l1 6 0 -40M742 250l1 -9M743 251l0 -38M743 228l1 -11M744 251l0 -39"/>
<path stroke="red" d="M744 217l1 -5M745 250l0 -39M745 214l1 8M746 250l0 -39M746 233l1 11M747 249l0 -39M747 249l1 -2M748 248l0 -38M748 246l1 -9M749 248l0 -39M749 224l1 -11M750 247l0 -39 1 2M751 247l0 -40M751 219l1 11M752 246l0 -39M752 240l1 6"/>
<path stroke="red" d="M753 246l0 -40M753 245l1 -2M754 245l0 -39M754 233l1 -12M755 244l0 -39M755 210l1 -5M756 244l0 -40M756 207l1 8M757 243l0 -39M757 215l1 12M758 243l0 -40M758 237l1 5 0 -39M759 239l1 -9M760 241l0 -39M760 217l1 -10M761 240l0 -38"/>
<path stroke="red" d="M761 206l1 -5M762 240l0 -39M762 203l1 9M763 239l0 -39M763 223l1 10M764 239l0 -39M764 238l1 -2M765 238l0 -39M765 236l1 -9M766 237l0 -38M766 214l1 -11M767 237l0 -40 1 3M768 236l0 -39M768 208l1 12M769 236l0 -40M769 230l1 5"/>
<path stroke="red" d="M770 235l0 -39M770 235l1 -2M771 234l0 -39M771 223l1 -12M772 234l0 -39M772 199l1 -5M773 233l0 -39M773 196l1 9M774 233l0 -40M774 204l1 12M775 232l0 -39M775 226l1 6 0 -40M776 229l1 -9M777 231l0 -39M777 207l1 -11M778 230l0 -39"/>
<path stroke="red" d="M778 196l1 -5M779 230l0 -40M779 193l1 8M780 229l0 -39M780 212l1 11M781 228l0 -39M781 228l1 -2M782 227l0 -38M782 225l1 -9M783 227l0 -39M783 203l1 -11M784 226l0 -39 1 2M785 226l0 -40M785 198l1 11M786 225l0 -39M786 219l1 6"/>
<path stroke="red" d="M787 225l0 -40M787 224l1 -2M788 224l0 -39M788 213l1 -13M789 223l0 -39M789 189l1 -5M790 223l0 -40M790 186l1 9M791 222l0 -39M791 194l1 12M792 222l0 -40M792 216l1 5 0 -39M793 219l1 -10M794 220l0 -39M794 196l1 -10M795 220l0 -39"/>
<path stroke="red" d="M795 185l1 -5M796 219l0 -39M796 182l1 9M797 219l0 -40M797 202l1 11M798 218l0 -39M798 218l1 -3M799 217l0 -39M799 215l1 -9M800 216l0 -38M800 193l1 -11M801 216l0 -39 1 2M802 215l0 -39M802 187l1 12M803 215l0 -39M803 209l1 5"/>
<path stroke="red" d="M804 214l0 -39M804 214l1 -2M805 213l0 -39M805 202l1 -12M806 213l0 -39M806 178l1 -5M807 212l0 -39M807 175l1 9M808 212l0 -40M808 184l1 11M809 211l0 -39M809 205l1 6 0 -40M810 208l1 -9M811 210l0 -39M811 186l1 -11M812 209l0 -39"/>
<path stroke="red" d="M812 175l1 -5M813 209l0 -40M813 172l1 8M814 208l0 -39M814 192l1 10M815 208l0 -40M815 207l1 -2M816 207l0 -39M816 204l1 -9M817 206l0 -39M817 182l1 -10M818 206l0 -40 1 3M819 205l0 -39M819 177l1 12M820 204l0 -39M820 199l1 5"/>
<path stroke="red" d="M821 204l0 -39M821 203l1 -2M822 203l0 -39M822 192l1 -13M823 202l0 -38M823 168l1 -5M824 202l0 -39M824 165l1 9M825 201l0 -39M825 173l1 12M826 201l0 -40M826 195l1 5 0 -39M827 198l1 -9M828 199l0 -39M828 176l1 -11M829 199l0 -39"/>
<path stroke="red" d="M829 164l1 -5M830 198l0 -39M830 161l1 9M831 198l0 -40M831 181l1 11M832 197l0 -39M832 197l1 -2M833 196l0 -39M833 194l1 -9M834 196l0 -39M834 172l1 -11M835 195l0 -39 1 2M836 195l0 -40M836 166l1 12M837 194l0 -39M837 188l1 6"/>
<path stroke="red" d="M838 194l0 -40M838 193l1 -2M839 193l0 -39M839 181l1 -12M840 192l0 -39M840 158l1 -5M841 192l0 -40M841 155l1 8M842 191l0 -39M842 163l1 12M843 190l0 -39M843 185l1 5 0 -39M844 187l1 -9M845 189l0 -39M845 165l1 -11M846 188l0 -38"/>
<path stroke="red" d="M846 154l1 -5M847 188l0 -39M847 151l1 9M848 187l0 -39M848 171l1 10M849 187l0 -40M849 186l1 -2M850 186l0 -39M850 184l1 -9M851 185l0 -39M851 162l1 -11M852 185l0 -40 1 3M853 184l0 -39M853 156l1 12M854 184l0 -40M854 178l1 5"/>
<path stroke="red" d="M855 183l0 -39M855 183l1 -2M856 182l0 -39M856 171l1 -13M857 182l0 -39M857 147l1 -5M858 181l0 -39M858 144l1 9M859 181l0 -40M859 152l1 12M860 180l0 -39M860 174l1 6 0 -40M861 177l1 -9M862 179l0 -39M862 155l1 -11M863 178l0 -39"/>
<path stroke="red" d="M863 144l1 -5M864 178l0 -40M864 141l1 8M865 177l0 -39M865 161l1 10M866 177l0 -40M866 176l1 -2M867 175l0 -38M867 173l1 -9M868 175l0 -39M868 151l1 -11M869 174l0 -39 1 3M870 174l0 -39M870 146l1 11M871 173l0 -39M871 167l1 6"/>
<path stroke="red" d="M872 173l0 -39M872 172l1 -2M873 172l0 -39M873 161l1 -13M874 171l0 -39M874 137l1 -5M875 171l0 -40M875 134l1 9M876 170l0 -39M876 142l1 12M877 170l0 -40M877 164l1 5 0 -39M878 167l1 -9M879 168l0 -39M879 145l1 -11M880 168l0 -39"/>
<path stroke="red" d="M880 133l1 -5M881 167l0 -39M881 130l1 9M882 167l0 -40M882 150l1 11M883 166l0 -39M883 166l1 -2M884 165l0 -39M884 163l1 -9M885 165l0 -39M885 141l1 -11M886 164l0 -39 1 2M887 164l0 -40M887 135l1 12M888 163l0 -39M888 157l1 6"/>
<path stroke="red" d="M889 163l0 -40M889 162l1 -2M890 162l0 -39M890 150l1 -12M891 161l0 -39M891 127l1 -5M892 161l0 -40M892 124l1 8M893 160l0 -39M893 132l1 11M894 159l0 -39M894 154l1 5 0 -39M895 156l1 -9M896 158l0 -39M896 134l1 -11M897 157l0 -38"/>
<path stroke="red" d="M897 123l1 -5M898 157l0 -39M898 120l1 9M899 156l0 -39M899 140l1 10M900 156l0 -39M900 155l1 -2M901 155l0 -39M901 153l1 -9M902 154l0 -39M902 131l1 -11M903 154l0 -40 1 3M904 153l0 -39M904 125l1 12M905 153l0 -40M905 147l1 5"/>
<path stroke="red" d="M906 152l0 -39M906 152l1 -2M907 151l0 -39M907 140l1 -12M908 151l0 -39M908 116l1 -5M909 150l0 -39M909 113l1 9M910 150l0 -40M910 122l1 11M911 149l0 -39M911 143l1 6 0 -40M912 146l1 -9M913 148l0 -39M913 124l1 -11M914 147l0 -39"/>
<path stroke="red" d="M914 113l1 -5M915 147l0 -40M915 110l1 8M916 146l0 -39M916 130l1 10M917 146l0 -40M917 145l1 -2M918 145l0 -39M918 142l1 -9M919 144l0 -39M919 120l1 -10M920 144l0 -40 1 3M921 143l0 -39M921 115l1 12M922 142l0 -39M922 137l1 5"/>
<path stroke="red" d="M923 142l0 -39M923 141l1 -2M924 141l0 -39M924 130l1 -13M925 140l0 -38M925 106l1 -5M926 140l0 -39M926 103l1 9M927 139l0 -39M927 111l1 12M928 139l0 -39M928 133l1 5 0 -39M929 136l1 -9M930 137l0 -38M930 114l1 -11M931 137l0 -39"/>
<path stroke="red" d="M931 102l1 -5M932 136l0 -39M932 99l1 9M933 136l0 -40M933 119l1 11M934 135l0 -39M934 135l1 -2M935 134l0 -39M935 132l1 -9M936 134l0 -39M936 110l1 -11M937 133l0 -39 1 2M938 133l0 -40M938 105l1 11M939 132l0 -39M939 126l1 6 0 -40"/>
<path stroke="red" d="M940 131l1 -2M941 131l0 -39M941 120l1 -13M942 130l0 -39M942 96l1 -5M943 130l0 -40M943 93l1 8M944 129l0 -39M944 101l1 12M945 129l0 -32"/>
</svg>
