<?xml version="1.0" standalone="yes"?>
<!DOCTYPE svg PUBLIC "-//W3C//DTD SVG 1.1//EN"
 "http://www.w3.org/Graphics/SVG/1.1/DTD/svg11.dtd">
<svg xmlns="http://www.w3.org/2000/svg" version="1.1"
  width="100%" height="100%" viewBox="0 0 1024 768"
  style="fill: none; font-family: Arial;
 font: Arial;
">

<!-- Creator: NGspice -->

<rect x="0" y="0" width="1024" height="768" fill="white" stroke="none"/>
<text stroke="none" fill="black" font-size="16" x="358" y="752">
Time(ns)
</text>
<text transform="rotate(-90, 20, 414)"  stroke="none" fill="black" font-size="16" x="20" y="414">
Output
</text>
<text stroke="none" fill="black" font-size="16" x="10" y="16">
tran1: OTA_2stage Transient Plot(ss)
</text>
<path stroke="black" d="M85 704l0 -638"/>
<text stroke="none" fill="black" font-size="16" x="70" y="728">
0.0
</text>
<path stroke="black" stroke-dasharray="1,2" d="M172 704l0 -638"/>
<text stroke="none" fill="black" font-size="16" x="157" y="728">
0.5
</text>
<path stroke="black" stroke-dasharray="1,2" d="M259 704l0 -638"/>
<text stroke="none" fill="black" font-size="16" x="244" y="728">
1.0
</text>
<path stroke="black" stroke-dasharray="1,2" d="M346 704l0 -638"/>
<text stroke="none" fill="black" font-size="16" x="331" y="728">
1.5
</text>
<path stroke="black" stroke-dasharray="1,2" d="M433 704l0 -638"/>
<text stroke="none" fill="black" font-size="16" x="418" y="728">
2.0
</text>
<path stroke="black" stroke-dasharray="1,2" d="M520 704l0 -638"/>
<text stroke="none" fill="black" font-size="16" x="505" y="728">
2.5
</text>
<path stroke="black" stroke-dasharray="1,2" d="M607 704l0 -638"/>
<text stroke="none" fill="black" font-size="16" x="592" y="728">
3.0
</text>
<path stroke="black" stroke-dasharray="1,2" d="M694 704l0 -638"/>
<text stroke="none" fill="black" font-size="16" x="679" y="728">
3.5
</text>
<path stroke="black" stroke-dasharray="1,2" d="M781 704l0 -638"/>
<text stroke="none" fill="black" font-size="16" x="766" y="728">
4.0
</text>
<path stroke="black" stroke-dasharray="1,2" d="M868 704l0 -638"/>
<text stroke="none" fill="black" font-size="16" x="853" y="728">
4.5
</text>
<path stroke="black" stroke-dasharray="1,2" d="M955 704l0 -638"/>
<text stroke="none" fill="black" font-size="16" x="940" y="728">
5.0
</text>
<text stroke="none" fill="black" font-size="16" x="614" y="752">
us
</text>
<path stroke="black" stroke-dasharray="1,2" d="M85 704l870 0"/>
<text stroke="none" fill="black" font-size="16" x="43" y="712">
2.92
</text>
<path stroke="black" stroke-dasharray="1,2" d="M85 646l870 0"/>
<text stroke="none" fill="black" font-size="16" x="43" y="654">
2.94
</text>
<path stroke="black" stroke-dasharray="1,2" d="M85 588l870 0"/>
<text stroke="none" fill="black" font-size="16" x="43" y="596">
2.96
</text>
<path stroke="black" stroke-dasharray="1,2" d="M85 530l870 0"/>
<text stroke="none" fill="black" font-size="16" x="43" y="538">
2.98
</text>
<path stroke="black" stroke-dasharray="1,2" d="M85 472l870 0"/>
<text stroke="none" fill="black" font-size="16" x="43" y="480">
3.00
</text>
<path stroke="black" stroke-dasharray="1,2" d="M85 414l870 0"/>
<text stroke="none" fill="black" font-size="16" x="43" y="422">
3.02
</text>
<path stroke="black" stroke-dasharray="1,2" d="M85 356l870 0"/>
<text stroke="none" fill="black" font-size="16" x="43" y="364">
3.04
</text>
<path stroke="black" stroke-dasharray="1,2" d="M85 298l870 0"/>
<text stroke="none" fill="black" font-size="16" x="43" y="306">
3.06
</text>
<path stroke="black" stroke-dasharray="1,2" d="M85 240l870 0"/>
<text stroke="none" fill="black" font-size="16" x="43" y="248">
3.08
</text>
<path stroke="black" stroke-dasharray="1,2" d="M85 182l870 0"/>
<text stroke="none" fill="black" font-size="16" x="43" y="190">
3.10
</text>
<path stroke="black" stroke-dasharray="1,2" d="M85 124l870 0"/>
<text stroke="none" fill="black" font-size="16" x="43" y="132">
3.12
</text>
<path stroke="black" stroke-dasharray="1,2" d="M85 66l870 0"/>
<text stroke="none" fill="black" font-size="16" x="43" y="74">
3.14
</text>
<text stroke="none" fill="black" font-size="16" x="10" y="32">
V
</text>
<path stroke="red" d="M435 23l43 0"/>
<text stroke="none" fill="black" font-size="16" x="488" y="32">
(tran1.vout)
</text>
<path stroke="red" d="M85 202l0 -2 1 0M86 206l0 -6M86 206l1 3M87 233l0 -24M87 233l1 7M88 273l0 -33M88 273l1 11M89 345l0 -61M89 345l1 14M90 437l0 -78M90 437l1 17M91 538l0 -84M91 538l1 16M92 612l0 -58M92 612l1 13M93 669l0 -44M93 669l1 5M94 680l0 -6"/>
<path stroke="red" d="M94 676l1 -5 0 -40 1 -12 0 -54 1 -16 0 -78 1 -16 0 -75 1 -14 0 -62 1 -11 0 -39 1 -8 0 -33 1 -5 0 -16 1 -2 0 -2M103 189l1 2M104 203l0 -12M104 203l1 5M105 241l0 -33M105 241l1 8M106 301l0 -52M106 301l1 12M107 383l0 -70M107 383l1 16"/>
<path stroke="red" d="M108 463l0 -64M108 463l1 16M109 556l0 -77M109 556l1 14M110 625l0 -55M110 625l1 7M111 649l0 -17M111 649l1 -2 0 -18 1 -8 0 -55 1 -13 0 -73 1 -16 0 -74 1 -14 0 -52 1 -12 0 -53 1 -9 0 -37 1 -6 0 -18 1 -3 0 -9 1 0M121 185l0 -8"/>
<path stroke="red" d="M121 185l1 3M122 213l0 -25M122 213l1 7M123 254l0 -34M123 254l1 10M124 323l0 -59M124 323l1 13M125 410l0 -74M125 410l1 16M126 503l0 -77M126 503l1 14M127 569l0 -52M127 569l1 11M128 615l0 -35M128 615l1 4M129 621l0 -7 1 -5 0 -43"/>
<path stroke="red" d="M130 566l1 -11 0 -53 1 -14 0 -72 1 -14 0 -68 1 -13 0 -55 1 -10 0 -34 1 -7 0 -28 1 -4 0 -14 1 -1M138 170l0 -2M138 170l1 2M139 186l0 -14M139 186l1 5M140 224l0 -33M140 224l1 8M141 283l0 -51M141 283l1 12M142 363l0 -68M142 363l1 14"/>
<path stroke="red" d="M143 437l0 -60M143 437l1 15M144 522l0 -70M144 522l1 12M145 581l0 -47M145 581l1 5M146 596l0 -10M146 595l1 -2 0 -21 1 -9 0 -54 1 -13 0 -68 1 -14 0 -68 1 -13 0 -47 1 -11 0 -47 1 -8 0 -32 1 -5 0 -18 1 -2 0 -4 1 0M156 169l0 -10"/>
<path stroke="red" d="M156 169l1 4M157 199l0 -26M157 199l1 7M158 250l0 -44M158 250l1 10M159 307l0 -47M159 307l1 13M160 391l0 -71M160 391l1 14M161 476l0 -71M161 476l1 13M162 544l0 -55M162 544l1 8M163 572l0 -20M163 572l1 2M164 575l0 -11 1 -6 0 -44"/>
<path stroke="red" d="M165 514l1 -11 0 -64 1 -13 0 -54 1 -13 0 -62 1 -11 0 -50 1 -9 0 -36 1 -6 0 -19 1 -3 0 -11 1 0M173 156l0 -5M173 156l1 2M174 178l0 -20M174 178l1 6M175 212l0 -28M175 212l1 8M176 271l0 -51M176 271l1 12M177 348l0 -65M177 348l1 14"/>
<path stroke="red" d="M178 432l0 -70M178 432l1 14M179 496l0 -50M179 496l1 11M180 545l0 -38M180 545l1 5M181 555l0 -5M181 553l1 -4 0 -32 1 -10 0 -44 1 -13 0 -65 1 -13 0 -62 1 -12 0 -53 1 -9 0 -33 1 -7 0 -29 1 -4 0 -15 1 -1 0 -2M190 146l1 1M191 157l0 -10"/>
<path stroke="red" d="M191 157l1 4M192 189l0 -28M192 189l1 7M193 240l0 -44M193 240l1 10M194 310l0 -60M194 310l1 13M195 377l0 -54M195 377l1 14M196 457l0 -66M196 457l1 12M197 516l0 -47M197 516l1 7M198 538l0 -15M198 538l1 0 0 -15 1 -6 0 -46 1 -11"/>
<path stroke="red" d="M201 460l0 -61 1 -13 0 -62 1 -12 0 -45 1 -10 0 -46 1 -8 0 -32 1 -5 0 -16 1 -3 0 -8 1 0M208 145l0 -6M208 145l1 3M209 169l0 -21M209 169l1 6M210 204l0 -29M210 204l1 9M211 263l0 -50M211 263l1 12M212 338l0 -63M212 338l1 14M213 418l0 -66"/>
<path stroke="red" d="M213 418l1 13M214 476l0 -45M214 476l1 9M215 517l0 -32M215 517l1 3M216 523l0 -5 1 -4 0 -36 1 -9 0 -44 1 -12 0 -62 1 -12 0 -59 1 -11 0 -48 1 -8 0 -30 1 -7 0 -25 1 -4 0 -12 1 -1M225 136l0 -3M225 136l1 1M226 149l0 -12M226 149l1 4"/>
<path stroke="red" d="M227 182l0 -29M227 182l1 7M228 234l0 -45M228 234l1 10M229 303l0 -59M229 303l1 13M230 368l0 -52M230 368l1 13M231 442l0 -61M231 442l1 11M232 494l0 -41M232 494l1 6M233 509l0 -9M233 509l1 -2 0 -18 1 -7 0 -46 1 -11 0 -59 1 -12"/>
<path stroke="red" d="M237 354l0 -59 1 -11 0 -42 1 -9 0 -42 1 -7 0 -29 1 -5 0 -16 1 -2 0 -3 1 0M243 137l0 -8M243 137l1 3M244 163l0 -23M244 163l1 6M245 208l0 -39M245 208l1 9M246 259l0 -42M246 259l1 12M247 333l0 -62M247 333l1 12M248 408l0 -63M248 408l1 12"/>
<path stroke="red" d="M249 469l0 -49M249 469l1 7M250 495l0 -19M250 495l1 2 0 -8 1 -5 0 -38 1 -10 0 -55 1 -11 0 -48 1 -11 0 -55 1 -10 0 -45 1 -8 0 -33 1 -5 0 -17 1 -3 0 -10 1 -1M260 128l0 -4M260 128l1 2M261 148l0 -18M261 148l1 5M262 178l0 -25"/>
<path stroke="red" d="M262 178l1 8M263 231l0 -45M263 231l1 10M264 299l0 -58M264 299l1 13M265 375l0 -63M265 375l1 12M266 432l0 -45M266 432l1 10M267 477l0 -35M267 477l1 4M268 487l0 -6M268 485l1 -3 0 -28 1 -8 0 -39 1 -11 0 -58 1 -11 0 -56 1 -11"/>
<path stroke="red" d="M273 260l0 -47 1 -9 0 -30 1 -6 0 -26 1 -4 0 -14 1 -2 0 -2M277 121l1 1M278 132l0 -10M278 132l1 3M279 160l0 -25M279 160l1 6M280 206l0 -40M280 206l1 9M281 269l0 -54M281 269l1 12M282 330l0 -49M282 330l1 12M283 402l0 -60M283 402l1 11"/>
<path stroke="red" d="M284 456l0 -43M284 456l1 7M285 477l0 -14M285 477l1 0 0 -13 1 -5 0 -40 1 -10 0 -54 1 -12 0 -56 1 -11 0 -41 1 -9 0 -42 1 -7 0 -30 1 -5 0 -15 1 -2 0 -8 1 0M295 123l0 -6M295 123l1 2M296 144l0 -19M296 144l1 6M297 176l0 -26M297 176l1 8"/>
<path stroke="red" d="M298 230l0 -46M298 230l1 11M299 299l0 -58M299 299l1 12M300 372l0 -61M300 372l1 11M301 425l0 -42M301 425l1 8M302 463l0 -30M302 463l1 3M303 469l0 -5 1 -3 0 -31 1 -9 0 -40 1 -10 0 -56 1 -11 0 -54 1 -10 0 -44 1 -8 0 -28 1 -5"/>
<path stroke="red" d="M310 155l0 -24 1 -4 0 -11 1 -1M312 116l0 -2M312 116l1 1M313 128l0 -11M313 128l1 4M314 158l0 -26M314 158l1 7M315 206l0 -41M315 206l1 10M316 270l0 -54M316 270l1 11M317 329l0 -48M317 329l1 13M318 398l0 -56M318 398l1 10M319 447l0 -39"/>
<path stroke="red" d="M319 447l1 5M320 461l0 -9M320 461l1 -2 0 -15 1 -6 0 -42 1 -10 0 -54 1 -11 0 -54 1 -11 0 -38 1 -9 0 -39 1 -6 0 -28 1 -4 0 -15 1 -2 0 -4 1 0M330 119l0 -8M330 119l1 3M331 143l0 -21M331 143l1 6M332 185l0 -36M332 185l1 8M333 232l0 -39"/>
<path stroke="red" d="M333 232l1 11M334 300l0 -57M334 300l1 12M335 371l0 -59M335 371l1 11M336 427l0 -45M336 427l1 7M337 452l0 -18M337 452l1 2 0 -7 1 -4 0 -35 1 -9 0 -50 1 -11 0 -44 1 -10 0 -51 1 -10 0 -42 1 -7 0 -31 1 -5 0 -16 1 -3 0 -9 1 -1"/>
<path stroke="red" d="M347 112l0 -3M347 112l1 2M348 130l0 -16M348 130l1 5M349 159l0 -24M349 159l1 7M350 208l0 -42M350 208l1 10M351 272l0 -54M351 272l1 12M352 343l0 -59M352 343l1 11M353 396l0 -42M353 396l1 9M354 439l0 -34M354 439l1 4M355 448l0 -5"/>
<path stroke="red" d="M355 447l1 -3 0 -25 1 -8 0 -36 1 -10 0 -53 1 -11 0 -52 1 -10 0 -45 1 -8 0 -28 1 -6 0 -25 1 -4 0 -13 1 -1 0 -2 1 1M365 117l0 -9M365 117l1 3M366 143l0 -23M366 143l1 6M367 187l0 -38M367 187l1 9M368 246l0 -50M368 246l1 11M369 303l0 -46"/>
<path stroke="red" d="M369 303l1 12M370 371l0 -56M370 371l1 10M371 423l0 -42M371 423l1 6M372 443l0 -14M372 443l1 0 0 -11 1 -6 0 -36 1 -10 0 -50 1 -11 0 -53 1 -10 0 -39 1 -9 0 -39 1 -7 0 -28 1 -5 0 -14 1 -3 0 -7 1 0M382 110l0 -5M382 110l1 2M383 130l0 -18"/>
<path stroke="red" d="M383 130l1 5M384 160l0 -25M384 160l1 8M385 212l0 -44M385 212l1 10M386 276l0 -54M386 276l1 12M387 345l0 -57M387 345l1 11M388 396l0 -40M388 396l1 8M389 433l0 -29M389 433l1 2M390 438l0 -4 1 -3 0 -29 1 -8 0 -37 1 -10 0 -53 1 -10"/>
<path stroke="red" d="M394 284l0 -51 1 -9 0 -43 1 -7 0 -26 1 -6 0 -23 1 -3 0 -11 1 -1M399 105l0 -2M399 105l1 1M400 116l0 -10M400 116l1 4M401 145l0 -25M401 145l1 6M402 190l0 -39M402 190l1 10M403 251l0 -51M403 251l1 11M404 308l0 -46M404 308l1 11"/>
<path stroke="red" d="M405 373l0 -54M405 373l1 10M406 420l0 -37M406 420l1 4M407 434l0 -10M407 434l1 -2 0 -14 1 -6 0 -39 1 -10 0 -51 1 -10 0 -52 1 -10 0 -36 1 -9 0 -37 1 -6 0 -26 1 -5 0 -15 1 -1 0 -4 1 0M417 109l0 -8M417 109l1 2M418 132l0 -21"/>
<path stroke="red" d="M418 132l1 5M419 171l0 -34M419 171l1 9M420 217l0 -37M420 217l1 10M421 282l0 -55M421 282l1 11M422 349l0 -56M422 349l1 11M423 403l0 -43M423 403l1 7M424 427l0 -17M424 427l1 2M425 430l0 -7 1 -4 0 -32 1 -9 0 -48 1 -10 0 -42 1 -10"/>
<path stroke="red" d="M429 268l0 -49 1 -9 0 -40 1 -7 0 -30 1 -5 0 -15 1 -3 0 -9 1 -1M434 103l0 -3M434 103l1 2M435 121l0 -16M435 121l1 4M436 148l0 -23M436 148l1 6M437 195l0 -41M437 195l1 10M438 257l0 -52M438 257l1 11M439 324l0 -56M439 324l1 11"/>
<path stroke="red" d="M440 376l0 -41M440 376l1 9M441 417l0 -32M441 417l1 4M442 426l0 -5M442 425l1 -2 0 -24 1 -7 0 -35 1 -9 0 -51 1 -11 0 -50 1 -9 0 -43 1 -8 0 -27 1 -6 0 -24 1 -4 0 -13 1 -2 0 -1 1 1M452 108l0 -8M452 108l1 4M453 134l0 -22M453 134l1 6"/>
<path stroke="red" d="M454 176l0 -36M454 176l1 8M455 233l0 -49M455 233l1 11M456 288l0 -44M456 288l1 11M457 354l0 -55M457 354l1 10M458 404l0 -40M458 404l1 5M459 423l0 -14M459 423l1 0 0 -10 1 -5 0 -35 1 -9 0 -49 1 -10 0 -51 1 -10 0 -37 1 -9 0 -38"/>
<path stroke="red" d="M465 160l1 -6 0 -28 1 -5 0 -14 1 -2 0 -7 1 -1M469 102l0 -5M469 102l1 3M470 122l0 -17M470 122l1 5M471 151l0 -24M471 151l1 8M472 201l0 -42M472 201l1 10M473 264l0 -53M473 264l1 11M474 330l0 -55M474 330l1 11M475 379l0 -38M475 379l1 8"/>
<path stroke="red" d="M476 415l0 -28M476 415l1 3M477 421l0 -4 1 -3 0 -28 1 -7 0 -36 1 -10 0 -51 1 -10 0 -49 1 -9 0 -41 1 -7 0 -26 1 -5 0 -22 1 -4 0 -11 1 -1M486 98l0 -2M486 98l1 1M487 109l0 -10M487 109l1 4M488 137l0 -24M488 137l1 6M489 181l0 -38"/>
<path stroke="red" d="M489 181l1 9M490 240l0 -50M490 240l1 11M491 295l0 -44M491 295l1 11M492 359l0 -53M492 359l1 9M493 404l0 -36M493 404l1 5M494 418l0 -9M494 418l1 -1 0 -14 1 -6 0 -37 1 -10 0 -49 1 -10 0 -50 1 -10 0 -35 1 -9 0 -36 1 -6 0 -26"/>
<path stroke="red" d="M501 119l1 -4 0 -14 1 -2 0 -4 1 1M504 102l0 -6M504 102l1 3M505 125l0 -20M505 125l1 5M506 164l0 -34M506 164l1 8M507 208l0 -36M507 208l1 10M508 271l0 -53M508 271l1 11M509 337l0 -55M509 337l1 10M510 390l0 -43M510 390l1 6M511 413l0 -17"/>
<path stroke="red" d="M511 413l1 2M512 416l0 -7 1 -3 0 -32 1 -8 0 -46 1 -10 0 -41 1 -10 0 -47 1 -9 0 -39 1 -7 0 -29 1 -5 0 -16 1 -2 0 -9 1 -1M521 98l0 -3M521 98l1 1M522 115l0 -16M522 115l1 4M523 141l0 -22M523 141l1 7M524 188l0 -40M524 188l1 9"/>
<path stroke="red" d="M525 248l0 -51M525 248l1 11M526 314l0 -55M526 314l1 11M527 364l0 -39M527 364l1 9M528 405l0 -32M528 405l1 3M529 414l0 -6M529 413l1 -2 0 -24 1 -7 0 -33 1 -9 0 -50 1 -10 0 -49 1 -9 0 -43 1 -7 0 -27 1 -6 0 -23 1 -4 0 -13 1 -1"/>
<path stroke="red" d="M538 96l0 -2M538 95l1 1M539 103l0 -7M539 103l1 4M540 128l0 -21M540 128l1 6M541 169l0 -35M541 169l1 9M542 225l0 -47M542 225l1 11M543 279l0 -43M543 279l1 11M544 344l0 -54M544 344l1 9M545 392l0 -39M545 392l1 6M546 412l0 -14"/>
<path stroke="red" d="M546 412l1 0 0 -10 1 -5 0 -34 1 -9 0 -47 1 -10 0 -50 1 -10 0 -36 1 -8 0 -38 1 -6 0 -28 1 -4 0 -14 1 -2 0 -8 1 0M556 98l0 -5M556 98l1 2M557 118l0 -18M557 118l1 4M558 146l0 -24M558 146l1 7M559 195l0 -42M559 195l1 9M560 256l0 -52"/>
<path stroke="red" d="M560 256l1 11M561 322l0 -55M561 322l1 10M562 369l0 -37M562 369l1 8M563 405l0 -28M563 405l1 3M564 410l0 -3 1 -3 0 -27 1 -7 0 -35 1 -10 0 -49 1 -10 0 -48 1 -9 0 -41 1 -7 0 -25 1 -6 0 -21 1 -4 0 -10 1 -1 0 -1M573 94l1 2M574 105l0 -9"/>
<path stroke="red" d="M574 105l1 4M575 133l0 -24M575 133l1 6M576 176l0 -37M576 176l1 9M577 234l0 -49M577 234l1 10M578 288l0 -44M578 288l1 11M579 350l0 -51M579 350l1 9M580 395l0 -36M580 395l1 5M581 409l0 -9M581 409l1 -1 0 -14 1 -5 0 -37 1 -9 0 -48"/>
<path stroke="red" d="M584 295l1 -10 0 -50 1 -9 0 -35 1 -8 0 -36 1 -6 0 -25 1 -4 0 -15 1 -2 0 -3 1 0M591 99l0 -7M591 99l1 3M592 121l0 -19M592 121l1 5M593 159l0 -33M593 159l1 8M594 203l0 -36M594 203l1 9M595 265l0 -53M595 265l1 11M596 330l0 -54"/>
<path stroke="red" d="M596 330l1 10M597 382l0 -42M597 382l1 6M598 405l0 -17M598 405l1 2M599 408l0 -6 1 -4 0 -31 1 -8 0 -45 1 -10 0 -40 1 -10 0 -47 1 -8 0 -39 1 -7 0 -29 1 -4 0 -16 1 -3 0 -8 1 -1M608 95l0 -3M608 95l1 1M609 111l0 -15M609 111l1 5"/>
<path stroke="red" d="M610 137l0 -21M610 137l1 7M611 183l0 -39M611 183l1 9M612 242l0 -50M612 242l1 11M613 308l0 -55M613 308l1 10M614 357l0 -39M614 357l1 9M615 397l0 -31M615 397l1 4M616 406l0 -5M616 405l1 -2 0 -23 1 -6 0 -33 1 -9 0 -49 1 -10 0 -48"/>
<path stroke="red" d="M620 225l1 -9 0 -42 1 -8 0 -26 1 -6 0 -23 1 -4 0 -12 1 -2 0 -2M625 92l1 1M626 101l0 -8M626 101l1 3M627 125l0 -21M627 125l1 6M628 166l0 -35M628 166l1 8M629 221l0 -47M629 221l1 10M630 274l0 -43M630 274l1 11M631 338l0 -53M631 338l1 9"/>
<path stroke="red" d="M632 386l0 -39M632 386l1 5M633 405l0 -14M633 405l1 0 0 -9 1 -5 0 -34 1 -8 0 -47 1 -10 0 -49 1 -10 0 -36 1 -8 0 -37 1 -6 0 -27 1 -5 0 -13 1 -3 0 -7 1 0M643 95l0 -4M643 95l1 3M644 115l0 -17M644 115l1 5M645 143l0 -23M645 143l1 7"/>
<path stroke="red" d="M646 191l0 -41M646 191l1 9M647 252l0 -52M647 252l1 11M648 317l0 -54M648 317l1 10M649 364l0 -37M649 364l1 8M650 399l0 -27M650 399l1 3M651 404l0 -3 1 -3 0 -26 1 -8 0 -34 1 -9 0 -49 1 -10 0 -48 1 -8 0 -41 1 -7 0 -25 1 -5 0 -22"/>
<path stroke="red" d="M658 106l1 -3 0 -11 1 -1M660 92l0 -2M660 92l1 1M661 103l0 -10M661 103l1 3M662 130l0 -24M662 130l1 6M663 173l0 -37M663 173l1 9M664 230l0 -48M664 230l1 10M665 284l0 -44M665 284l1 11M666 346l0 -51M666 346l1 9M667 390l0 -35"/>
<path stroke="red" d="M667 390l1 4M668 404l0 -10M668 404l1 -1 0 -14 1 -5 0 -37 1 -8 0 -48 1 -10 0 -49 1 -9 0 -35 1 -8 0 -35 1 -6 0 -25 1 -4 0 -15 1 -2 0 -3 1 0M678 97l0 -7M678 97l1 2M679 119l0 -20M679 119l1 5M680 156l0 -32M680 156l1 8M681 199l0 -35"/>
<path stroke="red" d="M681 199l1 10M682 261l0 -52M682 261l1 11M683 325l0 -53M683 325l1 10M684 377l0 -42M684 377l1 6M685 400l0 -17M685 400l1 2M686 403l0 -6 1 -4 0 -30 1 -8 0 -45 1 -10 0 -39 1 -10 0 -46 1 -9 0 -38 1 -7 0 -29 1 -4 0 -16 1 -2 0 -9"/>
<path stroke="red" d="M694 91l1 -1M695 93l0 -3M695 93l1 1M696 109l0 -15M696 109l1 5M697 135l0 -21M697 135l1 7M698 181l0 -39M698 181l1 9M699 239l0 -49M699 239l1 11M700 304l0 -54M700 304l1 11M701 353l0 -38M701 353l1 9M702 393l0 -31M702 393l1 4"/>
<path stroke="red" d="M703 402l0 -5M703 401l1 -2 0 -23 1 -6 0 -33 1 -9 0 -48 1 -10 0 -48 1 -9 0 -41 1 -8 0 -26 1 -6 0 -23 1 -4 0 -12 1 -1 0 -2 1 1M713 99l0 -8M713 99l1 3M714 123l0 -21M714 123l1 6M715 164l0 -35M715 164l1 8M716 218l0 -46M716 218l1 11"/>
<path stroke="red" d="M717 271l0 -42M717 271l1 11M718 334l0 -52M718 334l1 10M719 382l0 -38M719 382l1 6M720 402l0 -14M720 402l1 0 0 -10 1 -5 0 -33 1 -8 0 -47 1 -10 0 -48 1 -10 0 -36 1 -8 0 -37 1 -6 0 -27 1 -4 0 -14 1 -2 0 -7 1 -1M730 94l0 -5M730 94l1 2"/>
<path stroke="red" d="M731 113l0 -17M731 113l1 5M732 141l0 -23M732 141l1 7M733 189l0 -41M733 189l1 9M734 249l0 -51M734 249l1 11M735 314l0 -54M735 314l1 10M736 361l0 -37M736 361l1 7M737 395l0 -27M737 395l1 3M738 401l0 -3 1 -3 0 -26 1 -8 0 -34"/>
<path stroke="red" d="M740 327l1 -9 0 -49 1 -10 0 -47 1 -8 0 -40 1 -7 0 -25 1 -5 0 -22 1 -3 0 -11 1 -1M747 91l0 -2M747 91l1 1M748 101l0 -9M748 101l1 4M749 128l0 -23M749 128l1 6M750 171l0 -37M750 171l1 9M751 228l0 -48M751 228l1 10M752 281l0 -43"/>
<path stroke="red" d="M752 281l1 11M753 343l0 -51M753 343l1 9M754 387l0 -35M754 387l1 4M755 401l0 -10M755 400l1 -1 0 -13 1 -5 0 -36 1 -9 0 -47 1 -10 0 -49 1 -9 0 -34 1 -8 0 -36 1 -6 0 -25 1 -4 0 -14 1 -2 0 -3 1 0M765 96l0 -7M765 96l1 2M766 117l0 -19"/>
<path stroke="red" d="M766 117l1 6M767 155l0 -32M767 155l1 8M768 198l0 -35M768 198l1 9M769 259l0 -52M769 259l1 11M770 323l0 -53M770 323l1 10M771 374l0 -41M771 374l1 7M772 397l0 -16M772 397l1 2M773 400l0 -6 1 -4 0 -29 1 -8 0 -45 1 -10 0 -39 1 -10"/>
<path stroke="red" d="M777 249l0 -46 1 -8 0 -39 1 -6 0 -29 1 -5 0 -15 1 -2 0 -9 1 -1M782 92l0 -3M782 92l1 1M783 108l0 -15M783 108l1 5M784 134l0 -21M784 134l1 6M785 179l0 -39M785 179l1 9M786 238l0 -50M786 238l1 10M787 302l0 -54M787 302l1 10M788 351l0 -39"/>
<path stroke="red" d="M788 351l1 8M789 390l0 -31M789 390l1 4M790 400l0 -6M790 399l1 -2 0 -23 1 -6 0 -33 1 -9 0 -48 1 -10 0 -47 1 -9 0 -41 1 -8 0 -26 1 -6 0 -23 1 -4 0 -12 1 -1 0 -2 1 1M800 98l0 -8M800 98l1 3M801 122l0 -21M801 122l1 6M802 162l0 -34"/>
<path stroke="red" d="M802 162l1 8M803 217l0 -47M803 217l1 10M804 269l0 -42M804 269l1 11M805 332l0 -52M805 332l1 10M806 380l0 -38M806 380l1 5M807 399l0 -14M807 399l1 0 0 -9 1 -5 0 -33 1 -8 0 -46 1 -10 0 -49 1 -9 0 -36 1 -8 0 -37 1 -6 0 -27 1 -4"/>
<path stroke="red" d="M815 112l0 -14 1 -2 0 -7 1 -1M817 93l0 -5M817 93l1 2M818 112l0 -17M818 112l1 5M819 140l0 -23M819 140l1 7M820 188l0 -41M820 188l1 9M821 248l0 -51M821 248l1 10M822 312l0 -54M822 312l1 10M823 359l0 -37M823 359l1 7M824 393l0 -27"/>
<path stroke="red" d="M824 393l1 3M825 399l0 -3 1 -3 0 -26 1 -7 0 -34 1 -10 0 -48 1 -10 0 -47 1 -8 0 -40 1 -7 0 -25 1 -5 0 -22 1 -3 0 -11 1 -1M834 90l0 -2M834 90l1 1M835 101l0 -10M835 101l1 3M836 127l0 -23M836 127l1 6M837 170l0 -37M837 170l1 9"/>
<path stroke="red" d="M838 227l0 -48M838 227l1 10M839 280l0 -43M839 280l1 11M840 341l0 -50M840 341l1 9M841 385l0 -35M841 385l1 4M842 399l0 -10M842 399l1 -1 0 -13 1 -6 0 -36 1 -8 0 -48 1 -9 0 -49 1 -9 0 -34 1 -8 0 -35 1 -6 0 -25 1 -4 0 -15 1 -1"/>
<path stroke="red" d="M851 92l0 -4 1 0M852 95l0 -7M852 95l1 3M853 117l0 -19M853 117l1 5M854 154l0 -32M854 154l1 8M855 197l0 -35M855 197l1 9M856 258l0 -52M856 258l1 11M857 322l0 -53M857 322l1 9M858 373l0 -42M858 373l1 6M859 396l0 -17M859 396l1 2"/>
<path stroke="red" d="M860 398l0 -5 1 -4 0 -30 1 -8 0 -44 1 -10 0 -39 1 -10 0 -46 1 -8 0 -38 1 -7 0 -29 1 -4 0 -15 1 -3 0 -9 1 -1M869 91l0 -3M869 91l1 2M870 108l0 -15M870 108l1 4M871 133l0 -21M871 133l1 7M872 178l0 -38M872 178l1 9M873 237l0 -50"/>
<path stroke="red" d="M873 237l1 10M874 301l0 -54M874 301l1 10M875 349l0 -38M875 349l1 9M876 389l0 -31M876 389l1 4M877 398l0 -5M877 397l1 -2 0 -22 1 -7 0 -32 1 -9 0 -48 1 -10 0 -47 1 -9 0 -41 1 -8 0 -26 1 -5 0 -24 1 -3 0 -13 1 -1 0 -2M886 89l1 1"/>
<path stroke="red" d="M887 97l0 -7M887 97l1 3M888 122l0 -22M888 122l1 5M889 162l0 -35M889 162l1 8M890 216l0 -46M890 216l1 10M891 268l0 -42M891 268l1 11M892 331l0 -52M892 331l1 9M893 379l0 -39M893 379l1 5M894 398l0 -14M894 398l1 0 0 -10 1 -4 0 -33"/>
<path stroke="red" d="M896 351l1 -8 0 -46 1 -10 0 -49 1 -9 0 -36 1 -8 0 -36 1 -7 0 -26 1 -5 0 -13 1 -3 0 -7 1 0M904 93l0 -5M904 93l1 2M905 112l0 -17M905 112l1 4M906 139l0 -23M906 139l1 7M907 187l0 -41M907 187l1 9M908 247l0 -51M908 247l1 11M909 311l0 -53"/>
<path stroke="red" d="M909 311l1 10M910 357l0 -36M910 357l1 8M911 392l0 -27M911 392l1 3M912 398l0 -3 1 -3 0 -26 1 -7 0 -34 1 -9 0 -49 1 -10 0 -46 1 -9 0 -40 1 -7 0 -24 1 -6 0 -21 1 -3 0 -11 1 -1 0 -1M921 89l1 2M922 100l0 -9M922 100l1 4M923 127l0 -23"/>
<path stroke="red" d="M923 127l1 6M924 169l0 -36M924 169l1 9M925 226l0 -48M925 226l1 10M926 279l0 -43M926 279l1 11M927 340l0 -50M927 340l1 9M928 384l0 -35M928 384l1 4M929 398l0 -10M929 398l1 -1 0 -13 1 -6 0 -36 1 -8 0 -47 1 -10 0 -48 1 -9 0 -35"/>
<path stroke="red" d="M934 185l1 -8 0 -35 1 -6 0 -25 1 -4 0 -14 1 -2 0 -3 1 0M939 95l0 -7M939 95l1 2M940 116l0 -19M940 116l1 5M941 153l0 -32M941 153l1 8M942 196l0 -35M942 196l1 10M943 257l0 -51M943 257l1 11M944 321l0 -53M944 321l1 9M945 372l0 -42"/>
<path stroke="red" d="M945 372l1 6M946 395l0 -17M946 395l1 2 0 -5 1 -4 0 -30 1 -8 0 -44 1 -10 0 -39 1 -10 0 -45 1 -9 0 -38 1 -7 0 -28 1 -5 0 -15 1 -2 0 -6"/>
</svg>
