<?xml version="1.0" standalone="yes"?>
<!DOCTYPE svg PUBLIC "-//W3C//DTD SVG 1.1//EN"
 "http://www.w3.org/Graphics/SVG/1.1/DTD/svg11.dtd">
<svg xmlns="http://www.w3.org/2000/svg" version="1.1"
  width="100%" height="100%" viewBox="0 0 1024 768"
  style="fill: none; font-family: Arial;
 font: Arial;
">

<!-- Creator: NGspice -->

<rect x="0" y="0" width="1024" height="768" fill="white" stroke="none"/>
<text stroke="none" fill="black" font-size="16" x="358" y="752">
Time(ns)
</text>
<text transform="rotate(-90, 20, 414)"  stroke="none" fill="black" font-size="16" x="20" y="414">
Output
</text>
<text stroke="none" fill="black" font-size="16" x="10" y="16">
tran1: OTA_2stage Transient Plot
</text>
<path stroke="black" d="M105 704l0 -639"/>
<text stroke="none" fill="black" font-size="16" x="90" y="728">
0.0
</text>
<path stroke="black" stroke-dasharray="1,2" d="M188 704l0 -639"/>
<text stroke="none" fill="black" font-size="16" x="168" y="728">
10.0
</text>
<path stroke="black" stroke-dasharray="1,2" d="M271 704l0 -639"/>
<text stroke="none" fill="black" font-size="16" x="251" y="728">
20.0
</text>
<path stroke="black" stroke-dasharray="1,2" d="M354 704l0 -639"/>
<text stroke="none" fill="black" font-size="16" x="334" y="728">
30.0
</text>
<path stroke="black" stroke-dasharray="1,2" d="M437 704l0 -639"/>
<text stroke="none" fill="black" font-size="16" x="417" y="728">
40.0
</text>
<path stroke="black" stroke-dasharray="1,2" d="M520 704l0 -639"/>
<text stroke="none" fill="black" font-size="16" x="500" y="728">
50.0
</text>
<path stroke="black" stroke-dasharray="1,2" d="M603 704l0 -639"/>
<text stroke="none" fill="black" font-size="16" x="583" y="728">
60.0
</text>
<path stroke="black" stroke-dasharray="1,2" d="M686 704l0 -639"/>
<text stroke="none" fill="black" font-size="16" x="666" y="728">
70.0
</text>
<path stroke="black" stroke-dasharray="1,2" d="M769 704l0 -639"/>
<text stroke="none" fill="black" font-size="16" x="749" y="728">
80.0
</text>
<path stroke="black" stroke-dasharray="1,2" d="M852 704l0 -639"/>
<text stroke="none" fill="black" font-size="16" x="832" y="728">
90.0
</text>
<path stroke="black" stroke-dasharray="1,2" d="M935 704l0 -639"/>
<text stroke="none" fill="black" font-size="16" x="910" y="728">
100.0
</text>
<text stroke="none" fill="black" font-size="16" x="614" y="752">
us
</text>
<path stroke="black" stroke-dasharray="1,2" d="M105 704l830 0"/>
<text stroke="none" fill="black" font-size="16" x="43" y="712">
1.2380
</text>
<path stroke="black" stroke-dasharray="1,2" d="M105 633l830 0"/>
<text stroke="none" fill="black" font-size="16" x="43" y="641">
1.2390
</text>
<path stroke="black" stroke-dasharray="1,2" d="M105 562l830 0"/>
<text stroke="none" fill="black" font-size="16" x="43" y="570">
1.2400
</text>
<path stroke="black" stroke-dasharray="1,2" d="M105 491l830 0"/>
<text stroke="none" fill="black" font-size="16" x="43" y="499">
1.2410
</text>
<path stroke="black" stroke-dasharray="1,2" d="M105 420l830 0"/>
<text stroke="none" fill="black" font-size="16" x="43" y="428">
1.2420
</text>
<path stroke="black" stroke-dasharray="1,2" d="M105 349l830 0"/>
<text stroke="none" fill="black" font-size="16" x="43" y="357">
1.2430
</text>
<path stroke="black" stroke-dasharray="1,2" d="M105 278l830 0"/>
<text stroke="none" fill="black" font-size="16" x="43" y="286">
1.2440
</text>
<path stroke="black" stroke-dasharray="1,2" d="M105 207l830 0"/>
<text stroke="none" fill="black" font-size="16" x="43" y="215">
1.2450
</text>
<path stroke="black" stroke-dasharray="1,2" d="M105 136l830 0"/>
<text stroke="none" fill="black" font-size="16" x="43" y="144">
1.2460
</text>
<path stroke="black" stroke-dasharray="1,2" d="M105 65l830 0"/>
<text stroke="none" fill="black" font-size="16" x="43" y="73">
1.2470
</text>
<text stroke="none" fill="black" font-size="16" x="10" y="32">
V
</text>
<path stroke="red" d="M415 23l41 0"/>
<text stroke="none" fill="black" font-size="16" x="466" y="32">
(tran1.vout)
</text>
<path stroke="red" d="M105 641l0 -92M105 641l1 12 0 -89M106 647l1 -22M107 652l0 -89M107 596l1 -23M108 652l0 -90 1 7M109 651l0 -89M109 589l1 27M110 651l0 -90M110 639l1 11 0 -89M111 622l1 -28M112 649l0 -89M112 570l1 -10M113 649l0 -90M113 566l1 21"/>
<path stroke="red" d="M114 648l0 -89M114 613l1 24M115 648l0 -90M115 647l1 -6M116 647l0 -89M116 619l1 -28M117 646l0 -89M117 567l1 -10M118 646l0 -90M118 563l1 21M119 645l0 -89M119 610l1 23M120 645l0 -90M120 644l1 -6M121 644l0 -89M121 616l1 -28"/>
<path stroke="red" d="M122 643l0 -89M122 564l1 -10M123 643l0 -90M123 560l1 21M124 642l0 -89M124 607l1 23M125 642l0 -90M125 641l1 -6M126 641l0 -89M126 613l1 -28M127 640l0 -89M127 561l1 -10M128 640l0 -90M128 557l1 21M129 639l0 -89M129 604l1 23"/>
<path stroke="red" d="M130 639l0 -90M130 638l1 -6M131 638l0 -89M131 610l1 -28M132 637l0 -89 1 6M133 637l0 -90M133 575l1 26M134 636l0 -89M134 624l1 12 0 -90M135 629l1 -22M136 635l0 -89M136 579l1 -24M137 634l0 -89 1 6M138 634l0 -90M138 572l1 26"/>
<path stroke="red" d="M139 633l0 -90M139 621l1 12 0 -90M140 626l1 -22M141 632l0 -90M141 575l1 -23M142 631l0 -90 1 7M143 630l0 -89M143 568l1 27M144 630l0 -90M144 618l1 11 0 -89M145 623l1 -22M146 628l0 -89M146 572l1 -23M147 628l0 -90 1 7M148 627l0 -89"/>
<path stroke="red" d="M148 565l1 27M149 627l0 -90M149 615l1 11 0 -89M150 620l1 -22M151 625l0 -89M151 569l1 -23M152 625l0 -90M152 542l1 21M153 624l0 -89M153 589l1 24M154 624l0 -90M154 623l1 -6M155 623l0 -89M155 595l1 -28M156 622l0 -89M156 543l1 -10"/>
<path stroke="red" d="M157 622l0 -90M157 539l1 21M158 621l0 -89M158 586l1 24M159 621l0 -90M159 620l1 -6M160 620l0 -89M160 592l1 -28M161 619l0 -89M161 540l1 -10M162 619l0 -90M162 536l1 21M163 618l0 -89M163 583l1 24M164 618l0 -90M164 617l1 -6M165 617l0 -89"/>
<path stroke="red" d="M165 589l1 -28M166 616l0 -89M166 537l1 -10M167 616l0 -90M167 533l1 21M168 615l0 -89M168 580l1 23M169 615l0 -90M169 614l1 -6M170 614l0 -89M170 586l1 -28M171 613l0 -89M171 534l1 -10M172 613l0 -90M172 530l1 21M173 612l0 -89"/>
<path stroke="red" d="M173 600l1 12 0 -90M174 605l1 -21M175 611l0 -89M175 555l1 -24M176 610l0 -89 1 7M177 610l0 -90M177 548l1 26M178 609l0 -89M178 597l1 12 0 -90M179 602l1 -21M180 608l0 -89M180 552l1 -24M181 607l0 -89 1 7M182 607l0 -90M182 545l1 26"/>
<path stroke="red" d="M183 606l0 -89M183 594l1 12 0 -90M184 599l1 -21M185 605l0 -89M185 549l1 -24M186 604l0 -89 1 6M187 604l0 -90M187 542l1 26M188 603l0 -89M188 591l1 12 0 -90M189 596l1 -22M190 602l0 -89M190 546l1 -24M191 601l0 -89 1 6M192 601l0 -90"/>
<path stroke="red" d="M192 539l1 26M193 600l0 -89M193 588l1 12 0 -90M194 571l1 -28M195 599l0 -90M195 519l1 -10M196 598l0 -90M196 515l1 21M197 598l0 -90M197 562l1 24M198 597l0 -90M198 597l1 -6M199 596l0 -89M199 568l1 -28M200 596l0 -90M200 516l1 -10"/>
<path stroke="red" d="M201 595l0 -90M201 512l1 21M202 595l0 -90M202 559l1 24M203 594l0 -90M203 593l1 -6M204 593l0 -89M204 565l1 -28M205 592l0 -89M205 513l1 -10M206 592l0 -90M206 509l1 21M207 591l0 -89M207 556l1 24M208 591l0 -90M208 590l1 -6M209 590l0 -89"/>
<path stroke="red" d="M209 562l1 -28M210 589l0 -89M210 510l1 -10M211 589l0 -90M211 506l1 21M212 588l0 -89M212 553l1 24M213 588l0 -90M213 587l1 -6M214 587l0 -89M214 559l1 -28M215 586l0 -89 1 7M216 586l0 -90M216 524l1 27M217 585l0 -89M217 574l1 11"/>
<path stroke="red" d="M218 585l0 -90M218 578l1 -21M219 584l0 -89M219 528l1 -24M220 583l0 -89 1 7M221 583l0 -90M221 521l1 27M222 582l0 -89M222 571l1 11 0 -90M223 575l1 -21M224 581l0 -89M224 525l1 -24M225 580l0 -89 1 7M226 580l0 -90M226 518l1 27"/>
<path stroke="red" d="M227 579l0 -89M227 568l1 11 0 -90M228 572l1 -21M229 578l0 -89M229 522l1 -24M230 577l0 -89 1 7M231 577l0 -90M231 515l1 27M232 576l0 -89M232 565l1 11 0 -90M233 569l1 -21M234 575l0 -89M234 519l1 -24M235 574l0 -89M235 492l1 20"/>
<path stroke="red" d="M236 574l0 -90M236 539l1 23M237 573l0 -89M237 573l1 -6M238 572l0 -89M238 545l1 -29M239 572l0 -89M239 492l1 -10M240 571l0 -89M240 489l1 20M241 571l0 -90M241 536l1 23M242 570l0 -89M242 570l1 -6M243 569l0 -89M243 542l1 -29"/>
<path stroke="red" d="M244 569l0 -89M244 489l1 -10M245 568l0 -89M245 486l1 20M246 568l0 -90M246 533l1 23M247 567l0 -89M247 567l1 -6M248 566l0 -89M248 539l1 -29M249 566l0 -89M249 486l1 -10M250 565l0 -89M250 483l1 20M251 565l0 -90M251 530l1 23"/>
<path stroke="red" d="M252 564l0 -89M252 564l1 -6M253 563l0 -89M253 536l1 -29M254 563l0 -89M254 483l1 -10M255 562l0 -89M255 480l1 20M256 562l0 -90M256 550l1 11 0 -89M257 555l1 -22M258 560l0 -89M258 504l1 -23M259 560l0 -90 1 7M260 559l0 -89M260 497l1 27"/>
<path stroke="red" d="M261 559l0 -90M261 547l1 11 0 -89M262 552l1 -22M263 557l0 -89M263 501l1 -23M264 557l0 -90 1 7M265 556l0 -89M265 494l1 27M266 556l0 -90M266 544l1 11 0 -89M267 549l1 -22M268 554l0 -89M268 498l1 -23M269 554l0 -90 1 7M270 553l0 -89"/>
<path stroke="red" d="M270 491l1 27M271 553l0 -90M271 541l1 11 0 -89M272 546l1 -22M273 551l0 -89M273 495l1 -23M274 551l0 -90 1 7M275 550l0 -89M275 488l1 27M276 550l0 -90M276 538l1 11 0 -89M277 521l1 -28M278 548l0 -89M278 469l1 -10M279 548l0 -90"/>
<path stroke="red" d="M279 465l1 21M280 547l0 -89M280 512l1 24M281 547l0 -90M281 546l1 -6M282 546l0 -89M282 518l1 -28M283 545l0 -89M283 466l1 -10M284 545l0 -90M284 462l1 21M285 544l0 -89M285 509l1 24M286 544l0 -90M286 543l1 -6M287 543l0 -89M287 515l1 -28"/>
<path stroke="red" d="M288 542l0 -89M288 463l1 -10M289 542l0 -90M289 459l1 21M290 541l0 -89M290 506l1 24M291 541l0 -90M291 540l1 -6M292 540l0 -89M292 512l1 -28M293 539l0 -89M293 460l1 -10M294 539l0 -90M294 456l1 21M295 538l0 -89M295 503l1 24"/>
<path stroke="red" d="M296 538l0 -90M296 537l1 -6M297 537l0 -89M297 509l1 -28M298 536l0 -89 1 7M299 536l0 -90M299 474l1 27M300 535l0 -89M300 524l1 11 0 -90M301 528l1 -21M302 534l0 -89M302 478l1 -24M303 533l0 -89 1 7M304 533l0 -90M304 471l1 27"/>
<path stroke="red" d="M305 532l0 -89M305 521l1 11 0 -90M306 525l1 -21M307 531l0 -89M307 475l1 -24M308 530l0 -89 1 7M309 530l0 -90M309 468l1 27M310 529l0 -89M310 518l1 11 0 -90M311 522l1 -21M312 528l0 -89M312 472l1 -24M313 527l0 -89 1 7M314 527l0 -90"/>
<path stroke="red" d="M314 465l1 27M315 526l0 -89M315 515l1 11 0 -90M316 519l1 -21M317 525l0 -89M317 469l1 -24M318 524l0 -89M318 442l1 20M319 524l0 -90M319 489l1 23M320 523l0 -89M320 523l1 -6M321 522l0 -89M321 495l1 -29M322 522l0 -89M322 442l1 -10"/>
<path stroke="red" d="M323 521l0 -89M323 439l1 20M324 521l0 -90M324 486l1 23M325 520l0 -89M325 520l1 -6M326 519l0 -89M326 492l1 -29M327 519l0 -89M327 439l1 -10M328 518l0 -89M328 436l1 20M329 518l0 -90M329 483l1 23M330 517l0 -89M330 517l1 -6M331 516l0 -89"/>
<path stroke="red" d="M331 489l1 -29M332 516l0 -89M332 436l1 -10M333 515l0 -89M333 433l1 20M334 515l0 -90M334 480l1 23M335 514l0 -89M335 514l1 -6M336 513l0 -89M336 486l1 -29M337 513l0 -89M337 433l1 -10M338 513l0 -90M338 430l1 20M339 512l0 -90"/>
<path stroke="red" d="M339 500l1 12 0 -90M340 505l1 -22M341 511l0 -90M341 455l1 -24M342 510l0 -90 1 7M343 510l0 -90M343 448l1 26M344 509l0 -90M344 497l1 12 0 -90M345 502l1 -22M346 508l0 -89M346 452l1 -24M347 507l0 -89 1 6M348 507l0 -90M348 445l1 26"/>
<path stroke="red" d="M349 506l0 -89M349 494l1 12 0 -90M350 499l1 -21M351 505l0 -89M351 449l1 -24M352 504l0 -89 1 6M353 504l0 -90M353 442l1 26M354 503l0 -89M354 491l1 12 0 -90M355 496l1 -21M356 502l0 -89M356 446l1 -24M357 501l0 -89 1 7M358 501l0 -90"/>
<path stroke="red" d="M358 439l1 26M359 500l0 -89M359 488l1 12 0 -90M360 472l1 -29M361 499l0 -89M361 419l1 -10M362 498l0 -89M362 416l1 20M363 498l0 -90M363 462l1 24M364 497l0 -89M364 497l1 -6M365 496l0 -89M365 469l1 -29M366 496l0 -89M366 416l1 -10"/>
<path stroke="red" d="M367 495l0 -89M367 413l1 20M368 495l0 -90M368 459l1 24M369 494l0 -89M369 494l1 -6M370 493l0 -89M370 466l1 -29M371 493l0 -89M371 413l1 -10M372 492l0 -89M372 410l1 20M373 492l0 -90M373 457l1 23M374 491l0 -89M374 491l1 -6M375 490l0 -89"/>
<path stroke="red" d="M375 463l1 -29M376 490l0 -89M376 410l1 -10M377 489l0 -89M377 407l1 20M378 489l0 -90M378 454l1 23M379 488l0 -89M379 488l1 -6M380 487l0 -89M380 460l1 -29M381 487l0 -90 1 7M382 486l0 -89M382 424l1 27M383 486l0 -90M383 474l1 11"/>
<path stroke="red" d="M384 485l0 -89M384 479l1 -22M385 484l0 -89M385 428l1 -23M386 484l0 -90 1 7M387 483l0 -89M387 421l1 27M388 483l0 -90M388 471l1 11 0 -89M389 476l1 -22M390 481l0 -89M390 425l1 -23M391 481l0 -90 1 7M392 480l0 -89M392 418l1 27"/>
<path stroke="red" d="M393 480l0 -90M393 468l1 11 0 -89M394 473l1 -22M395 478l0 -89M395 422l1 -23M396 478l0 -90 1 7M397 477l0 -89M397 415l1 27M398 477l0 -90M398 465l1 12 0 -90M399 470l1 -22M400 476l0 -90M400 420l1 -24M401 475l0 -90M401 392l1 21"/>
<path stroke="red" d="M402 475l0 -90M402 439l1 24M403 474l0 -89M403 474l1 -6M404 473l0 -89M404 445l1 -28M405 473l0 -89M405 393l1 -10M406 472l0 -89M406 389l1 21M407 472l0 -90M407 436l1 24M408 471l0 -89M408 471l1 -6M409 470l0 -89M409 443l1 -29"/>
<path stroke="red" d="M410 470l0 -89M410 390l1 -10M411 469l0 -89M411 387l1 20M412 469l0 -90M412 433l1 24M413 468l0 -89M413 468l1 -6M414 467l0 -89M414 440l1 -29M415 467l0 -89M415 387l1 -10M416 466l0 -89M416 384l1 20M417 466l0 -90M417 430l1 24"/>
<path stroke="red" d="M418 465l0 -89M418 465l1 -6M419 464l0 -89M419 437l1 -29M420 464l0 -89M420 384l1 -10M421 463l0 -89M421 381l1 20M422 463l0 -90M422 451l1 11 0 -89M423 456l1 -22M424 461l0 -89M424 405l1 -23M425 461l0 -90 1 7M426 460l0 -89M426 398l1 27"/>
<path stroke="red" d="M427 460l0 -90M427 448l1 11 0 -89M428 453l1 -22M429 458l0 -89M429 402l1 -23M430 458l0 -90 1 7M431 457l0 -89M431 395l1 27M432 457l0 -90M432 445l1 11 0 -89M433 450l1 -22M434 455l0 -89M434 399l1 -23M435 455l0 -90 1 7M436 454l0 -89"/>
<path stroke="red" d="M436 392l1 27M437 454l0 -90M437 442l1 11 0 -89M438 447l1 -22M439 453l0 -90M439 397l1 -24M440 452l0 -90 1 7M441 452l0 -90M441 390l1 26M442 451l0 -89M442 439l1 12 0 -90M443 422l1 -28M444 450l0 -89M444 370l1 -10M445 449l0 -89"/>
<path stroke="red" d="M445 366l1 21M446 449l0 -90M446 413l1 24M447 448l0 -89M447 448l1 -6M448 447l0 -89M448 420l1 -29M449 447l0 -89M449 367l1 -10M450 446l0 -89M450 364l1 20M451 446l0 -90M451 410l1 24M452 445l0 -89M452 445l1 -6M453 444l0 -89M453 417l1 -29"/>
<path stroke="red" d="M454 444l0 -89M454 364l1 -10M455 443l0 -89M455 361l1 20M456 443l0 -90M456 408l1 23M457 442l0 -89M457 442l1 -6M458 441l0 -89M458 414l1 -29M459 441l0 -89M459 361l1 -10M460 440l0 -89M460 358l1 20M461 440l0 -90M461 405l1 23"/>
<path stroke="red" d="M462 439l0 -89M462 439l1 -6M463 438l0 -89M463 411l1 -29M464 438l0 -90 1 7M465 437l0 -89M465 375l1 27M466 437l0 -90M466 425l1 11 0 -89M467 430l1 -22M468 435l0 -89M468 379l1 -23M469 435l0 -90 1 7M470 434l0 -89M470 372l1 27"/>
<path stroke="red" d="M471 434l0 -90M471 422l1 12 0 -90M472 427l1 -22M473 433l0 -90M473 377l1 -24M474 432l0 -89 1 6M475 432l0 -90M475 370l1 26M476 431l0 -89M476 419l1 12 0 -90M477 424l1 -21M478 430l0 -89M478 374l1 -24M479 429l0 -89 1 7M480 429l0 -90"/>
<path stroke="red" d="M480 367l1 26M481 428l0 -89M481 416l1 12 0 -90M482 421l1 -21M483 427l0 -89M483 371l1 -24M484 426l0 -89M484 344l1 20M485 426l0 -90M485 391l1 23M486 425l0 -89M486 425l1 -6M487 424l0 -89M487 397l1 -29M488 424l0 -89M488 344l1 -10"/>
<path stroke="red" d="M489 423l0 -89M489 341l1 20M490 423l0 -90M490 388l1 23M491 422l0 -89M491 422l1 -6M492 421l0 -89M492 394l1 -29M493 421l0 -89M493 341l1 -10M494 420l0 -89M494 338l1 20M495 420l0 -90M495 385l1 23M496 419l0 -89M496 419l1 -6M497 418l0 -89"/>
<path stroke="red" d="M497 391l1 -29M498 418l0 -89M498 338l1 -10M499 418l0 -90M499 335l1 20M500 417l0 -90M500 382l1 23M501 417l0 -90M501 416l1 -6M502 416l0 -89M502 388l1 -28M503 415l0 -89M503 335l1 -9M504 415l0 -90M504 332l1 21M505 414l0 -89"/>
<path stroke="red" d="M505 402l1 12 0 -90M506 407l1 -21M507 413l0 -89M507 357l1 -24M508 412l0 -89 1 7M509 412l0 -90M509 350l1 26M510 411l0 -89M510 399l1 12 0 -90M511 404l1 -21M512 410l0 -89M512 354l1 -24M513 409l0 -89 1 7M514 409l0 -90M514 347l1 27"/>
<path stroke="red" d="M515 408l0 -89M515 397l1 11 0 -90M516 401l1 -21M517 407l0 -89M517 351l1 -24M518 406l0 -89 1 7M519 406l0 -90M519 344l1 27M520 405l0 -89M520 394l1 11 0 -90M521 398l1 -21M522 404l0 -89M522 348l1 -24M523 403l0 -89 1 7M524 403l0 -90"/>
<path stroke="red" d="M524 341l1 27M525 403l0 -90M525 391l1 11 0 -89M526 374l1 -28M527 401l0 -89M527 321l1 -9M528 401l0 -90M528 318l1 21M529 400l0 -89M529 365l1 23M530 400l0 -90M530 399l1 -6M531 399l0 -89M531 371l1 -28M532 398l0 -89M532 319l1 -10"/>
<path stroke="red" d="M533 398l0 -90M533 315l1 21M534 397l0 -89M534 362l1 23M535 397l0 -90M535 396l1 -6M536 396l0 -89M536 368l1 -28M537 395l0 -89M537 316l1 -10M538 395l0 -90M538 312l1 21M539 394l0 -89M539 359l1 24M540 394l0 -90M540 393l1 -6M541 393l0 -89"/>
<path stroke="red" d="M541 365l1 -28M542 392l0 -89M542 313l1 -10M543 392l0 -90M543 309l1 21M544 391l0 -89M544 356l1 24M545 391l0 -90M545 390l1 -6M546 390l0 -89M546 362l1 -28M547 390l0 -90 1 7M548 389l0 -89M548 327l1 27M549 389l0 -90M549 377l1 11"/>
<path stroke="red" d="M550 388l0 -89M550 382l1 -22M551 387l0 -89M551 331l1 -24M552 387l0 -90 1 7M553 386l0 -89M553 324l1 27M554 386l0 -90M554 374l1 11 0 -89M555 379l1 -22M556 384l0 -89M556 328l1 -23M557 384l0 -90 1 7M558 383l0 -89M558 321l1 27"/>
<path stroke="red" d="M559 383l0 -90M559 371l1 11 0 -89M560 376l1 -22M561 381l0 -89M561 325l1 -23M562 381l0 -90 1 7M563 380l0 -89M563 318l1 27M564 380l0 -90M564 368l1 11 0 -89M565 373l1 -22M566 378l0 -89M566 322l1 -23M567 378l0 -90M567 295l1 21"/>
<path stroke="red" d="M568 378l0 -90M568 342l1 24M569 377l0 -89M569 377l1 -6M570 376l0 -89M570 349l1 -29M571 376l0 -89M571 296l1 -10M572 375l0 -89M572 293l1 20M573 375l0 -90M573 339l1 24M574 374l0 -89M574 374l1 -6M575 373l0 -89M575 346l1 -29"/>
<path stroke="red" d="M576 373l0 -89M576 293l1 -10M577 372l0 -89M577 290l1 20M578 372l0 -90M578 337l1 23M579 371l0 -89M579 371l1 -6M580 370l0 -89M580 343l1 -29M581 370l0 -89M581 290l1 -10M582 369l0 -89M582 287l1 20M583 369l0 -90M583 334l1 23"/>
<path stroke="red" d="M584 368l0 -89M584 368l1 -6M585 367l0 -89M585 340l1 -29M586 367l0 -89M586 287l1 -10M587 367l0 -90M587 284l1 20M588 366l0 -90M588 354l1 12 0 -90M589 359l1 -22M590 365l0 -89M590 309l1 -24M591 364l0 -89 1 6M592 364l0 -90M592 302l1 26"/>
<path stroke="red" d="M593 363l0 -89M593 351l1 12 0 -90M594 356l1 -21M595 362l0 -89M595 306l1 -24M596 361l0 -89 1 7M597 361l0 -90M597 299l1 27M598 360l0 -89M598 349l1 11 0 -90M599 353l1 -21M600 359l0 -89M600 303l1 -24M601 358l0 -89 1 7M602 358l0 -90"/>
<path stroke="red" d="M602 296l1 27M603 357l0 -89M603 346l1 11 0 -90M604 350l1 -21M605 356l0 -89M605 300l1 -24M606 356l0 -90 1 7M607 355l0 -89M607 293l1 27M608 355l0 -90M608 343l1 11 0 -89M609 326l1 -28M610 353l0 -89M610 273l1 -9M611 353l0 -90"/>
<path stroke="red" d="M611 270l1 21M612 352l0 -89M612 317l1 23M613 352l0 -90M613 351l1 -6M614 351l0 -89M614 323l1 -28M615 350l0 -89M615 271l1 -10M616 350l0 -90M616 267l1 21M617 349l0 -89M617 314l1 24M618 349l0 -90M618 348l1 -6M619 348l0 -89M619 320l1 -28"/>
<path stroke="red" d="M620 347l0 -89M620 268l1 -10M621 347l0 -90M621 264l1 21M622 346l0 -89M622 311l1 24M623 346l0 -90M623 346l1 -6M624 345l0 -89M624 317l1 -28M625 345l0 -89M625 265l1 -10M626 344l0 -89M626 261l1 21M627 344l0 -90M627 308l1 24"/>
<path stroke="red" d="M628 343l0 -89M628 343l1 -6M629 342l0 -89M629 315l1 -29M630 342l0 -90 1 7M631 341l0 -89M631 279l1 27M632 341l0 -90M632 329l1 11 0 -89M633 334l1 -22M634 339l0 -89M634 283l1 -23M635 339l0 -90 1 7M636 338l0 -89M636 276l1 27"/>
<path stroke="red" d="M637 338l0 -90M637 326l1 11 0 -89M638 331l1 -22M639 336l0 -89M639 280l1 -23M640 336l0 -90 1 7M641 336l0 -90M641 274l1 26M642 335l0 -89M642 323l1 12 0 -90M643 328l1 -21M644 334l0 -89M644 278l1 -24M645 333l0 -89 1 7M646 333l0 -90"/>
<path stroke="red" d="M646 271l1 26M647 332l0 -89M647 320l1 12 0 -90M648 325l1 -21M649 331l0 -89M649 275l1 -24M650 330l0 -89M650 248l1 20M651 330l0 -90M651 295l1 23M652 329l0 -89M652 329l1 -6M653 328l0 -89M653 301l1 -29M654 328l0 -89M654 248l1 -10"/>
<path stroke="red" d="M655 327l0 -89M655 245l1 20M656 327l0 -90M656 292l1 23M657 327l0 -90M657 326l1 -6M658 326l0 -89M658 298l1 -28M659 325l0 -89M659 245l1 -9M660 325l0 -90M660 242l1 21M661 324l0 -89M661 289l1 23M662 324l0 -90M662 323l1 -6M663 323l0 -89"/>
<path stroke="red" d="M663 295l1 -28M664 322l0 -89M664 243l1 -10M665 322l0 -90M665 239l1 21M666 321l0 -89M666 286l1 24M667 321l0 -90M667 320l1 -6M668 320l0 -89M668 292l1 -28M669 319l0 -89M669 240l1 -10M670 319l0 -90M670 236l1 21M671 318l0 -89"/>
<path stroke="red" d="M671 307l1 11 0 -90M672 312l1 -22M673 317l0 -89M673 261l1 -24M674 317l0 -90 1 7M675 316l0 -89M675 254l1 27M676 316l0 -90M676 304l1 11 0 -89M677 309l1 -22M678 314l0 -89M678 258l1 -23M679 314l0 -90 1 7M680 313l0 -89M680 251l1 27"/>
<path stroke="red" d="M681 313l0 -90M681 301l1 11 0 -89M682 306l1 -22M683 311l0 -89M683 255l1 -23M684 311l0 -90 1 7M685 310l0 -89M685 248l1 27M686 310l0 -90M686 298l1 12 0 -90M687 303l1 -22M688 309l0 -89M688 253l1 -24M689 308l0 -89 1 6M690 308l0 -90"/>
<path stroke="red" d="M690 246l1 26M691 307l0 -89M691 295l1 12 0 -90M692 279l1 -29M693 306l0 -89M693 226l1 -10M694 305l0 -89M694 223l1 20M695 305l0 -90M695 270l1 23M696 304l0 -89M696 304l1 -6M697 303l0 -89M697 276l1 -29M698 303l0 -89M698 223l1 -10"/>
<path stroke="red" d="M699 302l0 -89M699 220l1 20M700 302l0 -90M700 267l1 23M701 302l0 -90M701 301l1 -6M702 301l0 -89M702 273l1 -28M703 300l0 -89M703 220l1 -9M704 300l0 -90M704 217l1 21M705 299l0 -89M705 264l1 23M706 299l0 -90M706 298l1 -6M707 298l0 -89"/>
<path stroke="red" d="M707 270l1 -28M708 297l0 -89M708 218l1 -10M709 297l0 -90M709 214l1 21M710 296l0 -89M710 261l1 24M711 296l0 -90M711 295l1 -6M712 295l0 -89M712 267l1 -28M713 294l0 -89 1 7M714 294l0 -90M714 232l1 27M715 294l0 -90M715 282l1 11"/>
<path stroke="red" d="M716 293l0 -89M716 287l1 -22M717 292l0 -89M717 236l1 -24M718 292l0 -90 1 7M719 291l0 -89M719 229l1 27M720 291l0 -90M720 279l1 11 0 -89M721 284l1 -22M722 289l0 -89M722 233l1 -23M723 289l0 -90 1 7M724 288l0 -89M724 226l1 27"/>
<path stroke="red" d="M725 288l0 -90M725 276l1 11 0 -89M726 281l1 -22M727 286l0 -89M727 230l1 -23M728 286l0 -90 1 7M729 286l0 -90M729 224l1 26M730 285l0 -89M730 273l1 12 0 -90M731 278l1 -21M732 284l0 -89M732 228l1 -24M733 283l0 -89M733 201l1 20"/>
<path stroke="red" d="M734 283l0 -90M734 248l1 23M735 282l0 -89M735 282l1 -6M736 281l0 -89M736 254l1 -29M737 281l0 -89M737 201l1 -10M738 280l0 -89M738 198l1 20M739 280l0 -90M739 245l1 23M740 279l0 -89M740 279l1 -6M741 279l0 -90M741 251l1 -28"/>
<path stroke="red" d="M742 278l0 -89M742 198l1 -9M743 278l0 -90M743 195l1 21M744 277l0 -89M744 242l1 23M745 277l0 -90M745 276l1 -6M746 276l0 -89M746 248l1 -28M747 275l0 -89M747 196l1 -10M748 275l0 -90M748 192l1 21M749 274l0 -89M749 239l1 24M750 274l0 -90"/>
<path stroke="red" d="M750 273l1 -6M751 273l0 -89M751 245l1 -28M752 272l0 -89M752 193l1 -10M753 272l0 -90M753 189l1 21M754 272l0 -90M754 260l1 11 0 -89M755 265l1 -22M756 270l0 -89M756 214l1 -24M757 270l0 -90 1 7M758 269l0 -89M758 207l1 27M759 269l0 -90"/>
<path stroke="red" d="M759 257l1 11 0 -89M760 262l1 -22M761 267l0 -89M761 211l1 -23M762 267l0 -90 1 7M763 266l0 -89M763 204l1 27M764 266l0 -90M764 254l1 11 0 -89M765 259l1 -22M766 265l0 -90M766 209l1 -24M767 264l0 -89 1 6M768 264l0 -90M768 202l1 26"/>
<path stroke="red" d="M769 263l0 -89M769 251l1 12 0 -90M770 256l1 -21M771 262l0 -89M771 206l1 -24M772 261l0 -89 1 7M773 261l0 -90M773 199l1 27M774 260l0 -89M774 249l1 11 0 -90M775 232l1 -29M776 259l0 -89M776 179l1 -10M777 258l0 -89M777 176l1 20"/>
<path stroke="red" d="M778 258l0 -90M778 223l1 23M779 258l0 -90M779 257l1 -6M780 257l0 -89M780 229l1 -28M781 256l0 -89M781 176l1 -9M782 256l0 -90M782 173l1 21M783 255l0 -89M783 220l1 23M784 255l0 -90M784 254l1 -6M785 254l0 -89M785 226l1 -28M786 253l0 -89"/>
<path stroke="red" d="M786 174l1 -10M787 253l0 -90M787 170l1 21M788 252l0 -89M788 217l1 24M789 252l0 -90M789 251l1 -6M790 251l0 -89M790 223l1 -28M791 251l0 -90M791 171l1 -10M792 250l0 -89M792 167l1 21M793 250l0 -90M793 214l1 24M794 249l0 -89"/>
<path stroke="red" d="M794 249l1 -6M795 248l0 -89M795 221l1 -29M796 248l0 -90 1 7M797 247l0 -89M797 185l1 27M798 247l0 -90M798 235l1 11 0 -89M799 240l1 -22M800 245l0 -89M800 189l1 -23M801 245l0 -90 1 7M802 245l0 -90M802 183l1 26M803 244l0 -89"/>
<path stroke="red" d="M803 232l1 12 0 -90M804 237l1 -21M805 243l0 -89M805 187l1 -24M806 242l0 -89 1 7M807 242l0 -90M807 180l1 27M808 241l0 -89M808 230l1 11 0 -90M809 234l1 -21M810 240l0 -89M810 184l1 -24M811 239l0 -89 1 7M812 239l0 -90M812 177l1 27"/>
<path stroke="red" d="M813 238l0 -89M813 227l1 11 0 -90M814 232l1 -22M815 237l0 -89M815 181l1 -24M816 237l0 -90M816 154l1 21M817 236l0 -89M817 201l1 23M818 236l0 -90M818 235l1 -6M819 235l0 -89M819 207l1 -28M820 234l0 -89M820 155l1 -10M821 234l0 -90"/>
<path stroke="red" d="M821 151l1 21M822 233l0 -89M822 198l1 24M823 233l0 -90M823 232l1 -6M824 232l0 -89M824 204l1 -28M825 232l0 -90M825 152l1 -10M826 231l0 -89M826 148l1 21M827 231l0 -90M827 195l1 24M828 230l0 -89M828 230l1 -6M829 229l0 -89M829 202l1 -29"/>
<path stroke="red" d="M830 229l0 -89M830 149l1 -10M831 228l0 -89M831 146l1 20M832 228l0 -90M832 193l1 23M833 227l0 -89M833 227l1 -6M834 226l0 -89M834 199l1 -29M835 226l0 -89M835 146l1 -10M836 226l0 -90M836 143l1 21M837 225l0 -89M837 213l1 12"/>
<path stroke="red" d="M838 225l0 -90M838 218l1 -21M839 224l0 -89M839 168l1 -24M840 223l0 -89 1 7M841 223l0 -90M841 161l1 27M842 222l0 -89M842 211l1 11 0 -90M843 215l1 -21M844 221l0 -89M844 165l1 -24M845 220l0 -89 1 7M846 220l0 -90M846 158l1 27"/>
<path stroke="red" d="M847 220l0 -90M847 208l1 11 0 -89M848 213l1 -22M849 218l0 -89M849 162l1 -23M850 218l0 -90 1 7M851 217l0 -89M851 155l1 27M852 217l0 -90M852 205l1 11 0 -89M853 210l1 -22M854 215l0 -89M854 159l1 -23M855 215l0 -90 1 7M856 214l0 -89"/>
<path stroke="red" d="M856 152l1 27M857 214l0 -90M857 202l1 12 0 -90M858 186l1 -29M859 213l0 -89M859 133l1 -10M860 212l0 -89M860 130l1 20M861 212l0 -90M861 176l1 24M862 211l0 -89M862 211l1 -6M863 210l0 -89M863 183l1 -29M864 210l0 -89M864 130l1 -10"/>
<path stroke="red" d="M865 209l0 -89M865 127l1 20M866 209l0 -90M866 174l1 23M867 208l0 -89M867 208l1 -6M868 208l0 -90M868 180l1 -28M869 207l0 -89M869 127l1 -9M870 207l0 -90M870 124l1 21M871 206l0 -89M871 171l1 23M872 206l0 -90M872 205l1 -6M873 205l0 -89"/>
<path stroke="red" d="M873 177l1 -28M874 204l0 -89M874 125l1 -10M875 204l0 -90M875 121l1 21M876 203l0 -89M876 168l1 24M877 203l0 -90M877 203l1 -6M878 202l0 -89M878 174l1 -28M879 202l0 -90 1 7M880 201l0 -89M880 139l1 27M881 201l0 -90M881 189l1 11"/>
<path stroke="red" d="M882 200l0 -89M882 194l1 -22M883 199l0 -89M883 143l1 -23M884 199l0 -90 1 7M885 198l0 -89M885 136l1 27M886 198l0 -90M886 186l1 11 0 -89M887 191l1 -22M888 197l0 -90M888 141l1 -24M889 196l0 -89 1 6M890 196l0 -90M890 134l1 26"/>
<path stroke="red" d="M891 195l0 -89M891 183l1 12 0 -90M892 188l1 -21M893 194l0 -89M893 138l1 -24M894 193l0 -89 1 7M895 193l0 -90M895 131l1 27M896 192l0 -89M896 181l1 11 0 -90M897 186l1 -22M898 191l0 -89M898 135l1 -24M899 191l0 -90M899 108l1 21"/>
<path stroke="red" d="M900 190l0 -89M900 155l1 23M901 190l0 -90M901 189l1 -6M902 189l0 -89M902 161l1 -28M903 188l0 -89M903 109l1 -10M904 188l0 -90M904 105l1 21M905 187l0 -89M905 152l1 24M906 187l0 -90M906 186l1 -6M907 186l0 -89M907 158l1 -28"/>
<path stroke="red" d="M908 186l0 -90M908 106l1 -10M909 185l0 -89M909 102l1 21M910 185l0 -90M910 149l1 24M911 184l0 -89M911 184l1 -6M912 183l0 -89M912 156l1 -29M913 183l0 -89M913 103l1 -10M914 182l0 -89M914 100l1 20M915 182l0 -90M915 147l1 23"/>
<path stroke="red" d="M916 181l0 -89M916 181l1 -6M917 181l0 -90M917 153l1 -28M918 180l0 -89M918 100l1 -9M919 180l0 -90M919 97l1 21M920 179l0 -89M920 167l1 12 0 -90M921 172l1 -21M922 178l0 -89M922 122l1 -24M923 177l0 -89 1 7M924 177l0 -90M924 115l1 27"/>
<path stroke="red" d="M925 176l0 -89M925 165l1 11 0 -90M926 170l1 -22M927 175l0 -89M927 119l1 -24M928 175l0 -90 1 7M929 174l0 -89M929 112l1 27M930 174l0 -90M930 162l1 11 0 -89M931 167l1 -22M932 172l0 -89M932 116l1 -23M933 172l0 -90 1 7M934 171l0 -89"/>
<path stroke="red" d="M934 109l1 27M935 171l0 -74"/>
</svg>
